/* XPM */
static char *_540305179503[] = {
/* columns rows colors chars-per-pixel */
"64 64 204 2 ",
"   c #90663E",
".  c #926C44",
"X  c #926D4A",
"o  c #917043",
"O  c #9B7445",
"+  c #95724D",
"@  c #9B754D",
"#  c #9E7849",
"$  c #967250",
"%  c #9E7853",
"&  c #9C7450",
"*  c #A07B47",
"=  c #A37B4C",
"-  c #A37746",
";  c #A37C52",
":  c #A97F53",
">  c #A57F58",
",  c #AC834F",
"<  c #B0824E",
"1  c #A78253",
"2  c #AC8454",
"3  c #A68856",
"4  c #AB845B",
"5  c #AD895B",
"6  c #AC8854",
"7  c #B28553",
"8  c #B48A55",
"9  c #BC8C55",
"0  c #B2875B",
"q  c #B58B5B",
"w  c #BA8D5C",
"e  c #AF915F",
"r  c #B09057",
"t  c #BE9055",
"y  c #B6915D",
"u  c #BB925D",
"i  c #BF9B5D",
"p  c #AD8661",
"a  c #AF8862",
"s  c #B18761",
"d  c #B48C63",
"f  c #B98E64",
"g  c #B58E69",
"h  c #B98F6A",
"j  c #B59264",
"k  c #BC9364",
"l  c #BC9A64",
"z  c #B7916C",
"x  c #BC936C",
"c  c #BE9B6B",
"v  c #B69A68",
"b  c #BC9571",
"n  c #BE9974",
"m  c #BEA062",
"M  c #BEA16E",
"N  c #BFA573",
"B  c #BFA876",
"V  c #C08F57",
"C  c #C2935C",
"Z  c #C39A5E",
"A  c #C29464",
"S  c #C89664",
"D  c #C49C65",
"F  c #C89E62",
"G  c #C2966B",
"H  c #C49A6C",
"J  c #CA9C6C",
"K  c #C29771",
"L  c #C49B73",
"P  c #C99D74",
"I  c #C39D79",
"U  c #CA9E79",
"Y  c #C5A265",
"T  c #CCA165",
"R  c #C3A26C",
"E  c #CBA36C",
"W  c #CEA96D",
"Q  c #D3A266",
"!  c #D2A46D",
"~  c #DAA768",
"^  c #D2AC6E",
"/  c #DEAB6E",
"(  c #C4A573",
")  c #CCA274",
"_  c #C5A974",
"`  c #CCAB74",
"'  c #C7A27A",
"]  c #CDA27B",
"[  c #C7AB79",
"{  c #CBAB7A",
"}  c #D4A574",
"|  c #D9A674",
" . c #D3AA75",
".. c #DBAB75",
"X. c #D2A67C",
"o. c #D4AA7C",
"O. c #DBAC7C",
"+. c #CFB070",
"@. c #CDB17C",
"#. c #D5B175",
"$. c #DDB276",
"%. c #D5B47C",
"&. c #DDB17C",
"*. c #DEBA7A",
"=. c #E1AE73",
"-. c #E1AE7B",
";. c #E4B276",
":. c #E8B775",
">. c #E9B876",
",. c #E4B37C",
"<. c #E9B67C",
"1. c #E4BC7D",
"2. c #ECBA7E",
"3. c #DDC07E",
"4. c #EDC47D",
"5. c #F0C17D",
"6. c #F3CC7F",
"7. c #C7A381",
"8. c #CEA380",
"9. c #CFAC81",
"0. c #D2A781",
"q. c #D6AB81",
"w. c #DBAD82",
"e. c #DBAF88",
"r. c #D5B581",
"t. c #DCB283",
"y. c #D6B884",
"u. c #DBBA84",
"i. c #DEB489",
"p. c #DCBC8A",
"a. c #E0AF84",
"s. c #E4B484",
"d. c #E9B684",
"f. c #E4BB84",
"g. c #ECBB84",
"h. c #E4B68A",
"j. c #E9B789",
"k. c #E5BB8B",
"l. c #EBBC8B",
"z. c #F1BE85",
"x. c #F1BE8C",
"c. c #E4BF92",
"v. c #ECBE91",
"b. c #F2BF91",
"n. c #DFC18F",
"m. c #DFC091",
"M. c #E5C284",
"N. c #EDC285",
"B. c #E4C28B",
"V. c #EDC28C",
"C. c #EDCA8C",
"Z. c #E9C989",
"A. c #F2C284",
"S. c #F5CA85",
"D. c #F8C981",
"F. c #F2C48B",
"G. c #F9C78C",
"H. c #F4CB8D",
"J. c #F8CD8F",
"K. c #F7D18E",
"L. c #FAD18C",
"P. c #F5D082",
"I. c #E4C593",
"U. c #EDC392",
"Y. c #E6C997",
"T. c #EDCA94",
"R. c #EEC599",
"E. c #E7CA99",
"W. c #EDCC9A",
"Q. c #F2C593",
"!. c #F8C691",
"~. c #F3CB94",
"^. c #F8CD93",
"/. c #F2C599",
"(. c #F4CC9A",
"). c #F9CD9C",
"_. c #EFD193",
"`. c #EED19C",
"'. c #F5D395",
"]. c #F9D294",
"[. c #FDD891",
"{. c #F4D39D",
"}. c #FAD49C",
"|. c #F4D89A",
" X c #FBD99E",
".X c #FEE19F",
"XX c #F7CEA1",
"oX c #F8CDA0",
"OX c #EED3A1",
"+X c #F5D5A1",
"@X c #FAD5A2",
"#X c #F6D9A3",
"$X c #FBDAA4",
"%X c #F6D5A8",
"&X c #FDDDAA",
"*X c #F5DBA8",
"=X c #FEDFB1",
"-X c #F6E0A7",
";X c #FDE1A6",
":X c #FDE2AB",
">X c #FFE8AF",
",X c #FFE4B2",
"<X c #FFEBB6",
"1X c #FFEBB8",
/* pixels */
"f.|.~.(.(.{.R.@X&X{.@X{.~.C.^.H.F.].J.J.Z.%.<X#X>X>X-X-X-X>X.X_.W (.Q.l.l.U.l.l.U.(.R M.[.P.6.6.D.D.D.S.C.Y L.D.5.A.A.A.A.g.J.$.",
"B.(.~.C.(.(.U.R.R.I.Q.U.k.N.g.N.F.g.2.N.4.Y ;X#X-X#X#X#X#X|.|.Z.` (.l.b.l.l.l.Q.j.Q.E M.K.4.S.L.D.5.5.4.Z.Y K.F.H.2.N.2.A.>.N.^ ",
"f.].Q.N.V.(.(.R.(.l.R.U.Q.Q.g.z.g.z.A.2.%.Y ;X|.#X$X X|. X].'.M.X./.V.).l.j.l.Q.l.{.` ~.'.S.J.C.J.S.S.K.Z.H ^.F.A.V.F.A.g.g.~. .",
"t.Q.F.Q.Q.Q.Q.U.v.c.v.Q.b.l.x.F.d.g.<.2.,.Z ;X#X{.|.}.W.|.K.[.#.R }.Q.Q.U.Q.~.l.l.(.E B.K.].S.H.F.H.F.H.B.E @XU.(.^.g.l.N.Z.(.u.",
"&.~.F.l.Q.U.U.U.R.v.Q.k.l.x.x.x.z.g.,.2.;.Y ;X{.#X$X{.{.].K.'.*.} (.U.Q.Q.).l.l.V.(._ B.}.~.S.S.J.H.J.].B.H ).Q.V.Q.l.C.Q.l.{.p.",
"&.}.F.Q.V.l.U.U.U.v.v.l.~.l.d.g.z.g.2.2.,.Y ;X{.#X{.{.{.|.'.K.f. .(.U.Q.~.b.l.b.Q.R.o.W.}.'.~.F.^.J.~.'.V.R @X~.U.C.Q.(.~.Q.W.m.",
"O.~.l.l.v.U.R.R.U.h.l.~.l.j.l.d.g.<.>.;.$.W &X{.|.+X&X'.'.].'.M.) }.Q.(.Q.F.F.l.l.(.( Y.{. XH.~.].^.~.}.I.{ @X~.H.~.(.).(.T.XXm.",
"&.(.g.~.U./.V.k.h.U.Q.l.j.x.d.x.g.g.2.;.1.Y ;X#X$X+X+X|.}.H.].M.R @XQ.Q.Q.Q.Q.k.C.}.R T.&X}.(.].}.].~.{.W.[ @X).B.(.~.R.U.U.{.m.",
"s.^.l.(.(./.(.U.k.C.C.Q.l.l.F.x.x.g.2.2.2.W &X#X,X&X@X&X}.'. X1.E @X(.).~.!.Q.^.~.}._ W.&X$XT.].~.~.'.@XY.( $XQ.Q.}.}.).U.R.#XY.",
"l t.o.h.i.i.w.w.X.O.o.s.i.t.O.O.} o.-...W r E.E.Y.I.I.Z.k.f.4.#.8 f.&.&.&.;...u.f.k.m `.#X@X(.(.T.(.@X*XOXn ~.V.Q.C.k.f.f.V.I.%.",
"4 k ) x d f j k q k 1 j v v j j j v u v v c B B N N @.@.+.+.+.m Y W Z F Z Z F Y F l R +X$X+X{.(.|.{.'.(.OXe u Q T Z Z Z T T D W ",
") +XR.(.R.v.U.v.k.U.l #X1X1X,X,X,X&X&X,X,X<X,X,X;X>X;X;X;X|..X3.#. X].S.J.].].J.H.'.R {.&X+X+X+X{.{.|.`.*X( F.S.2.F.F.N.N.F.H.N.",
"H k.i.k.h.e.i.s.&.$.y _.+X+X#X{.{.{.+X+X`.{.{.{.(.T.'.C.'.Z.'.*.W '.F.N.F.F.F.g.g.(.R OX@X*X#X+X$X$X+X#X*X( F.>.2.4.2.A.A.2.N.4.",
"G v.s.s.h.l.a.O.O.,.r '.{.{.#X{.{.#X`.#X{.{.|.(.(.C.H.~.].K.[.#.%. X~.F.H.].H.F.~.'.[ @X:X@X%X@X@X*X+X+XW.R H.A.A.z.H.A.N.F.C.Z.",
"k k.w.w.w.w.s.O...s.y ~.$X{.{.#X{.{.+X$X+X@X}.}.].~.N.F.K.S.L.#.u.&X}.~.'.).Q.~.(.{.@.*X#XOX*X#X$X*X{.+XW.c }.J.G.A.F.A.J.F.Z.C.",
"H h.w.s.w.O.O.s. ...8 (.}.@X#X{.{.+X+X+X+X}.T.].(.H.F.].F.M.S.W u.$X}.}.}.(.~.(.V.{._ *X:X#X#X+X$X#X+X{.R._ }.F.H.^.Z.F.F.V.T.Z.",
"L l.h.j.w.a.w.| ..O.u (.|.@X{.+X+X{.%X@X(.(.~.}.H.F.H.V.F.N.].W y.&X'.(.(.~.(.~.T.+X[ #X:X#X#X{.{.{.$X+XOX[ +XC.~.H.~.F.F.Q.'.B.",
") k.a.w.h.w.w.| ..&.8 T.}.|.+X+X{.W.{.{.{.T.~.~.^.F.Z.H.S.N.S.^ u.&X(.+X~.}.T.(.~.(.{ OX-X;X$X{.+X#X#X+XOX[ &X(.Q.~.(.~.C.C.{.p.",
"G w.a.w.s.w.a.| }  .t (.'.'.+X+X{.T.R.+X@X(.(.{.Q.V.F.F.J.N.K.+.%.&X{.(.'.(.~.@XU.`.@.OX-X|.#X#X#X#X`.#XOX{ @XQ.~.Q.(.U.(.U.R.r.",
"} l.v.h.a.s.t.a.O.&.i '.}.$X{.#X$X{.&X{.(.(.$X@X~.^.~.(.~.F.F.*.I.,X+X$X+X@X@X$X{.:X%.#X;X|.;X&X$X;X;X>X`.{ @X+XQ.(.).(.}.R.+Xu.",
"- f A w q q A A w w * ` n.n.p.p.m.Y.I.B.c.R.p.t.r.t.q.r.%. .#.l v p.y.%.y.y.p.u.[ B.l u.T.B.T.Z.V.n.u.p.) ` @XT.(.(.(./.(.(.+Xc.",
"7 | ! ! J J J A w A k _ @.9.{ { 9.( N _ [ v [ { ( [ { i.q.) ) u.r.y.r.r.%.&.%.y.%.%.k j R H D c D k l l k H &X{.(./.x.~.(.(.W.U.",
"| z.=.<.<.<.,.<.,.F.R -X<X<X<X<X:X-X-X;X#XR ,X:X&X&X,X&X$X$X$X$X@X$X$X$X@X X^.].K.H.r %.o.] ] X.) ] ` J P H @X+XR.Y.~.(.(.R.+XI.",
"! g.<.;.=.=.<.-.;.1.R `.>X-X-X#X*X|.|.|.Z.m $X`.`.+X+X+XR.~.(.~.~.T.(.U.^.g.N.4.4.D.q ) ] L L U G P H H k P &X(.(.'.R.~.(.W.%Xp.",
"| z.=.,.,.,.<.<.-.,.D {.:X#X;X#X|.|.'.'.Z.m  X{.{.@X(.@XT.(.~.T.V.T.U.Q.H.g.A.z.5.S.8 H ] P U b K P G G k P &XR.+X(.(.~.(.B.W.c.",
"O.F.<.g.,.j.g.,...s.l E.;X#X+X#X{.|.'.'.M.Y |.'.T.(.'.(.(.Q.Q.Q.U.U.}.(.^.F.A.A.5.2.8 J P P K K P H A G f f &X(.@X{.(.(.(.U.+XY.",
"O.F.d.a.-.s.d.s...h.u T.$X|.+X#X#X'.|.'.C.Z  X].H.~.(.{.~.U.U.V.C.(.~.F.F.F.z.A.2.S.8 H G U U U K x H L 0 D $XXX{.+X(.+X(.W.@XY.",
"w.l.j.d.-.-.s.l.&.V.k Y.#X#X`.|.{.|.'.].C.Y ].~.C.U.Q.(.Q.(.U.(.Q.{.~.U.g.G.G.2.:.S.7 x P L x P ' x x k 0 H &X(.@X}.(.}.T.{.+Xc.",
"q.v.l.h.s.g.s.s.t.Q.k I.&X&X+X+X|.#X X}.Z.F ).(.U.(.(.(.Q.).l.(./.Q.~.Q.F.A.A.z.<.G.< A P L G L P x H k 0 c ;X'.$X(.|.].~.H.{.B.",
"] v.s.j.l.h.l.j.l.U.x Y.:X#X%X#X`.{.{.{.~.D }.T.Q.U.(.U.Q./.Q.U.Q.U.Q.l.j.F.z.g.2.A.8 u L U P b K x H x 0 R ;X$X}.'.}.~.~.Z. XE.",
"o.k.j.l.l.s.v.h.j.k.) W.,X=X%X&X&X#X{.{.T.y {.U.(.%X(.%XXXXXoX@X%X/.).Q.Q.b.!.!.F.F.1 x ] ' I I x x z x y k &X+X{.|.{.W.'.(.$Xu.",
"t.v.h.l.s.h.h.h.t.V.c 5 n v x H j y k y D , k ) H c L P x H H P G G f A H J A S A A O @ ; % ; % + @ : * * 1 { [ { ` R ( R R ` i ",
"o.v.d.j.h.j.a.w.i./.G 1 f w 7 9 q 7 w 8 q D R.j.i.h.h.e.w.s.a.! q O.X.X.o.X.X.X.} P o.) ] P X.) X.P } ! } D ;X&X:XOX*X$X+X'.'.B.",
"q.v.l.x.j.j.a.v.s.U.a 4 A V : 0 w 7 w 0 7 7 s.s.h.h.i.h.s.O...S k w.o.X.o.w.X.o.L X.P L P P H ) J A S A F 8 {.+XW.OX%X*XT.C.C.1.",
"X.l.j.l.v.h.h.b.s.k.s 4 f 0 7 d 0 7 0 7 q 0 h.w.e.w.q.e.o.} | A 0 o.X.P U X.] U P ] L H ) H ) ' J J S S A 8 {.{.@X#X@X(.~.F.H.1.",
"X.oXh.v.b.h.v.j.h./.A 4 d A w d q d 0 d q 0 h.w.o.0.w.o.| | ! A f w.U X.P U ] U P J L G H P P P K S S J A A &X@X#XW.W.{.Z.N.J.1.",
"q.XXh.l.l.j.b.v.s.U.K p G x d h h d f f 0 0 i.q.o.w.X.w.X.| -.A f | | P K L 8.U U L L U K X.K H G G J A w w @X@X(.T.(.T.l.F.H.1.",
"q./.Q.l.l.b.j.b.s.R.x a K h G h h f h x d s w.O.q.w.X.q.| X.a.w : 0.U P P P U U K U K ' U U U H G A G A w w @X~.~.Q.T.Q.H.A.J.1.",
"] /.v.l.j.l.j.x.j.(.g g b h h g f z d d s : w.X.w.0.w.X.a.| } w : ] U P U K U L P U U K K K K H G G A f w q oX).~.R.(.).~.F.V.1.",
") (.l.l.l.x.x.b.l.(.a p K h x d h z z K 4 : v.w.X.a.0.q.w.P ! S 0 X.P K K U U L I L U L U L K A G A G A w 7 )./.).}.(.(.Q.F.V.1.",
") (.V.U.Q.h.z.x.l.(.d g x b x g z f g h s 4 h.w.h.a.e.e.q.] -.H f X.X.] 0.8.8.0.U U 8.8.P K G L H H A G A w @X%X@X).}.R.~.V.^.H.",
", f.,.$.s...O.j...t.2 a K b b g d g x g g @ P H P G G G f C w 7 O G 0 s p p s 4 4 4 d d d d h x k f q f 6 : R.k.h.V.U.h.&.&.;.$.",
"q E C V 9 q V C w D % b x v h g b b g g K = k u 7 V V V V V V 9 2 x G x x g G H x k : 4 d d 4 1 4 ; ; = q j H c H R D k D Z Z Z ",
"E f.=.,.:.;.,.=...~.d a K n b b x b g d d f ).z.g.z.x.z.g.2.z...X.%XoXoX(.R.Q.b.l.V.J U.@X(.%XoXW.(.R.(./.(.(./.V.R.~.V.N.N.H.;.",
"J ,.-.-.-.-.-.-.} j.1 g I g z z z z a g k u F.g.>.<.2.2.2.<.A.! J U.l.k.h.i.d.s.;.s.C s.Q.F./.x.v.b.v.v.h.v.h.l.h.V.l.,.;.;.<./ ",
"! l.s.s.s.j...s.O.h.p z I g g g b g g b d k ^.>.2.z.2.2.2.,.g. .A U.l.j.s.s.a.g...<.C ..Q.Q.j.l.j.l.v.v.v.Q.l.l.,.,.g.2.g./ ,.~ ",
"w.b.s.s.s.w.j.s.s.v.p z n x g z z b n b k k l.z.2.g.2.2.z.g.g.$.J Q.l.s.a.s.s.| -.<.9 O.z.b.x.j.x.l.b.j.v.l.l.s.j.f.d.d.;./ 2.Q ",
"w./.h.j.w.s.j.v.w.c.3 b K b b b z z h n x q Q.A.z.g.<.G.z.d.f.O.H v.s.O.s.s.d.-.-.,.V O.Q.l.b.j.j.l.v.v.l.l.l.f.s.j.s.-.<./ <.Q ",
"w.v.v.v.a.s.s.l.a.l.> z I K n b n x b K d G ~.F.z.g.F.z.g.j.V.s.J b.l.s.l.j.a.-...,.u ,.).s.j.j.j.x.l.l.h.l.h.s.d.j.,.-.,.=.2.Q ",
"w.b.v.a.s.a.a.s.s.c.> n n x b n b x b x k c ).Q.l.d.j.b.l.l.Q.f.P U.O.s.j.-.a.s.-.-.C ,.!.l.l.j.b.j.b.v.j.l.s.j.v.-.d.j.;.:.<.Q ",
"e.v.h.h.a.s.h.a.s.v.4 z K L K z x P G x z v /.l.g.l.F.s.l.l.~.%.H s.s.s.O.s.O.,.| -.C o.l.l.v.j.j.h.j.j.v.v.s.s.j.;.f.;.,.;.,.T ",
"c.XXR.b.j.b.j.j.a.U.1 ( ] ) H P H P H ) k k ).F.l.F.^.l.v.v.(.o.D R.l.s.l.s.j.s.d.l.u B.(.U.Q.~.Q.b.v.v./.v.v.l.h.g.j.g.,.g.,.! ",
"s ] P H S S A S k E O O 1 = = # * = = 1 # k (.l.~.Q.Q.l.l.U.U.k.O k 8 0 7 7 8 8 : 8   q l u k l H D A J H H G H L A J G J J S w ",
"K P L G P H J P J E y ) #.#. .) ) W  . .( k Q.Q.U.Q.Q.l.U.l.R.B.k &... ...$. ...~ O.F #.%.#.#.&. . . . .X.4 J U L K A G D G A k ",
"X.q.] ) P L ! ) J } y }. X}.^.J.].J.'.}.`.R (.(.U.V.v.v.Q.l./.h.J F.g.A.2.z.z.<.<.H.F (. X].].].].].].}.(.5 t.w.w.w.w.] w.e.0.0.",
"U U P H J J A A A C , '.K.C.C.H.J.C.K.C.Y.c (.~.U.V.U.v.v.v./.k.J A.2.2.<.2.<.=.<.A.F B.].].].N.~.J.S.'.V.6 o.L ) U ] 0.U U U ] ",
"U P P G P A k S C D 8 {.}.(.'.{.'.(.~.{.W.H XX/.Q.(.U.v.Q.U.U.k.E H.g.<.A.<.g.z.g.g.D Y.}.[.}.C.(.~. X~.W.0 o.! X.X.] ] K 9.I U ",
"U U K H K A x A A E 8 $X'.'.{.{.{.T.|.{.W.M +XQ.U.Q./.v.v.v.{.h.J !.Q.x.z.<.z.<.;.^.R U.$X}.(.{.(.}.@X@XW.4 X.U X.0.U K 8.' K I ",
"K U K K x A f A S A q +XT.|.$X+X{.W.{.{.E.M {.~.U.v.).).h.l.(.u.D ~.V.F.z.z.<.<.1.Q.c Y.{.}.$X#X'.(.+X+X(.5 ) ] U U P ] I ] I K ",
"L K J K H x J G D H q `.+X#X{.{.`.+X#X+X`.N {.l.~.~.~.b.U.k.(.u.H U.Q.l.g.g.d.x.j.V.( +X;X#X{.&X@X+X{.{.W.5 X.X.U H K U U K U h ",
"L P H G P A G A A H y $X;X#X#X+X*X:X+X+X`.( (.x.Q.~.Q.x.~.Q.Q.j.P )./.v.d.g.x.l.l.~.[ OX#X{.$X+X{.{.{.#XOX1 ' P P K U K K U L L ",
"G K h K K x G G w D d @X$X#X#X+X`.#X+X+XY.H @XC.x.!.!.Q.~.Q.(.l. .(.Q.b.l.x.z.j.l.(.{ +X:X#X+X$X{.$X+X&XOX3 0.U L U U K L K b K ",
"7.I U I K I U H G G 5 %X,X:X#X:X@X&X=X:XOXM @X(.}.~.Q.Q.Q.V.}.t.X.)././.l.l.l.x.V.(.R Y.<X;X$X$X#X;X&X&X(.1 ] ] ' ' ' I n I n 7.",
"$ $ X X X . X .   O @ v ( M c ( _ _ [ [ [ 3 H E k k A A w q q k ) /.b.Q.x.l.l.l.g.U.R 5 [ c H R Y M M R [ o o % + $ $ $ $ $ X X "
};
