/* XPM */
static char *_747_fe42471f6dbff23d60ffbe4b580abbeef56907d3ef6f260d270f2ae5b5846b3b[] = {
/* columns rows colors chars-per-pixel */
"64 64 94 2 ",
"   c #583716",
".  c #573917",
"X  c #59371B",
"o  c #56391B",
"O  c #5C3C1D",
"+  c #603F1E",
"@  c #5C3D21",
"#  c #613F21",
"$  c #5E411E",
"%  c #62411E",
"&  c #5E4122",
"*  c #5D442A",
"=  c #644424",
"-  c #684725",
";  c #664926",
":  c #6A4A26",
">  c #654629",
",  c #69472A",
"<  c #66492A",
"1  c #6C4C2B",
"2  c #714F2D",
"3  c #6E512D",
"4  c #72522E",
"5  c #71582F",
"6  c #664D31",
"7  c #6D4E31",
"8  c #704F30",
"9  c #6E5232",
"0  c #745432",
"q  c #795634",
"w  c #765935",
"e  c #7B5A35",
"r  c #745639",
"t  c #795639",
"y  c #765A3A",
"u  c #7C5C3A",
"i  c #7E6135",
"p  c #7D623C",
"a  c #7F683F",
"s  c #7C5E42",
"d  c #7E6242",
"f  c #7E6943",
"g  c #805D36",
"h  c #815E3B",
"j  c #806137",
"k  c #83633D",
"l  c #89663E",
"z  c #84693D",
"x  c #8A693F",
"c  c #805F40",
"v  c #846442",
"b  c #896642",
"n  c #866A44",
"m  c #8C6B44",
"M  c #856649",
"N  c #896648",
"B  c #866C49",
"V  c #8D6D4A",
"C  c #916644",
"Z  c #916D46",
"A  c #916E4A",
"S  c #867147",
"D  c #8C7145",
"F  c #8D724B",
"G  c #8D784D",
"H  c #917146",
"J  c #94734C",
"K  c #98764C",
"L  c #95794D",
"P  c #9A794E",
"I  c #906F51",
"U  c #8F7450",
"Y  c #957552",
"T  c #997652",
"R  c #957A53",
"E  c #9B7B54",
"W  c #997758",
"Q  c #967D59",
"!  c #9C7D5A",
"~  c #A07E56",
"^  c #A17F59",
"/  c #968057",
"(  c #9E8155",
")  c #9D825B",
"_  c #9E895F",
"`  c #A18156",
"'  c #A2825B",
"]  c #9F8560",
"[  c #9F8C64",
"{  c #A38561",
"}  c #A38A66",
"|  c #A68D69",
" . c #AC936A",
".. c #B09671",
/* pixels */
"J V J w D J Z l m e > , b b u v 1 8 W q m J Z b b g - 0 V > u W y 1 d 3 F e H J L L R e 2 N t 8 J q 0 V 7 # V Z m m x Z 1 u E Y ",
"b B u 3 E D H x V h + - q m h e 4 1 u 1 1 b A N b q , t v 3 p ! 9 v E v V n F L J L m = 0 y t , A v @ = > O t Z l l k A b = k v ",
"o @ @ @ k J H C Z 2 2 h q 2 1 q v k = 0 0 = 0 v V ; v D = E B 4 9 F { u y 4 n F Z k 0 b A - 8 2 n v 2 V T p : B m g m V 1 @ o $ ",
"v r > < 1 k J K v % m l k h , - J A 4 b A h 1 = , 4 Y Y 0 ! V 0 v 9 n B n ; e V m 4 C h b q V v 1 0 J J H E 4 w J J B % 7 , y U ",
"W E 0 N J w - q : e C j e z x 3 e B 4 J m m m w = n W 1 1 ] W > 7 1 = v 1 A 0 V 4 l m q x k p J > v P L L T n & y y @ y Y e b E ",
"J J e H H R B 1 1 m m j q e k H 1 : 0 P H x m z - y k e 0 0 I > N v 2 J b B v 1 4 J l g k u 4 5 > F J P ( H n * 6 o = > A A g ! ",
"P H e D m D E R 1 k J k j l D B - O m H m H D m 0 % 0 K T c , , 1 8 e J V h N ; J H l x Z k $ 3 $ w J L L J 1 9 N 9 J 0 k E k ( ",
"P J q H S S D ( w % m K H J g + 0 e g H x m H H v , V V k J 8 t t # e K m 1 1 u P H x V J k z / f & p V J y & < @ M W , e Y y ) ",
"Z J - 2 B p n F 9 B w n Q w . u Z J 4 0 H x H L c 1 q A J A < r s 7 7 W I q h 4 K Z x K ( x z x n a & 9 9 = B U * 7 M @ < * @ N ",
"u u 0 1 & a 3 3 1 _ / < 1 = t J m x J - i P H P h 2 8 1 b V 7 s t 8 X 0 b b A : m K H K x x x x z Y d @ o 9 { F > > o * 7 s r 7 ",
"8 2 T J p w 0 E n p | F # 1 v H H x Z m $ k E E q c T = , 1 - 0 t 1 t b A Z m : k T E k x ( x D D D v > u - u > u T 0 > M c r 7 ",
"= = e F E e O t ' , y 0 h u h Z l x C Z e O Y B 2 N v t W Y V A t = m b A A A 1 q ~ z 3 / x L L H H 4 v ! J O h K J M < s c # # ",
"h h 0 2 d 9 y e t 0 h = v A 4 Z k C Z E W , , , - v v h E T K T N 1 A J b 1 > = % 3 & f n S H x D D : E J P m 5 K J y , t , h N ",
"C A E , & @ e W > > Y b 4 Y 0 u J Z P k 2 8 # 1 > , 1 0 T Z C A A 1 b g = v y 0 d $ y S z S L m H e O v K H P e 1 b B = # V T Z ",
"C A V , S p = Y V 1 Z K 2 h t + T ! h + q A c = I 0 u B C N A C c # = # b Y v k E > ; f J F F J V % p : Z J E m - u e 1 2 T J x ",
"Z H F : R ) 9 0 Y u - q u e 0 - 2 0 # h J A ' 8 0 s 8 q h C c g c N 8 = - b m w k p f % k L D k : 4 E e h A 0 = - q Z V 4 K K m ",
"m H m 3 R G / i 0 n k m H Z k A 1 - 0 K x K Z K # , 7 # , 8 # I Y K 2 b l % 1 = i D S F 3 w M 0 X v Y h > 1 < = e ~ P ( z H P P ",
"Z E B p G S R / 0 n R J A J m 4 t 4 h J C H C C 8 8 W 7 t ^ t 8 b 4 h m T v O u L z i S F 3 & 1 1 0 B , 0 v 8 1 T ` ( ' x x ~ H ",
"K Y 5 F / G / G 0 1 B k k J v = b V 4 m l l C m 1 , W 1 c ^ W # - = v J Y v : V S x D D R S : n n 0 2 e e 2 4 B E ` ` ` E 4 b Z ",
"1 % % Q [ [ / * , = 1 m w : v u m l = k J H J l , @ h 2 h q 1 q W J - q k - p H x G G G f p p F J : e E J : 4 T ` ( ` ` H - - 2 ",
"J J 1 & S / ; i H m 0 E R 0 A h 1 p , w J P k = 2 8 + q ^ A # V B R 0 v v : H H / / z S G 5 y v 1 = y k - w v 3 i T E E 4 A q 1 ",
"P E F 1 * ; p G H J e e n : V b ; W v 1 Y e = t B J A = A b q V J 0 @ u W 4 R F z / S / S w : p < 7 w f 3 A ( R e w K : 0 ~ b q ",
"( P E L : u F V Z x Z e 1 - t h 4 u I < 1 - k b m l T e , , , v 0 1 N w ; = i / / x / D p Q w v 9 S F B e T L P ( ( q e k b Z A ",
"` E ! H 1 k D m V l b b 0 V N : J y y 0 > p l m V x m V , N c 1 2 N A N 4 w ; : x / / 3 p F < ; n f S w k L L H L ) Z J E q e ' ",
"( F V 0 9 9 B m z k m m q c W q J A > 9 6 v A Y m j z P q A T C h W I 1 1 J H 0 O 3 1 - 3 w 3 B S i 3 5 P x L L L / p Z ! k 3 ! ",
"p u , > s < p k p k m m 2 q T 2 q 0 * s y t J H k e z L e l J ~ l b t = b H S L n : ; < /  .G k p B 0 n P H L H L S 4 Y J g : p ",
", ) d = 9 > 0 n m m k 8 1 2 h q e b > r v 9 e b k x x H C h A A T g # 1 B R D H F w 5 0 /  ._ 4 J E 3 F ( H L D L p $ 1 1 y M = ",
"e Y 0 & 9 B 4 u p : 1 k b 2 t l b Y 7 6 s 1 2 h p D D F g 2 b Z J T c , : 3 D D m 4 A k 0 _ z u R J < n ( ( ' S J ; w v : 1 > v ",
", : B v y ) N = - k A J K e q h l A h # r 7 1 q p k e 4 q 2 l A J W 0 F H e ; e B 5 ` h H j : 4 u 0 1 0 e k B Y M & N v 0 V v 4 ",
"N 4 R F ; : 1 e J J A A A l 2 h l A c 1 8 1 t - , ; h J ~ k h ~ b 4 4 T L E F e 1 1 0 e T Z A k 1 e u T H B p 0 & > 4 % J ! Y v ",
"V w Y L : V H e K Z b C J h : h b A g A T q A t = m ~ A C K 2 t k % n E P J E ( 2 k e k J x Z H A e V H j z V R 1 y J h k ( V v ",
"1 ; v p p ! E 4 T J b h g h q h A A 4 b A b h A 4 A m b x ~ q u ! e L J L L ~ B 0 W 4 k x l k V k % H V z k j F 0 k V b : w 1 < ",
"4 0 % & B Y 1 = h m e e b A e 0 u 0 - - 1 , 0 B 1 N k k A A 1 1 - 1 B T K L ( 3 1 u 0 u V g k k 0 4 m m z a k V - M W 0 4 b b 0 ",
"A Y y v k 1 0 v 0 q m J J A B - v 1 v V > V 0 > # c A J u = 1 0 d 0 4 4 m T Y - > k N ; k V k 2 v , m V p p n n O > 2 O b E E V ",
"7 1 n Y B , 0 B y k x V K m b q n h J T 0 n B L 0 9 v 1 q Z 2 J V J E 0   - < > v w e p @ < = c V ; m x z p v w 1 u 1 = u ( Y g ",
"N y ; w v 1 2 B 0 1 h b J x A 4 : V A H y & J Y 6 . : V ! ` e Z k x J J - V y = e n n p & 7 < M V ; V z z B n 3 4 J Y v = J R w ",
"! n 1 J ( F < B v v e v H A h 1 4 J V H A O 0 9 v 2 b J m H k m x C K k 4 ! K H 1 0 n * 6 s 0 1 6 @ u F n n B ; k Z Y 2 F 0 y 0 ",
"H 2 , w 0 $ & v 0 = 1 A F 1 0 s 1 H J J ' < = v T k 4 V V H x V m x Z 0 k J K J A < & > 6 r r t 7 0 1 w i a 9 1 J Y b + v < r r ",
"< p B % 9 U J Y - = 1 1 , e b b 0 H E T h   h E V Z 1 V V E b T J l k 2 x H E H J J , < 6 6 k L h m T H z 0 & < B h > 0 < @ 6 d ",
"> e u , 0 Q ] p > 7 Y 1 t b N b 3 v K 2 e A e H Z J 4 u V e X : h l - 0 P H K K J A , < * & m H e V H H H J 6 , 1 = 6 W f 6 6 6 ",
"F 1 4 F y y u @ r r s s c v k N y > - k K J x x H m A > = X 2 8 - # # , ! P H H E e 5 R B 3 k L e H H Z H K , v A k 0 { w | } 3 ",
"y 1 = B A @ = 6 7 s @ < b N h N t = v A x m C 0 J T k , y @ c W I 8 8 b 4 J P H H 5 J z S L q q l x x H H H - m J q % 0 o / ..F ",
"u : p f 8 = b v 7 8 y y b J b c > 0 J l l m H e 4 b , A ' 0 + u V 1 q A A : k V 3 D F n L H D 2 k x x C H u 1 A E 2 - 0 5 S ) < ",
"B 0 n n s 8 m A r O v p u b v 1 1 t Y l x V K x + % V J h A V 1 2 8 q N W V O X 0 F m j j x k V h H x m J 4 0 ^ A 1 l K J 0 ; p ",
"v v V J 1 v b V e 9 u ; e A 4 q V q e T x H B - k A v h m T A b t T b h q t 1 8 > p F z i j B k % Z J Z W : > u O k L L ( ( 1 p ",
"0 2 p e = 2 A J : F ! v 3 0 q A A K g l P k - : J J , - A A b h c c A C = # 2 W p $ p n z H k 4 m 4 m ~ J - < < , F D H E E B = ",
"1 - k m V 0 1 v w Q Y ` 0 > b A K C J h h = e m B A 1 0 = 2 1 : g h c 2 g N q A ! 4 % B R n z Y T T q k d & r d p z z D B V A = ",
"B h Z Z T J 1 > > F E v , y l C Z b b b O 1 b J 1 2 W N 0 Y V v l g g # g A K b m 5 $ 1 3 w L x Z Z K 2 = 6 y 0 k D x m m H 0 , ",
"b g Z m V A 4 v 1 - t - > v k k b h m q h b b Y = = u v ! ' Y p T J ' h g l b J w a p f $ m m k m x m J 1 , , X B J m Z H e 4 u ",
"k h J Z J e 2 Q 9 M d O 1 1 v l g v c 2 A K - = q I = Y  .' R : m H T e b b b A n F Y { p 3 V n l m l A v X < t 4 ~ Z H Z 4 J h ",
": 1 k 2 : > p Y O d s u ) k 5 k b A 2 8 T h - t h E Y t A k h q q u v - u T V Y t > B Q Q & p n n k k m A 2 m ! e 0 E K A 4 T 0 ",
"0 J K J 0 n 1 w 9 ; 9 _ Q Q H 2 q t + h Z 2 t h b J v - 2 t h h k b b 0 + - h v ; y = y [ a ; B p n z m B q K H J = 2 ! 8 g ^ 4 ",
"J P ! P 4 ! 4 , ) H v Q R L F B , 1 t 2 : m b = A b 1 1 2 v h h k b N q q b = h y E Y : 3 9 o y p S H m 5 : k T Y 1 h 1 1 , 0 8 ",
"J P ` H - 7 > Y E 3 m ) R R R k v u c 8 l C B , e k J k - v g h l l b 2 J T A q q k { 0 > w y 3 a L m e D J k 4 1 v ! t V # 1 c ",
"4 q k 7 t > y { k : w ) _ Q R 1 2 t 2 u m Z J - e P V F 1 u h h C c 4 h J x E l - 0 V t 7 W ^ x = 4 i J H H ~ Z = V v X 2 , T C ",
"2 v 0 > 9 d 9 4 k E 4 4 _ } v O t A 2 h Y B 1 1 T H x H 0 2 h C C C q K Z J J T t h u N 0 2 ( e 1 3 x P K H H ` k 1 , 0 A h A ~ ",
"V ` Q > 1 y < 3 T H E e ; d > 1 t u 4 7 r & @ d S z k A c - h b C h g T K K C A 0 7 c v t = 0 e E j j P H Z H E t = h ^ ^ e T A ",
"4 ^ h 1 Q V < V P V J E 3 @ , A 0 h ^ 0 * * < V n z m B b # - 2 8 - h T K K K A 1 0 6 y , A T ` P H e J H J H m h 4 E H Y e h 2 ",
"= 1 - Y ( R e Y B S D H N = M A 4 T V - * * < A m D n B t 4 g 2 q # 2 C A K ~ 4 z _ 3 ; h ~ ' P P P 1 B K k g J ~ Z q T W 0 + % ",
"m y 3 w Q n k J a z z m N # 0 , b T b u 7 6 y 2 k B n k - C K T ^ g # 2 b J m l ( E B : ` ~ ` P P K = : 4 l ! K m ~ - u 0 2 h v ",
"H ! ! B w = 4 Y n z m F , y k 2 b K v N t c A g ; e Y 4 q A Z H E v < y 4 V w ( P L ' ; u { I u q g h h 2 ! H K Z q 1 = 8 A b A ",
"m H H ~ 1 1 h e S z n p 0 b W 0 4 0 1 = 2 V m A m 1 1 , m J J K H ; U ] 0 - Y Q P D L G O 1 = , = m A v > V J k 2 e b 2 4 b b m ",
"K Z Z K g J Y Z e n u 0 A c y - E t h h 4 Z Z l b N 1 , 1 B R ( V 9 ] ] < y ' L L H J E , > V V # V c , 7 - q 5 m Z J h : Z A A ",
"Z Z J b k J J H F i = 0 0 0 1 2 u 0 T b h A C C b c 1 7 - > i p , 9 d 5 u p ( L H L P V < < r 7 0 = < n V = e T Z x Z m : m C K "
};
