/* XPM */
static char *_4895_056dd61c747ca74cbe47d9c50e69dd6c564c1a1cee0ebd2672a1e5c3c6c13fba[] = {
/* columns rows colors chars-per-pixel */
"64 64 96 2 ",
"   c #27251B",
".  c #2E271B",
"X  c #2E291C",
"o  c #312517",
"O  c #322C1E",
"+  c #3B2D1A",
"@  c #3D311F",
"#  c #2E2C21",
"$  c #332E21",
"%  c #363223",
"&  c #3B3525",
"*  c #3E3926",
"=  c #3B3629",
"-  c #3D392A",
";  c #42331F",
":  c #433622",
">  c #453A24",
",  c #4A3D25",
"<  c #433D2B",
"1  c #4A3E2A",
"2  c #533F27",
"3  c #523F28",
"4  c #433F30",
"5  c #4E4226",
"6  c #45412D",
"7  c #4C432C",
"8  c #534326",
"9  c #564827",
"0  c #5B4D27",
"q  c #52442B",
"w  c #5A452B",
"e  c #56492D",
"r  c #5B4C2E",
"t  c #5E502F",
"y  c #464232",
"u  c #4A4533",
"i  c #4D4936",
"p  c #4F4A38",
"a  c #554630",
"s  c #584730",
"d  c #534D35",
"f  c #5C4D32",
"g  c #524D39",
"h  c #555036",
"j  c #5E5133",
"k  c #565139",
"l  c #59543A",
"z  c #5F593B",
"x  c #604F2F",
"c  c #62522E",
"v  c #69582E",
"b  c #614E31",
"n  c #645333",
"m  c #695634",
"M  c #665934",
"N  c #6B5A34",
"B  c #665538",
"V  c #6B5639",
"C  c #645C3D",
"Z  c #6E593A",
"A  c #715E36",
"S  c #725C3C",
"D  c #6E6036",
"F  c #6F603A",
"G  c #746236",
"H  c #796637",
"J  c #7B6A37",
"K  c #76623B",
"L  c #7A653D",
"P  c #7D6A3A",
"I  c #676040",
"U  c #6C6541",
"Y  c #7D6640",
"T  c #7E6841",
"R  c #826D3C",
"E  c #84713C",
"W  c #89753D",
"Q  c #8C793E",
"!  c #836C41",
"~  c #886F43",
"^  c #877141",
"/  c #8B7443",
"(  c #8E7941",
")  c #8B7449",
"_  c #8F784B",
"`  c #937C45",
"'  c #91794C",
"]  c #968142",
"[  c #9A8246",
"{  c #9F8A44",
"}  c #9D8548",
"|  c #A18B47",
" . c #A08749",
".. c #A28A49",
"X. c #AE954B",
"o. c #B29A4B",
/* pixels */
"i i i g k g p g p i p p p p k p g g p i i i d p p g i p p g g g g g g g i u i p g g g p g g k g k l l k k g p p p i p p p i p i ",
"d l k p d z k u 4 u u i k l i k l d u i d d g g p u u u i l g l z k i l C I z d g g u i i p d u d d k g i g g p u y y u g k - - ",
"1 7 6 1 > = d i - - y i C < % 6 a 6 & 7 u q < C g y = 4 g V < % > 1 1 y u q < u C g i < 4 l f 6 1 & u 1 6 1 k h i < 4 i i s l C ",
"b f n B B 7 # 7 k < y y < % a b M n 5 L V B > $ d u u d 4 4 : s s s s s w q 5 < 6 d k 6 < u 6 q q > B s f 5 = k U u 4 < u B L L ",
"S V B n B n & $ > % % % > 1 B B S K s / Y n n > % & < & : < 3 V S Z m m n r r 1 & > 1 7 7 q a Z m , R V M c 1 > 6 5 e f s S S S ",
"S S S V n n G c b B B B B B B V P ^ t ` ! M e r r x b b b B V V S S M m m m n t r x n n M Z B Y N 1 R Z M m c t n m S S K S S S ",
"S S S V m v H P B Z V V Z V S f S ! e Q ~ m c c b x b b b B B V S B m N N m m m N m m m B B V P N > P m N m N N m m V Z S S S Y ",
"S V V S Z N N E P m B Z S V Y Z q B 5 W R m m m n n x r b B B V m m m m m M N m f c v N m N m L n : H m m N N v m N B B V S S S ",
"Z m m m N N N M E E N N Z S Z B f , , E H m N t e r n b b B B M v m n m N m N c r c N N N v m G c > G w c N N v m m v n m N S S ",
"S M v m N N N N N P P N v Z w ' S f > R P m M e e c N c x b B n n m m m m m N A N M H N N N N G 0 , w ` N N N m c m m m m Z S S ",
"S Z N m v j n N m m H E A m 9 2 3 K 5 J E m N N m N A N b n B n x m m c m m N S G H N M D D N D 0 > 8 ; w A t r m m m m N Z S S ",
"S S Z m e r e r v m n N J H m 8 n T 9 H R N N H P H H Z n b B B b c m n n m v m N Z M N D G G v 8 ; 5 v H r r c N c m n m Z S S ",
"Z S S B r r j t A m n n v N H A m R w J W m v A G J G v n j B B n n n n n n n v N v N A G G G M , + v Q N r c N c n m c c n V Z ",
"Z S S S Z A n r H A m n m n m N m R q P E v N N N N m n n j j j f x c m n n n n n m m N G G N 9 + , Q G c r N N b x n m n n c V ",
"V S S Z S R J c G A m v n n c c m R 9 J R c m N N N m n n j j j n f n n n n c x c n n m N N r ; @ 9 W v m N G N b n n n m n n m ",
"Z Z Z S S L P H H A n n m m n b m J e R Q N n n c m c n j f j j n n l n f f n n n x x n m c ; 8 5 9 J D N m m x b n x m x b x m ",
"S V Z S S S S S G M M M n M n c G H 5 H ] P v c b n n n j j f n B n M j f n b b b x b x n w q c 9 5 J N m b x n n n n n n b n n ",
"S V Z Z Z S S m M j j M n n m c G P 5 , P W G M c n n f n j n n n n n f j b n v x x n c m r r A q ; N M c n n b j n n n b n b c ",
"V V Z Z V V B c n j n l M m m m G P q t 5 W P G m c n b j j n n M M n n b n n x n n n n t t S R r > N c n b b n j n n n c b n n ",
"V S S Z V V M n j n n M n M n n G H 7 W 8 v W G m n n n j b n f e r n n n b x x n n N n t N A R c > N n c n n n l M l n n x x n ",
"S S S S S V n B n j n n n m m n G L , ` v 5 P E A x b c b b b w e e M m b b n n m m m N A A m R c > G n n f x b n d e e n x n m ",
"Z Z S V V B n n n l j M n m m v G P 5 ` J e D W G n x b x x b v n n N c n c n m m c m P A m A W v ; H c n c n x j e r x N n m m ",
"Z Z Z S Z B j n n M M n n m m m G P 5 ` ^ N t J J m x b x x x m N N m n n n m m v M P H m Z S ~ c > J n b c n n c m m A A b m m ",
"V Z S Z V n n B M M n M n m m c G L > ` P S M D J m b b x b x n c n b v c n m n N P G m S S Y ) M 5 P v n n n b c N J J A m V S ",
"V V S V B n n n C M M n n c M n K Y > ^ ! V Z V ! m x b x x x b m c n c m m m N R N v Z B Z L ~ m q R m n c c n n m N G N m V S ",
"V V V V M n B M M M B n j t n m T P > ^ ! S S V V m b m m n n x n c b x b b c R V V v V b b S ) m e / B m m m n c n n m m c V S ",
"V V V B M n M M M M M M t t m B ! P > W ! V S S Z V m v v m n n n n b x b r G G V v b b B V S ~ c c [ n e Z Z n m m m c m V S S ",
"V V B B l n n M M M B M r v N M / R , / ! S S S S S S b N N n n n c m m x c J n b V Z V S S S ~ n B ` f f G P B N N N m Z V S S ",
"V V B b B f n n M B m N v m N S / P , W Z Z V V Z S S V b S m n m c b m x G G x b S S ! S Z Z ~ n M ` B S ! ! S S S S S S S S S ",
"V V B B B n l n m B m v m m Z L ) K , R x ) w S Z V S b 3 R S b m m m m b P N n V Z S S x S L A n N ` S ~ ~ S S L L L S S K S V ",
"V C B k j n n M m m m m m m A ! ! T , / , ; b V V V V b 3 b ! V V V m b m E m B V V V V Z ; : ) x m ` S L S Y S S f b L R Z S S ",
"S V B B n B B B m N m m m m K ! ! P , / / R ! S S ! ! V s s ! ! L L R S R [ Q S S ! ! ! ! / ` ` w Z ` L L Y Y S q > S ) Y S S S ",
"V M l n l B B n B N m m B Z ! S Y P ; r G R R R R R A A v r K H A S A S G G H R P P S N n f r q @ A ` / T Z e ; ; V / T L K S S ",
"B m n n M M n n m m m N m S ! S Y L : N N m r e q q 3 q 8 , q w w q q q 1 : , e n f j t M H P K : S ( S q , : , B / R S S S L S ",
"B m n n n M n n n n m m V S Y S ! K , ` / R / ~ R L L L L L L S K K L K n , S } o.[ / / ` L S / q b j , w M R / W W N Z S S S S ",
"V n m n n m n n M n m m A S S S T L , H V ) b S S Z S V V B m B n B V A , r | X.~ Y S Y b Y Y K f > n R Q ` ` Q R L Z N S S S S ",
"Z m c x n m n n j n M N M S S S Y L & R 8 w x S m v n n n m b x m c N c : W o.J A n s S b 2 w R e b ` Q R G A G G N N m V S S S ",
"V V x m n m m n m n n v N S S S Y P ; ) V q V m m n m n v n m m m v D ; c | R N A c B S L b b / q K W m n v m N N N m m B V m m ",
"V V m c n c n n M N m n N N S S ! H + ! Y U M M m m c x n m m m m m c , E R N N A G A A S S S ^ 5 H A m m v m n n m m m m m N m ",
"V V m n b x n v N N D M Z M S S ! R ; / Z B n n n n e w e c c m m M 9 9 Q A N N V G H Z V S S ! q G G N c n b j j n n v N N m N ",
"V V V V b b m V N D G J N D N S Y ( : W Z M n n n j e r r c N n c m 9 N R m A N m M N N N G S ! 5 v N N n t j j j n m N c c M N ",
"V b s b b n m m M N D P H N N Z ! ` , J N n n l j v N N v D A n m c r J A N N m N m m N N G S R 5 v A m n n t f j j l M e e m N ",
"Z b b s m M c M n M M N J M N G Y [ q H N M M n M n M H J H c x m m M J m m M M M M N N N N S ! 5 v Z v n c j j j j M j e r m N ",
"V S B s m G j n z M M M D H D W ! ` r Z D l M n n m N n n j j n n c D G n m M M n M M M N A M P 5 N A m m n n j j j j n c e N A ",
"V S R S G N j n n M l M N P M A } } r n A n n n n m M M n j j n j r N M M n B l n n n n n M m K q H P N N c r M j j j j J D H G ",
"S V P / G M n l n m n M N G P r P X.w M K n M B M l n n l j j j j j N j n n j n j l j j j n x G e P / L N r c D f f n j m H A c ",
"V V Z K H M n n M l n N N N G J 1 L 5 m K j l n M M m l n j j f l M M j n j j j j j j j j j f K w G / G v e H n j n n j b x b B ",
"V V S V M l n M n n n m v N n R A : : m L j j j j n n n j j j j n M n j j j j j j j j j j n n G w A / N , G N j l n M n n n c V ",
"B V V b j j n n l n c m n v m m / 0 o N ! n j f j j n j j j j j j n l n n l j j j n j j r r m K 5 A R : t P j n M j M l c n n B ",
"B m V b j j j j n n n m m m N Z ! W + Z / B j j j j j j j j n n M n n j n j j j j j M j e r n L e e : c Q n j j j j n j n c x B ",
"b V V n f f b e e d v m m m N H S ` 9 M ( C j j j n n n n n n m n n n j j j j j j n N H D G Z K q + n Q G M M l j n M M n b n m ",
"V V n b n f f w e e m N m M Z L L ` G m } F n j j b e n c n t j n l j j j j j j n M N G P G B s + x [ H M M M M l n j j b n b m ",
"V m b b x x b n r r A A m N S m S ` G n { L D n n d e M M t j n j n j j j j n n n M G S M n s B : x / x v M n j f n f n n n m V ",
"V b b x x x x N H H A N m N b / S / v c } P D D M f e e m n j j n j j j j n l m M M N N G ! ` } q b m ~ B n n j j f j n n n m Z ",
"V n x x b b n v A N m m n S w w w ~ N e ..T Z D M N E D c D n f l j M j n l j m m n m H / ` / } x B v w 8 n n f j j b n m b B Z ",
"V b m x b x m n m c n n m S L x B ( N d ..{ M M M n D E J N j j c j j j n n n n M K ! ! ! L Z  .n x / 2 0 n r n j n m x n v m m ",
"V m m x x n n n v n n n B S S ! Y / N q [ ` ( B M j j t r t j j j n j n m m c V ! ! S V b B S } n b ~ S S M r j N n c n n n n V ",
"V Z V B n x n n x x b b S Z S L S ) v q ` Y ! L j j n n n r j j j j c m m n L ^ ! S S f f K S [ n n ~ V S E P J N m n m m n n B ",
"V S Z B b r e e e x f n V V Z S S / c 7 / K B S M e r r r r j j n n n n m K G B B B K K S S B ' n M ~ V S Z H N x v m c r A S b ",
"b V b m B n % X & O O O : q B Z V ! c f ! V B < & % : & & < 5 j j n j t m n f 5 * * < q a a a L f n ! V V n 1 % 1 1 1 7 > r / L ",
"2 2 b b n q   & < = - * $ $ q B C H q e L n 1 # 6 6 u h 6 6 & q q q q t r q q % & 6 6 & % * - e , q n s f q $ * l 4 = = & 1 R / ",
"$ % $ $ .   * y - - y i y & % > 7 e * > s < $ 7 u y = 6 i l * O * > * < 1 1 % = u 4 - = = 6 * > * < 1 1 6 * 6 y p - 4 y < 1 s f ",
"* 4 < & * d g y y u u p i < < y 6 - = 6 6 < & < p u u u u h u 6 < * & * 6 6 < 6 p k u i u i u * & & = = % - y i y y y i p y # % ",
"u y 4 1 p g g p p p p i p u 4 * = - = = = = y p p p i p p k i - = = = = = % < p g p k p g p g y y y < - 4 6 y g p i p p g i y y "
};
