/* XPM */
static char *_5577_b3acb62ab0614f6a96aaf05371b0a0127bbd15d724ff8309b5b2de16f714160f[] = {
/* columns rows colors chars-per-pixel */
"64 64 85 1 ",
"  c #5E3A2F",
". c #563A32",
"X c #5C3C32",
"o c #653B2E",
"O c #6B3D2E",
"+ c #713F2F",
"@ c #7F3E2D",
"# c #643E31",
"$ c #6B3E30",
"% c #703F30",
"& c #5C4036",
"* c #5E4339",
"= c #73402F",
"- c #644135",
"; c #6C4234",
": c #64453A",
"> c #6A4639",
", c #66493E",
"< c #6B4A3D",
"1 c #744232",
"2 c #7C4432",
"3 c #7D4936",
"4 c #734B3C",
"5 c #7B4B3B",
"6 c #674C41",
"7 c #6B4E41",
"8 c #724F41",
"9 c #7D4F40",
"0 c #6D5144",
"q c #735345",
"w c #7C5444",
"e c #745648",
"r c #795748",
"t c #76594B",
"y c #7B5C4D",
"u c #7C5F50",
"i c #7E6051",
"p c #824633",
"a c #894734",
"s c #864934",
"d c #8A4A35",
"f c #844D3C",
"g c #8C4D3A",
"h c #934B37",
"j c #984B37",
"k c #944D39",
"l c #994D39",
"z c #84503E",
"x c #8C513E",
"c c #94513D",
"v c #9A503C",
"b c #825443",
"n c #8B5542",
"m c #845846",
"M c #8C5946",
"N c #825C4B",
"B c #8B5E4B",
"V c #945542",
"C c #985743",
"Z c #965A46",
"A c #915D49",
"S c #9C5E49",
"D c #85604E",
"F c #8D614E",
"G c #92614D",
"H c #846453",
"J c #8B6553",
"K c #866857",
"L c #8A6857",
"P c #876958",
"I c #8C6C5A",
"U c #926653",
"Y c #926956",
"T c #996A55",
"R c #916E5B",
"E c #8F705E",
"W c #93715E",
"Q c #99715C",
"! c #957561",
"~ c #997662",
"^ c #9C7A65",
"/ c #9F7D68",
"( c #A37C66",
") c #A17E69",
"_ c #A3806A",
/* pixels */
"dddd211#:wksdssssddssss;Dtoo2dssssssds1===;&:0y!^Ktxlkldddssddsd",
"ddss21+:7xhddddssasssss=tH-o=22ssdss2=;=-*>7rI~Ir5lhlhdsdddsssss",
"dsss11$,qvddsdssssppass2<Kq===1=12s=Ooo:6eyHW^_H1adddsdsdddsdsss",
"sssd2+:6Ng211112psppssss:iD<::;==21;o:0tmmnMMyKI8112sdddddddsssd",
"ssdp1;,qJ;o#o#-O=2ssppsd1eEDe0,>-;;o<iNxvhhhds4rt4112dsddsssssss",
"sdsp+-0HWy07<,:--==22psd2,E_WIKDytqiWJhhhggdsddf86>212ddssdsssdd",
"sp2$#7yRILHyt00<,-o;;O=22,I(GvCZATQ~^Hgjhsdgdssda4->212dssssssp=",
"1+$#,rLHLILrxx5qe<,,,>:-:0EUpadadhzWWErchhdddddddd;&-112sdssd2O#",
"##-5bDefNIHbjllkzyyyyyt0<DWR51sss=OJHKu9llgddddssds-*:111pds=o>q",
">4kjhb7hkmHrhllkhxwyiHHHiI~!^w==OOriw47tgldsddsddsdp-,6>1=2;->qy",
"klkkjgekdfee5lksdhhgzwmyHHKW^!w5rHHrd2-qrklssdsdsssdp;:6q44<tiyb",
"jkkhjVekds407llddsdghhhhgkzr!_~WIHyzl217umldsssdddssds2#<KWWILxj",
"llkskkqgdsf77gjdddsssssddga4IQKiirnjks21eHghhsdddddsdsdp#q~~WMhl",
"dkgsaaqgdsa47fldsddsdsssss21KEwzclldds217iBhkdsssssssssd2#y!Echs",
"adadga4bhsd364lddddgdsdsds21HIzjdddsdds24rHkldsssssdssssaO<LIxds",
"ddddaa4bhsd277gksdddssssss21yLwjdssdddd218Hnkkdsdsssasssd2#rLNhd",
"dgsdpa1qlssp>74lsssddssssd21yKwjdsddddds2<yDhkksssssssssdao<HDgg",
"ddddps26gdss47,gdsdddddssd21qHmjdsddssds210Dxkldssdsssdsss+-yKbh",
"ddddpa26xass=<75hdddsdssds21qPyhdssdsssdp1<txhkdsdsssdsssd2o<HFg",
"ddddpap6bhss21e<ddsssssdsdp=4iNhdsdddddss2>0whhgsssssssspsso;iIn",
"ddsd3pp6ygda=4iq4dssdsssssp1<HNjdsdddddssp1,0dkhdasssssspps=orEH",
"dddga3a$uBd4<rLH>gdssssdsds=qHNhdssssssssd1<64hkhssssspsppd=o4EW",
"hdgaf@a$tLiyHLIRr5dssssssds1<Hyhdssssssssdp4<,fhhgssdsspppp2o<I~",
"ddahapf%0LWRLyqNH71pddssssp27iyhgssdsdssssd=<6<shhdsssspssp2;<I_",
"gdddd2p3,DEIw4+;tt7>1ssssss10Dyggssssdssdssp1<00fhkdsspps2=1;<E_",
"gddhdppp:tLb+12+>rtq<3sssss4<itfhsdssssssssd24<erfhhspps2===:qEQ",
"ddddgsp2>0rgp1pdp4wtt<2dssp10itzhpsssssdssssp=>0Drghdp1===2o,yIW",
"dddddspp>00gksssadsfyy42ddp;0ytzhsssdssssdsds2240ibhd==1==;,rrmE",
"sssddd2pO,0fhpdsassa5yt3ss240yy5hssssssdssssdp11<qed==1=O-0y0f2D",
"ssssss221>05ksdssdsspqi42ds1<yuzhssssssssssssd2=4,0w;oo#:yHtqkpq",
"dsssss221>09hsdsssds24ii1221<yibdsssssssssssssp1=4<tLHiHKIywgds4",
"ssssssp21:0whddddssa;>KIy11;<yPmhsssppsssspsssd211>qLIKHNwxhdsd=",
"sssdsd2==:twjddddss=&<IWEi444KIDdspppppppppasss2==;yHe4dhhdssds1",
"dsssssp==:ewldsssds-&e_QWEEKEWWJdap2ppapssppsss2=;4iH0O22ssss2=-",
"sssssd=O--twhsdssd3&*K_m3szFW__Izss22pppspppps2===yLIr-==2ds2=,0",
"ssssss;o;>i5hddssd1&DW__RDBmFWWWD;2pp22pssspp2Oo:qHIWH<o=1s2O:0y",
"sssss2=;;<iwhsddds-<W_WW_W_E_IIPP<&;=2ppp==;o&&:,qyIWEy,;+==:0yW",
"sssss22o-yi5dsddd=&JQWJAFFYLYYIIPH4,-oo-o&&&:*><sdhxIWKt<:o-<tIW",
"ssssp=;;qKK4=sss=&<WWUhhkhkccccZUKKyt<<:,,:,,4dlvgklzIIJHyqqyIWE",
"sssd=O>yLII<=sds&*yIYllcdhhhkkllccFLPLYLy0<5gjlldddklNIREWWIIIHy",
"sss2=<yLWWWi;=2=.<PIclchsddddddddhlcDRQP5glllvgdddddglyEW~~Hywbk",
"sd2=-qHIW_WWi1;&<DLAllhddddhddhdsds=2EWDclldsdddhddddhdyW~Lsklll",
"ss2-<yKIWWW_WYDDII5dchsdddddhdhddds=3ILzllkdsddddddkddhziWWcjllg",
"ss=:0DLYWEWQWDDK_W<;2sddddhdddhddds=3KKzlldsdsdddddddddd4H!Mhddd",
"d=&<xklccccWJdhzHWt*=1sddhsssddssd2=<HPzdlsssddsdddddddh5eEFjksd",
"2-<klllllljcLxkssJH<;=2sssdddddssp;<<LRr==ssssddddsddgdds4KFjkss",
"-:xlgdddddclDxhdssDt-==sssadddass-><yIWH5=2dsssssssssdgdssDFhgdd",
",zjkdsdsdddv5zlsss5u<;=1apsdsssp;:<<iIRHq=2sssdssssddddss2eJjhdd",
"zlkdsddddddlgqldsss4y,==2sssssso-0<tFGUKt1=sdsssdssssddsd2:Dcddd",
"gldsssdsddslkqxlsssstt&===2p22O;<<uFhhgUy<=3dsssssssssddd3*txhdd",
"kgddsdsdddddhrnldsss4Kt:;=;O;o:<eiFhhlhFi<11ssssssssssssd2-0zlss",
"pdsddssddsds;<Dldsdp>IWH,>->-<tDILchvhlcKe1=ssssssssssssdp-<zlss",
"ssdsdsdssss= tKghss=<IWRLiyiHLIIJchvgdghyy>=2ssssssspsssss:042ss",
"ssssssssssso*yE5hs2-yFcccGJLIRIJcjlddddlzt011ssssssssssss2&0y:;3",
"ssdsssdsdsp;,KWysp;0HchllllGIIH4slddddshker<=ssssssspspps2-<Kt  ",
"sssssssssd2;0IWK:;<KGlkhghhlcLy:o2dddddsk4tq=2dsssp3pssps2-<KE<&",
"dsssssdssd2-tIIEPiEWcllsddssdUi<;=dddddsh5uH<=ddapp2pppps2-<KJ5,",
"ssssssssss=-tPJxWWWWfddsdddsaGK<;osssdssgzuIi==spap22p2ss2:<tg2<",
"ssssdsssss2:tPGhcWER5=3sddddsfLq>o2spssss4KWEr;=22pppppp2=-,5lp=",
"ssssssssss=:yJchhcYRJ21sdddssaDy> 1spssp10I^QK0>====2====-,:gls2",
"ssssssssdd=*yIchsdgJL3=psssdssfD<;osssp1<yW_~Ei<<<1==;O=-,,3lkss",
"p2pspssp2pO,DJldssszLD=2sssssdsze>oo2=>,qK!!RFUDq<,:---:,,5lldss",
"p2pss21=;;:yIGhgssssFI3=sdssssssy0<;:<<tKIUAlhlvcMwettrtuwlkdsss",
"pp2p==-*<0DJQGhdssssxED=pddsssspmu0qryHDGchlkssdklcxMJKKEJgkssss"
};
