/* XPM */
static char *_9181_98ba4c0c69ba37effac86fdb41ab29f0954c90ec349c0135e21139b42330550c[] = {
/* columns rows colors chars-per-pixel */
"64 64 134 2 ",
"   c #775228",
".  c #7B552A",
"X  c #835827",
"o  c #80572A",
"O  c #845A2D",
"+  c #8A5E2D",
"@  c #845D31",
"#  c #895F30",
"$  c #8F612E",
"%  c #93632E",
"&  c #99662E",
"*  c #9E692F",
"=  c #8D6233",
"-  c #8D663A",
";  c #8C693E",
":  c #936634",
">  c #986731",
",  c #966936",
"<  c #9B6B34",
"1  c #916738",
"2  c #956B3B",
"3  c #9B6D3B",
"4  c #9E713D",
"5  c #A36E34",
"6  c #A06F39",
"7  c #A67137",
"8  c #A87236",
"9  c #A4723C",
"0  c #AB763C",
"q  c #A7783F",
"w  c #AD793E",
"e  c #B27A3E",
"r  c #956F40",
"t  c #967144",
"y  c #9B7343",
"u  c #9E774A",
"i  c #9D7A4D",
"p  c #A47541",
"a  c #A97641",
"s  c #A57945",
"d  c #AC7B43",
"f  c #A37C4C",
"g  c #AB7E4A",
"h  c #B37D43",
"j  c #B17F4B",
"k  c #A17F51",
"l  c #AE8047",
"z  c #AD824C",
"x  c #B58146",
"c  c #BA8246",
"v  c #B4844B",
"b  c #BB864A",
"n  c #B6884F",
"m  c #BC894E",
"M  c #A58254",
"N  c #AC8452",
"B  c #AE8957",
"V  c #AB8759",
"C  c #AD8B5C",
"Z  c #B28651",
"A  c #B68A52",
"S  c #BC8D53",
"D  c #B48D5B",
"F  c #BA8E58",
"G  c #BE9057",
"H  c #B4915F",
"J  c #BD935B",
"K  c #B59362",
"L  c #BC9662",
"P  c #BE9963",
"I  c #BC9B69",
"U  c #C28545",
"Y  c #C08649",
"T  c #C28A4E",
"R  c #C38E52",
"E  c #C98F51",
"W  c #C49156",
"Q  c #CA9255",
"!  c #C3955B",
"~  c #CA965A",
"^  c #C5985F",
"/  c #CB995D",
"(  c #D0975A",
")  c #D39B5D",
"_  c #D99D5F",
"`  c #C29760",
"'  c #C59B63",
"]  c #CB9D63",
"[  c #C49E69",
"{  c #D29E62",
"}  c #CCA067",
"|  c #C6A16B",
" . c #CCA36B",
".. c #CFA86F",
"X. c #D3A165",
"o. c #DAA365",
"O. c #D2A56B",
"+. c #DAA76A",
"@. c #D4A86F",
"#. c #DBA96D",
"$. c #C2A371",
"%. c #CBA671",
"&. c #CEA972",
"*. c #D4AC73",
"=. c #DAAD73",
"-. c #D3AF79",
";. c #D6B077",
":. c #DCB077",
">. c #D6B17A",
",. c #DBB47B",
"<. c #DEB87F",
"1. c #E0AB6E",
"2. c #E0AD71",
"3. c #E1B176",
"4. c #E2B67B",
"5. c #E3B97E",
"6. c #E8B97E",
"7. c #DBB780",
"8. c #DDBA82",
"9. c #E3BC83",
"0. c #E9BD82",
"q. c #E2BF88",
"w. c #E7C087",
"e. c #EBC186",
"r. c #E5C28A",
"t. c #EBC58B",
"y. c #EDC98F",
"u. c #F0C68C",
"i. c #F2C88D",
"p. c #EDCA92",
"a. c #F2CD93",
"s. c #F3D097",
"d. c #F4D39B",
"f. c #FCDDA4",
/* pixels */
"{ 5.3.E E Q ) 0.i.o.E g m _ Y 2 - p ( e.2.{ t.q.+.y.0...#.3.=.9.X.*.4.O.9.*.:.] 3 4   V 5.w.' | 3.9.! ) Y ,.3.b ,.8.=.X.,.t.O.) ",
"{ =.3.W T E E 2.s.+.) v w T d = 2 2 T y.4.) ,.e.) =.6.O.! 5.] 4. ./ @.X.O.,.] X.> 4 : t @.,.W J +.,. .( c O.t.Y O.*.{ ! =.9.Q / ",
"Q O.,.@.h E T +.s.O._ / 0 U 6 2 - - h y.3._ ..9.{ @.O.O.R 5.W ] @.! ] O.S 8.! ' , x $ ; ] =.R ! X.=.*.{ c ] y.T ] &.~ W -.:.R { ",
"Q O.O.5.m U U { a.:.E =.d h 3 y : = a s.2._ ] 9.) O.{ O.A <.` W  .! W O.R *.~ ' $ b 9 2 ] O./ L / *.*.X.h ] r.b / &.W E >.@.Y =.",
"R O.~ =.] h c E u.9.T 4.A h 6 3 a # 3 a.+.) ] :.) { ] O.m 8.' W ' G n } ] / ! ! q $ 3 u } ^ ..J / :.&.) h  .9.b ] *.E ! :.' R 9.",
"m / / ] 4.h c U 0.0.T =.[ d 6 3 a - 1 p.X.~ ] =.) ] / @.b 9.] F } ! l ! ..! ^ m J $ $ B #.! @.J ] ,.@./ d *.*.b @.*.R ~ *.W / p.",
"T ! X.! 0.S h U #.a.W { *.d 6 p 9 # 4 y.{ Q | *.( ] / O.Z 9.' W ' ' v m =.! { v ' e 9 G X.Q ..S ] ,...W v &.^ U ,.*.Y ] %.W ] p.",
"b R =.E =.@.0 h { s.] m 8.v 9 : c : 3 t./ W  .O.Q ] ] @.b 9.' W ^ } Z m O.@./ S n ;.^ v ^ /  .v @.,...b W ' R W y...R ] | E ] :.",
"b E @.@.~ 9.e e T a.=.6 ,.` p : p # : 9.Q R ..} W ' / *.S 9.' W ' } S ^ W <.~ ] w 7.;.l ^ ] ^ v <.;.} b ^ n Y ..8.8.W ! ] Q } ' ",
"W m O.5.E 5.S 0 U 0.e.6 [ &.a 3 x p 2 0.R R &.~ W ' X.@.G w.' G ' ..S | b ,...! / S A S ~ } A m 9. .] R J e { | z | X.W ` ~ ] P ",
"{ x ] 8.! @.@.8 e +.d.d H >.Z 2 x 9 2 e.m ! ..b Q ~ X.} ! r.` G |  .G  .G } <.m } ^ 9 ' b } v ^ <.} { ^ n b @.q 3 l ' ~ ! ~ ' J ",
"4.c R ,.*.E 4.h 0 E d.m f -.' : q 3 3 y.b ~ ] x / J ] ' | r.! J } >.J | | m <. .m ,.*.^ S | v #.-.} ~ } l / n 4 a S l Q A ! ^ P ",
"9.R b *.,.b ,.] 8 e 5.=.: $.*.y = X 9 8.c ] ' x / G X.J *.9.J ! @.>.^ P >.b @.8.G v 8.! ^  .n ,.| } X.P c ~ n l v ^ s m m W J J ",
"e.{ h ] 8.E ! e.c 0 ! t.7 V =.D > 5 s &.c  .G Y } ! } G 9.;.^ J ;.<.} J >.! / >.,.d ' x *.| ! >.&.X.;.l Q J A 4 X m ' x m R J J ",
"s.{ c b 5.] h 9.=.e d -.W 2 K *.y < f  .c  .v / ] ] ] S 9...' ^ ;.-.} J | | ~ ..<.;.w G q.G X.-.>.o.^ v }  .z = a < } ! ! m S P ",
",.*.m e ] ,.T ! e.T w Z ' 9 t  .` X J } m *.b X.J O.J / 8.| ' ' >.-.*.^ J &.m #.%.8.} y.>.X.#.,.O.} G Q ..} < < T $ n @./ G G | ",
"7.r.6.h m @.~ b :.9.Y 0 L S 2 i ,.` 9.m ! >.v O.! *.A +.*. .J  .>.| ..O.S &.G { *.&.9.>.,.5.;.7.Q @.^ ) ..^ 4 9 E e 3 @.^ W ! ..",
"8.$.9.Q l / ] b R d.:.w Z %.v 1 I f.5.0 '  .c O.` @.S 2.J -.S ;.>.z w | G } | m 4.&.r.r.,.9.,.*.Q } ^ ) ..J : 3 c U & | W S ^ ;.",
">.| D 4.x W Q ! h ] f.! 6 [ | g ; -.X.h ;.J Y ]  .O.! =.J ,.Z r.A l x 0 m ~ | J X.e.>.d.O.3.>.;.~ } ~ ! >.z $ p a E < ` ! G } >.",
"h U 3 I / g O.x / h =.a.U a -.L z 2 g ! >.v ~ ` =.] { ] &. .] &.2 ~ b 8 s J } J ' 6.r.y.*.O.*.:./ ^ Q ^ *.q + 0 3 h 5 ^ W n } ,.",
"c 5.c 2 *.e ..E S / h e.6.j g -.A z 4  . .v { ' ,.' +.' 7.F 9.f n / Q w x A @.^ P :.9.r.<.^ ..,./ | ! ! *.< 1 x g 3 < J G l ..,.",
"b p.' & Z ~ Z 5.x ' R R s.{ 0 N &.A ' >.J Y X.| 3.' +.] 6.` *.1 Q 0 / T v ^ ' 5.S *.4.<.7.W | 5.~  .W ^  .5 , 9 0 , * ^ W w *.8.",
"' P I Z : ' x e.Q A / b { y.S 6 H ^ >.r.Z Q *. .=. .{ *.9.=.N s v $ x { 0 G J 9.O.P 9.#.<.! | e.Q &.~ } | * = 2 a 3 & ' ^ 0 #.r.",
"r.x p I > N R >.2.x J Q b 1.e.h 9 A ;.<.m / >.O.@.=.` 4.-.:.r b > I w ~ m 7 ^ ^ t.W 8.3.;.} ' t.! @.X. .J % O , x : * ! ^ s *.r.",
"] Q h N N 1 W ] e.U S W ] W 3.9.s g Z ^ v #.>.@.@.@.W 9.>.$.- h 2 t.| 8 { 7 G n w.#.&.<.O. .` y.W *.X.O.S : . a 1 # < ! ! d :.r.",
"Y 0.' 9 K : J W r.] S J W J O.=.*.= 9 z m <. .*.&.} ] :.8.u g 3 D m ^ l m b w G | t.| <.O.} ^ y.! *.{ *.Z = . j - O < ^ W 9 ,.8.",
"{ *.! p M s g ! >.=.T ' R R ' 5.+...: < l <. .#...^ @.*.9.s v 2 } e e ^ n E q S A t.@.&.X.} ^ d.~  .( @.N + . v = O h ' W 9 9.8.",
"1.f g ] 2 D 2 Q ] 9.Y / ^ W J 8.:.4.>.4 < P ..*.@.^ O.r.*.v R H S 3 x l ^ E w l z ,.4. .! } J d.] P ] X.A + . x : . E ' S 7 9.8.",
"` x 3 *.p V 2 F ! q.~ W *.~ / ^ p.*.e.} > ' @.&.#.' =.p.F h >.' q 4 R x n ] h w v  .5.*.J ^ ' a.} J @.~ Z $   f 3 X Q O.W 7 <.8.",
"s T 6 D ] t y v ! ,.O.m *.-.Q ] >.r.=.4.9 J @.;.:.} <.r.a G 7.^ : m ~ m q @.b 8 l J ,.*.} A ] p.@.S >.S Z 1 . : $ , E } W 9 ,.q.",
"j U 7 r ,.3 k 6 ] ..8.c O.7.] ( } t.;.6.A v ..*.4.' w. .7 *.,.v O ;.9.Q 8 ../ w 0 J @.O.*.n O.a.#.J *.W N 2 O $ = a ! { J 4 ,.r.",
"j c h # ,.g k 3 / ^ y.c ~ ,.>.W / >.8.6. .s | *.#.` w.D m r.| 2 1 w.r.] x ! ;.x 0 n ..] *.Z O.a.=.=.|  .s ; O 9 p 3 G } G s 7.p.",
": < h % :.! u 9 W ! p.! b ;.8.! ( @.,.=.@.p ! ,.O.] q.v ^ r.` 3 J  .: P T x >.S w w | @.} A } p.;.6.' #.4 t . d : 4 / ] m z ,.s.",
"7 = 5 % | =.f f v G 9. .c X.8.X.E @.>.*.:.g S 5.O. .9.h  .8.S 4 *.M & z ! 0 ..^ w q J *.' G Q i.>.3.%.@.s 4 = d : l @.} A l 7.p.",
"p = < % H e.z N h W ,.;.h Q >.:.Y #.&.*.=.S S 5.{ @.*.h *.;.x s >.4 w l ` 0 ^ ..0 w A >.^ G ! t.w.{ &.| z u - 3 $ ' #.' n z 8.r.",
"1 # , % g i.Z B a W @.8.x R ;.9.Q o.*...#.^ S 3.] | ' h :...0 z &.4 2 x ..c n >.x x A ;.^ J J 4.r.} O.| D 4 2 X > } @.' z Z r.q.",
"2 @ : > 4 t.S H g Q / r.W b @.8.X.) ,. .+.' ~ ,.O.] ! j <.' 7 ' ..3 = 0 @.T l &.G e J &.^ J ! 3.w.#.{ } J 2 u . 9 *.O.S q G y.<.",
"= @ = > 9 9.~ L d W ! p.O.c / <.2.E 4.&.O.' ` ,.O.' W b 8.J 7 ..] : 2 9  .! w  .' e ^ *.^ A ^ ,.<.7.} } | 2 M = l 5.] f 4 @.8. .",
"# O = < 9 9.{ L g W ! p.:.b R >.4.T =.*.O.` ' =...` ! m 8.S 7 @.J + 3 2  .} w  . .e ! >.^ J ' <.;.9.@.^ 8.M Z = J 5.m f 9 <.&.^ ",
"= # = 6 7 5.O.` v W ! r.9.b m @.4.E X.>...~ ] =.*.` ` E r.n 9 *.! # q 1 | *.w *...n ! <.^ J ^ 5.+.9.;.! >.N A = I 6.s t x ,.} ! ",
"1 = @ a 0 ,.#.] D R / ,.y.Y c ] :.Q ) *.;.! } @.*.J } ! 9.n 9 ,.] + y 2 ` :.d @.&.m W 7.! ^ J w.O.r.:.E ' A N N ' X.2 2 ^ *.] m ",
"r 3 O d 0 :.1.@.' m { =.0.! e ' ,.Q / ;.*.!  .@.@.J  .W 8.n 0 ,.' # - 3 ' *.h | ..m G r.! ^ J r.] 8.,.W } [ y q. .v - 4 +.| ! v ",
"2 b # h e -.2.#.*.m X.4.:.W e ! :.~ / :.*.^ :.@.@.A *.Q 9.A w ;.` O 1 y ' ] h ]  .W W 7.J ^ G r.] 9.,./ ^ ,.+ 7.9., ; a ;.J ! n ",
"# p # h e 7.3.=.<.W } 6.,.T e R >.Q Q ;.*.^ 5.@.@.n ;.Q 8.S h ,.] o 2 g [ ` h ] %.W G ,.W ' A t.] 4.>.] ^ <., N ' = - A } | G n ",
"= 6 3 h h 7.4.2.4.Q X.w.4.Q h S :.Q W *.*.' w.:. .v ,.~ :.G c ,...O s g [ W h ] &.W W <.S ' n w.X.:.>.@.] *.w f u - 2 / ! ..m n ",
"3 3 y h h ,.6.6.6.) O.w.9.W x m ,.Q W :...' 5.w.@.n  ./ *.' c @.] 1 p s F W j O.>.W G >.m } n w.@.#.>.#.X.O.e L ; t z Q J *.S v ",
"a 1 a h b 8.4.6.6.) O.5.t.! c m <.W W :. .] 4.y.*.S G X.O. .x X.[ 3 2 y L R b ..&.S W  .! } m 4.*.@.*.@.O. .w B . | G Y ' @.m z ",
"0 p d h / q.1.0.4.+.@.,.t.Q c v ,.T W 9.| } :.p.*.S n } O.>.v ~ -.y = k F Y R %. .m !  .X.} G :.=.#.&.@.@. .0 M f @.O.x &.^ n v ",
"d h Y h ] q.+.e.2.3.@.*.y./ h x :.R W 9.] *.:.a.*.G W ' ] :.S T ..M ; C G c /  .} S } | #. .! =.>.=.*.O.@.@.7 f ]  .3.0 ;.W n g ",
"j h E Y L 9.) 0.1.4.O.@.t.Q b x ;.E R 8.' *.=.a.=.! W ..! *.J T ] I K $.G c O.| | R }  .6.O.! #.>.,.@./ *.@.* f ..*.=.0 *.R x x ",
"D 6 E Y I 5.Y q.o.=.] @.p.W m v *.Y T 9.] *.:.a.:.] x &.m O.J W { %.M &.! c #.| @.R ' ..5.O.J :.*.9. .~ @.*.< V ] 5.O.w &.W l Z ",
"' 2 h b | +.b 9._ @./ @.p.W Y b O.m T 8.' :.:.a.*.@.b *.G X.' n / *.K K ] b =. .} W *.} :.O.J 3.*.,...S @.>.% B ] 9./ g  .^ l G ",
"{ y j R  .( x 5._ | (  .p.T E R ' m R 9.] :.:.a.*.*.b @.` W *.v E @.*.%.! Q :.| W ] &.} @.} J 6.*.,.X.m *.,.& B } 6.m v } ^ l J ",
"{ F # s @.h Z 2.) ` E  .a.b E W ~ T R w.| :.=.a.} *.m X. .x ,.' x / 7.>.n _ ,.| S ' ..^ :./ ^ 9.-.:.} v :.:.< L @.6.v b | ^ z ! ",
"( ( j D O.0 ! +.) ! e &.y.c R W ! R R t.} :.=.p.' >.S ! >.l X.<.W x *.8.0 O.<.' ! J >.! <.! ^ w.*.:.' x 8.*.< I @.5.x v } ! v J ",
"{ h [ 9.E j [ ( ] S w 8.0.h W ` W R m t. .:.=.a.} *.~ Y :.H m <. .v G ,.0 #.<.J T ' <.! 9.^ ' 9.&.7.! m w.*.& | <.:.x v | G n ! ",
"#.W m  .Y A } Q  .n d p.=.e ~ ' W W b t.@.:.=.a.} *.] Y O.| 7 ;.&.] d ' 8 4.*.S v 9. .@.:.' } 6...,.m W r.*.2 &.5.;.e b | G n J ",
"o.O.x Q h *.W ] ` d v d./ c } | Y W b t.>.:.:.i.@.;.| W / ;.q m ,.] g J h ,. .b n y.m 9.@.}  .5. .,.b ~ r.*.< &.5.=.l b } J S J ",
"3.o.! 5 } ;.c  .Z h ^ d.W c  .| Y W m e.,.:.:.t. .,.| / E #.J 9 *.*.l A c ,. .v J r.n t. .O.^ 6.&.>.b ] 8.;.> &.w.@.e b } ! n J ",
",.b ;...r.! S  .x m ,.a.Y ! >.! Q ! Y r.,.:.,.t.@.5...^ ) / *.p G r.S n x ,.| x | <.m s.| ..^ w.....T O.8.*.% -.t.@.l b | J n ! ",
"4.W S 9.:.U ` J c ^ d.6.c | >.G / Q R e.,.:.3.e...5.;.' X.( #.J l 9.} l b ,.} n ..&.! i.| @.' e.*...R @.8.;.< &.y.@.x c  .! l ^ ",
"X.3.w } #.e ' d m <.f.#.b <.@.W ) ) T t.,.:.<.t.*.5.8. ./ _ ] ..z ;.,.v v <.| S *. .^ r. .:.^ e.>.:.W *.9.=.a  .y.X.x v ..' w | ",
"*.#. .e e G J x | d.d.Q ^ r. .! { o.T y.<.:.,.t.r.,.r.>.} _ ) *.| } r.n v <.' ! &.| ^ 9.,.7.' 0.9.w.Y :.r.:.x | t.X.b w ..@.q } ",
"y.~ e.m w *.} v r.f.t.W <.9.@.~ o.o.W d.9.:.,.e.p.,.r.8.*.O.)  .<.^ d.m x 5.^ ^ &.' / <.,.8.| 9.t.p.Q ,.r.:.m &.w.O.W q } >.q } "
};
