/* XPM */
static char *_2797_2639a760bd7d318b6e255b8bdefa8398957ea9d201cedde2aeb28d018bfe36c3[] = {
/* columns rows colors chars-per-pixel */
"64 64 44 1 ",
"  c #1F1913",
". c #231C16",
"X c #261E18",
"o c #281F19",
"O c #27201A",
"+ c #2C221C",
"@ c #31251F",
"# c #2F2620",
"$ c #2F2822",
"% c #332721",
"& c #352923",
"* c #3B2C26",
"= c #372D28",
"- c #3E2E28",
"; c #3D312B",
": c #3D3530",
"> c #402F29",
", c #45332D",
"< c #49352E",
"1 c #443730",
"2 c #4C3730",
"3 c #463932",
"4 c #4E3932",
"5 c #4E3F38",
"6 c #533C34",
"7 c #583F37",
"8 c #543F38",
"9 c #4F4039",
"0 c #534037",
"q c #594037",
"w c #55423A",
"e c #5A433B",
"r c #5B483F",
"t c #61473F",
"y c #62483F",
"u c #574740",
"i c #5E4941",
"p c #624C44",
"a c #665047",
"s c #655249",
"d c #6A544B",
"f c #6E584F",
"g c #6F5B52",
"h c #705A51",
/* pixels */
"fhhhhhssgw3fsaaaaaadddd6u8wippt2;sptiipiie3irwewwiuu49iuuww5w6w4",
"eeettew6pi9p7weqq7q77676487e7766=w667777673024263266,,6444623364",
"677762<>6w,7777766666<<2<6666662+-66666662,<46222<,<*%4422624444",
"6666<<<<13&777666666<<,<<3466262%--36622<,,<13<<23>,%=4236264624",
"666<<<,<,,%66626<662<,,,>>>26442%,>-*,,,<>,,,<,,,<>,*&46<<264426",
"662<<<<,,-%626626626<,,<>>>*>242%,<<,-,>>>,,,,,,<,<*+%446>66442<",
"66<22<<,<@@62662<26<<<<,*>22>*>2#,,,<>>-><,,,,,<,,,<%%42<<<<<66,",
"6<<22<,,<-@2662<<<<<<>**>2>222>%+,,,<>%>,,,,<,,,,,,2&#,2<>,6226<",
"<,,,<,,,,>+3<<,,,,,,->>>*2,,,,<*#1,,,<&,,,,,,,,,,,,,&O,,,>,,,<<,",
",<,,,,<,<>+,<<,,,,,@><<<>><,<,<>+,1,,,->,,,<,,<<2,,2*@<,<<,,,<,,",
">>,>,>,>>*o*>>>>,,@*,>>>**>>>>,-o*>>,,**>>>>>>,,,,22*@2,<<<<2,<,",
"o@@@@@@@%+X@@@@@++++o++o@X@@o@++X++%+@++@@++@&@&@***@@@*>>>@>>>@",
"eeee7qwq00ww6652*3951+#5841w8665ww656,,e6,+*3-30w0090w091O*07q43",
"ytyettteeew777ee6ew06*1e766i7eeeew7we4weww-5y04yqqweeewy>;atqqq6",
"qqqq7qq7q76767886<664&&77467667686767,6666&<qq4qq66q66q2*r6666qq",
"7qqqe7777767766wq<<2<%#66686766666663,666<@<qqqqq6q66qq>4q76q70q",
"6666q66666666<666662>o@667666<<6444<>4442*O16q606666666*<6644666",
"6<2<,,<,<<46<4644662, >66664<<<<,<,,><,<@>@>442<,<222<<>-><,,<24",
",,224244<<<<,<6642422O>0666<<,<,,,,,,,,@>-O>44,,,,,,<,,,,>-<,,<2",
"44644446466,@4444622,O*66<<,,,,,,,,,>>>,*-O*2,>,,,,,,,,,,,-><,,<",
"<<2244444<<<*>62444<,+=2<<,,,,,,<,,>>,,,>,O=,,*><,,,,,,,,,,>><,,",
",,<,,,<,,,<<,@,2<<,<2+@1,,,<<,<<,<,>,,,>,,O&12**>,,,,<,,,<,,>,<,",
">>>>>>>>>*>@>@*>>>@>>+O*>>>-;>-->>>>>>@@>>O+*>*@>*>*>>>>>>>>>*>>",
"@+@++@+@+O+O@+O+@+@@@O @@@+@@+@++o+@@@@@@@  @@@O@+@@@o+@@++@.o@@",
">&&&@@&&@.O@**=&@&+@&&=&@===@*@@.+&*@&==@*>&@&@*=@O+ O&@+&**;=&@",
"ttrry40r9*3prqerqe3rewr39rrr7te4*0yrrryryyye0ryerq9w@9ar,eteree9",
"667667,60>19466466<6666,64666462@1q64qq06667020qq246@=066,776676",
"777q6664,@;46666666,666<6666666<@>0<6660667604442660@&467,266666",
"76764677<@;02604266224<44466666,@*224666666646021464@=4664,66626",
"6qq646666@=42<222222,2,24446644,+&<<246<64444626,>24@&3246>>4462",
"6622,444<@@<2222<2,,>,*,<244222>O166<<4<2224244422<2@&,444,,,6<2",
"62<,,<<<,@@122,22,,22>*2<<<<<<2>O;<<<,,<<<2<<222<222@@,<46,*-22<",
"44<,,,,<;++>,<<<<>2<,<,,<<<<<2<>O-,,2>>1,<,,,<<<<<6<%#,,3>>>1>>2",
"24<,<,,,-O+1,,,<>,,,,,,-,,<<<<,*O-,,,,,,,,,,,,,<,,<<+%,1>*,>,<->",
"<,,,,,,,>o+:,,,,>,,,,,,,>,,,,,,&O=1,2,,,,,,,,,,,>><,++*--,<<>>,*",
",,<,,,,,>++-,,,<>><,<,,<*>2,,,,*O@>2,,,,,,,,,<,,<>,<oX&><<><>>21",
">*******%. +&***&o%*-****o&*&*&%.O@*@>****=**&****%&X+=******%**",
"+X@@++%%%+&=%%++&@o@o..oo@@@@&&%@@&@@@@@+O.O@@++@@++####+++#%%oX",
"81,<3uw88uuuwu22iww5:.#558e8wwe7ewe00940w*@944-98wwerewwwww6w68-",
"8u848e88888888e688651#39we88e787e000q0e009,ree66e8ww88wwww8ww884",
"86764676667677676686<@-266667666606666626<>q67766666676677766766",
"86674776766766666626,+=224666446466666266>&666666666766666677666",
"666646466666666666<,,X=<2644422<<622<<<<2,@76666662626264666666<",
"444426444624662646622@@>4464<*,<<<<<<<<<<-+4442462626<62<>><,>>-",
"22422422246644444442<++=,22<>>,,,<,,,,,,<*+3664426222223<<,,&><<",
",><><2<<<<<<<<2<<22<>+$1-&>,,<,,,,<,<,,,,*O1444622<<,<<,,,<--,,,",
",,>>,<<<,,<,<<<,<<,<>X$1,>,<,,,,,<,,,,,,,*O,<24<<<<,><<,,,<,,<,,",
"<<,>>,,,,,,,,,,,,<,,,X$;,,,,,,,,,,,,,,,<<*O,<<<<,,,,<<>,,,<>>,,,",
"*%*>*>22>2,,,,,,,,,<>o#=,,,,,,,,,,,,,,,,,*.;<,,,,,,,,2,<,>>>>>2>",
"***>=%*****=*>*>--***..#=&%>---=**---*---%.%-***>**>*=%%**=*****",
"+XooXXXXXXoX..XooooooXOOXXooooXoo.oo..OXXXO+oXXXXX..X.. .ooXXXoX",
"9586555-433%.-5425454551135<311>o+11:==13353111<1,<<13%#3333314=",
"we77e777786>#u88777777t7ie888742&1w5861888887768866868>;u6668844",
"666668744741#3666676766266767662&*4226<,42222222636224>&44424244",
"887776724662o4666766766286776666&&446262>6666666226246>&44444444",
"66676744666>#4466466662686626222&&442626,>222222262646>%64426222",
"66466626264<o3662466422642466222%&2444446,,22<<2222<<2*%44442,<,",
"24422424244>o3626424222222224622%@24444422<<<2,,,,<<<<*@42422,,,",
"<<<<<<,<<22>X>2222<,22<<<<<224<2@+242444<<<,>>,,<,,,,<*+1222<,,<",
",,,,,,>>>2,>.%,<,,,<<,,,,,<<<<<<@+1<222<,,,,<,,>>,<,,<&+1,,,,,,,",
",,,,,,*>,,,>.:1,,,,,,,,,,<,,,,,,@+,,,,<,,,,,,,,,,,*,,,*+,,,,,,,<",
",<,,,>><,,,>.-2>,,,,,,,,,,,,,,,<@o>,,,,,,,,,,,,,,,-o>,&X>,,>,,,,",
"%*%*%%*****@.o*&*%***%*&&**&&*&&+.@*&**&&*&&&&*&*&*+.%+.%&**%***",
"+ooooooXXooX.Xooooooooooooooo+oo. ooooooXo+o++ooooo+..X.oooooooX"
};
