/* XPM */
static char *_540305190196[] = {
/* columns rows colors chars-per-pixel */
"64 64 131 2 ",
"   c #777163",
".  c #7B736A",
"X  c #787773",
"o  c #827C6D",
"O  c #847E72",
"+  c #837E78",
"@  c #87826F",
"#  c #858174",
"$  c #8A8376",
"%  c #8E8876",
"&  c #86847A",
"*  c #8C857A",
"=  c #8E8A7C",
"-  c #908977",
";  c #90877D",
":  c #928C7D",
">  c #95917E",
",  c #868281",
"<  c #8D8582",
"1  c #8E8A82",
"2  c #8F8E8A",
"3  c #948D82",
"4  c #998F85",
"5  c #938E8A",
"6  c #988E8A",
"7  c #959184",
"8  c #9A9385",
"9  c #9D9886",
"0  c #969489",
"q  c #9C958A",
"w  c #979888",
"e  c #9D998B",
"r  c #9D9692",
"t  c #9E9B92",
"y  c #9F9A99",
"u  c #979394",
"i  c #A19A87",
"p  c #A1978C",
"a  c #A29B8D",
"s  c #A89F8E",
"d  c #A19791",
"f  c #A49D92",
"g  c #A89F94",
"h  c #A39E98",
"j  c #A99F9C",
"k  c #A4A18D",
"l  c #A9A28F",
"z  c #A5A294",
"x  c #AAA395",
"c  c #ACA996",
"v  c #A6A39A",
"b  c #ACA59A",
"n  c #A7A899",
"m  c #ADAA9C",
"M  c #B1AC96",
"N  c #B0A79B",
"B  c #B2AB9D",
"V  c #B4B29E",
"C  c #B8B19F",
"Z  c #A5A4A0",
"A  c #ACA5A2",
"S  c #AEAAA1",
"D  c #ADA9A8",
"F  c #B0A7A2",
"G  c #B3ADA2",
"H  c #B8AEA4",
"J  c #B5AEA9",
"K  c #B8AFAA",
"L  c #B5B1A3",
"P  c #BAB3A5",
"I  c #BCB9A6",
"U  c #B6B2A9",
"Y  c #BBB5AA",
"T  c #BDBAAC",
"R  c #BBB6B1",
"E  c #BEBBB1",
"W  c #C2BAA7",
"Q  c #C0B6AC",
"!  c #C2BBAD",
"~  c #C8BFAE",
"^  c #C3BDB2",
"/  c #C8BFB4",
"(  c #C2BFB9",
")  c #C4C1AE",
"_  c #C8C1AE",
"`  c #C5C2B4",
"'  c #CAC3B5",
"]  c #CCC9B6",
"[  c #C5C2BA",
"{  c #CBC5BA",
"}  c #CECABC",
"|  c #D0C9B7",
" . c #D0C7BE",
".. c #D2CCBD",
"X. c #D5D1BE",
"o. c #D9D2BF",
"O. c #CDC6C1",
"+. c #CECAC2",
"@. c #D3CDC2",
"#. c #D9CFC6",
"$. c #D1CDC9",
"%. c #D5D1C4",
"&. c #D9D3C4",
"*. c #DDD9C6",
"=. c #D6D1C9",
"-. c #DCD5CA",
";. c #D7D8C8",
":. c #DDD9CC",
">. c #DFD7D3",
",. c #DEDAD2",
"<. c #E0D7C6",
"1. c #E1DCC7",
"2. c #E2DCCD",
"3. c #E3DDD2",
"4. c #E3E1CE",
"5. c #E5E1D4",
"6. c #EAE3D5",
"7. c #EFE8D6",
"8. c #E7E2DA",
"9. c #EAE5DB",
"0. c #EDE9DA",
"q. c #F0E9D6",
"w. c #F0E6DA",
"e. c #F1EBDC",
"r. c #EEE9E1",
"t. c #F4EEE1",
"y. c #F6F1E2",
"u. c #FBF3E5",
"i. c #F9F5EA",
"p. c #FEFCEB",
"a. c #FFFEF2",
/* pixels */
"L :.E T %.c / / C &.! G ..N ^ ^ f Y n ^ &.L ] { G { R j / d b F N H s ~ <.G H J H &.L P &.B T Q ^ 3.^ P ] I *.] V *._ c ! c T { ",
"v %.Y S %.L o.o.N <.T B ..n T ^ 5 G G Y | x Y ! G #.K d H < q g 4 N p W <.F b h x | M x &.x J ^ K 3.! ) *.m ] } x &.! N ` i G E ",
"w u S w 0 c 9 M k : i : q f * r 6 * p 8 q f : e q + d < ; p o % - O g p q f + q q ; i - q p = j f q L z y 9 = n i 8 c > 9 a $ t ",
"5.E t.5.z X.! P ..l P ! b #.( Y =.m ~ P Y 7./ L { z Q Q b / g N ! C 3.3.N 2.^  .6.b ] ] B 2.^ Y >.U ,.,.q S f ` 2.B | _ m *.` ` ",
"{ m } } q P B k V 8 s G r G b h R f H G B @.B p P 9 p p $ a - 4 c p ^ { 3 ! J b ] 8 d V i ^ n , J h U E # w e U ] i c c > P G m ",
"e V f q q q f 8 > i : % 6 3 F b 3 f q g g 8 C x s C i 4 g : p p 3 d q b H 7 x h q m e q z 0 A n 0 A t y n = d n 7 n i w c 1 t t ",
"I 0.%.x ^ b [ | i ] I q H A #.>.j { H / -.Q 6.6.~ u.] B &.N { #.h / b ..7.G { ..Y 9.` @.0.P =.,.R :.{ ^ ;.n f U n ;.) ) ,.n T +.",
"w P n $ 3 3 p x - k i o 7 3 q A * q p 4 x q f H s B x 4 c p p g $ 8 p q P q 3 p q P n z U e t D 2 y v 5 U 0 O 1 7 n n w n 7 7 m ",
"e e [ ^ q H x g C M ] ! i P G ` @.q f p N ..H b _ x X.' l C c W ] i G P 7 Q B z B t } R t E t n A q Y H q T j n } n } ) t [ n w ",
"b e { @.q ^ H H ' V %.&.C *.! ' 0.s b H B :.G H ..B #.&.C X.P ! <.p Y / f %.P c T z T [ Z } S t U t J ' f ^ G O.,.V } ] w E n w ",
"= e 3 v 6 * 3 O 8 x e c s 8 s 4 p z o 3 p * < * 4 f 3 h x q b 8 8 z 3 s a % > @ 7 w & r w 1 t & = r * h q 1 y 5 t z 7 t w & 2 & ",
"m :.Y ^ @.d g g x ..P Y ..f P ! b &.^ / 6.q 8 F d ^ N n ' N { { b &.L B *.e k e E 9.E ` ,.L ;.;.m :.E R 3.A D ( S $.T } ;.t U U ",
"# { G f Q 4 4 g 4 x f b T p c B 8 P L Y ..a f n O e q 6 G 7 n G e ~ a > H : 7 w w E m m ' z E I 0 T n z ^ < d R 0 P m S ( w 2 D ",
"x 6 g 8 p j q q f 8 g i p B 8 7 e 7 p e : i : m n 3 d e d L d 8 3 % 8 p l P 9 > z 0 V l = 7 > c n 7 m f 3 N d q t 7 Y n t U w w ",
"#.Y { { N  .Q N / B @...' 6.T V ] m P ' q V c ` %.U @.=.@.p.{ 3 B h ! { ..p.' V } V *.1.l V k *.y.V %.%.b @.Y K T ^ p.0.E i.+.U ",
"b q d N * 4 p * ; 3 i m 9 k k = z = : x : 8 7 e S e e m v ^ b . + = q x i ! z % k > k M > > w n I e q q ; f p 3 8 q T E t U D 2 ",
"N <.K H Q g ^ Q g ' N / X.i B V 7 L n / { x } } 7 m f U } v @.$.A E U S I e ' ] M 4.C X.*.k c c c ;.V I &.x Y Y B #.F j K d / O.",
"H 2.Q b -.Q #./ b ..P / 2.c V ! 9 I m ` #.L 3.3.8 G v Y =.J =.3.v +.` ` :.B 2.2.V 7.) o.4.n V m n 4._ *.7.M | { B -.H Y / x  .@.",
"- > g 3 4 p < d ; $ c 8 8 e O : % $ f 3 e p 3 t 4 - f 3 q v q b 0 2 m w e m 8 x i > l > k i $ q z 7 c > 8 s > x d 4 f d 4 p + d ",
"! B .. .4 K g N / N { %.e ! z 8 c z &.%.z Y e ^ 3.Y 3.2.H 2.^ ' 5.T 5.:.I p.' P 6.V 6.4.' 0.' ..t.P 1._ x <.~ / -.N >.#.g #.Q j ",
"C s B Q O s g 4 G a P ! % m q   q s B Q ; f q J L i / ' x ) m L +.n ` { L :.P c _ f ] W x ' B P { V ] ! > C M N / g Q / 3 N g p ",
"p M : p p O p 4 q f 3 q f ; p : % p : ; q 3 3 4 8 B q > e : N z : w = e k 8 Y b s B i i B 8 J 8 * f > > l i P x s H p p 4 + p g ",
"B <.W s ..N N H P { ^ T @.b H N G -.K f / F K / P &.~ g ! M :.4.v { V T %.Y 3.9.} e.' | 3.! 3.$.v [ Y ! ' W 7.2.H 3./ / @.N / <.",
"- s l O : ; ; : ; h j 5 n 7 - $ 3 n d o + * q d 8 p s # a 8 8 m 1 w t w v 0 3 T i N B : G p d K = q z e s 8 x B > x g 4 H p 6 j ",
"' c W W x | N N Q 8 a x c | N Q  .p ' / p b q q j f <./ P } m } 5.z U E t ( S L ' 8 c B x G 3 T { t T ^ x Y p n ~ 4 v f x 2.Q B ",
"<.c Q | c | H x ~ 4 c P N <.Q ! 3.b  .O.; f q 3 g b o.! T ;.L 2.p.S ) ( Z +.U w ) 9 c B i ' b ..,.S -.3.7 ' Y z / a i h x 3.Q Q ",
"8 i ; a 9 - l - > > o s i > M i g x 4 f = O q * $ l 4 p t 7 z w n n = t u t S & : > $ 7 4 ; v p f f p c = O z = 3 8 O * : 3 s 8 ",
"p ~ H ~ 2.C ..o.W 6.' ..2.W w.3.H @.Y Q #.T :.:.' u.{ ~ 4.n ] ] Y 5.` } 8.L ,.5.e } Y z ' B -.@.H 3.Y G 1.N ' } H { S x ! i B ! ",
"O x g N ' l C _ s W B M ' s ~ / a P p x P q ` ` L *.L n ' e m I w T n E +.n ] } 1 Y e = G 8 J T q ^ A 3 m 8 B P w Y z 7 B 7 8 M ",
"N 4 x a : g > > i > N s p c q s b 4 N i 3 z w z c 8 k k = k 7 n n 7 w w t m 7 z t 1 h 0 3 b q r h ; b f 9 c = e z 7 n k : 7 : c ",
"u.Q #.' s } L : i C &.2.B 3.@.( 3.Y %.%.Y +.P T ;.I X.;.n } Y } 4.L +.} E 5.E ( =.Z >.$.Y 5...} &.Y 3.9.I 6.V U ;.V :.0.k ! C 2.",
"W p a m 8 i e = x p g g 3 P b < b t z m 7 z t = z 9 k c > w z w L w n S 7 n n w U < y n 7 m m p c 4 c J 7 z t w n w 7 T % > i B ",
"i ~ N L ! s B M > C n { 3.e y S U ;.L t z k ] I V ;.V V } i V V n E S U +.z :.=.q G h H ' b X.' 8 M e L +.z ` T n ] S U ] w M I ",
"8 _ B B { c ~ ..k Y b U y.A } E U 8.T w V n ] ) V *.) ` } e m T c +.m T ;.S 0.8.q Y F ! &.B ] ' 9 I n Y ;.n ` $.w ` U ) ;.n N ] ",
"4 : g q 8 p $ i % % r 0 v m 0 r Z w n = = w > w k > k w w k = e w = n w t z e S 6 * N q s z 8 k w % k 7 w y 7 m e : w 7 e a % p ",
"2.H 3.:.z } H B Y n } O.z ,.^ [ 5.S ) ;.V 4.) I ;.M } T n ;.! %.y.V ;.;.n ;.U ( :.H 2.2.P 7._ ] 4.L %.+.n $.T ` 5.m ( ` S -./ } ",
"C s / { 6 H g 3 B 8 B L 0 [ G A +.n n T n X.I e I n ) I q S v / ..w z L t ` z Z ^ p Q O.c Y C M | i N P e U A e T q G ` z ! x g ",
"8 N d p g 4 g p 8 f 8 e n < f b = 1 & w k w n e > > = w q % 8 3 8 m w m U 2 t t q g q q d : l q > c 8 f n 3 m z 5 z = 3 e q N s ",
"Q 3.{ N ~ W 3.3.N | ^ [ 8.h $.3.2 U m ] 4.U X.X.V _ M T =.x v G P 2.` :.p.U +.,.K &.P H ' m { | P *.` ..6.T 8.3.[ &.! G ~ Q w.e.",
"; H x 4 p p N P : i q * r < y A + & 1 w S k t n > n z w G ; O % 3 c n S ) t t S 3 q 6 3 6 3 p j 8 x f q S d m Y : i x % q p C Q ",
"..s P ~ B <.W _ X.l / H h { A H +.z [ T v E m ) o.i P B q N e L ~ x | Y m %.Y m { 0 A G p Q b j Q q ^ / j Z t N G k } Y x ` B Y ",
"6.N ~ Q C <.~ W 2.C ' { Y $.T Y ;.S { :.z R Y ] 2.B ! P x P a ^ &.N X.' G 9.E m $.f H Q g { F d @.d ^ @.h G Y G ' z /  .7 / H / ",
"s g i s p > B i i a < j b r d = f n 3 f 1 = e 7 p i - q > - s q i i > i 8 = z 3 a p * p p : g 3 6 f ; x f 5 v 8 k c 3 x 3 $ g g ",
"N #.H P <.W 6.<.q ^ G O.3.j b b b :.Y d Y e L z a ! B c ! N 7.2.H &.L B ' N 2.3.B *.! Y ..g Q { B &.Q ' -.L 6.3.~ e.| K &.Q 6.u.",
"q ! m p ~ g Q / = n t A { 1 & 1 7 U f 7 v $ a 8 : Y x : k i | } > B x 3 f 8 ' ..q L x g W : 8 B p ! H N N i ' ] M &.U q Y c ' ..",
"S q n f 4 g p g z e j h t v = 7 q = a a e N q i N > f p 8 s 8 p a 8 A f q p q j x ; p > i b 3 p b 8 g s 8 H x s c : 7 = 4 x i L ",
"y.Y %.;.b &./ / ,.` $.-.E :.U m %.L } %.] p.} B &.N _ ' P &.P U =.S R $.Y O.P ^ &.x G ' s &.! ~ &.B &.2.^ 3.Y ' 1.c m Y m +.` 2.",
"m a a m 5 f f 3 z w z m e y 0 # v w e n k I c $ 9 > : q 8 x e 3 v 3 , D 5 t q 3 c 3 $ q @ - i 8 i p x H 0 * 6 d B : & k : e z k ",
"n ] m L $.m } T q Y c ` +.m :.} L ] n n ) c X.) V X.m n T d L ! f U j Y { q b f B ..N ..1.i ~ | x / P / %.z ' Y c -.P a L w m T ",
"n %.) E :.G &.#.f T L } :.L 5.5.P ;.Y S X.M ] ] k ] P n [ f ..#.q ^ B ^ 8.p h P B &.! <.w.M X.o.H <.' ..%.m +.$.L *.Y f Y z L $.",
"= 7 z 7 1 1 q p 5 % n q i z 7 m 8 ; z 7 w w > n > # w = q v 0 f d 6 G f p p # i f 4 N s N x p x l 4 c q 0 v 5 z s 8 B : 2 t = w ",
"I n S L 3 b b b } ! w.1.! e.' I &.z T } V $.) ` *.n E } G 3.( ' 3.Y :.<.q / Y { 2.g  .' W 6.~ | 7.x Q  .0 } P ` 2.N &.2.V 4.E n ",
"m = L E & z 4 3 H x ....L &.L i Y 8 c P e ] S z ] w U Y e ` F j O.x H ^ - 4 8 N ! p c x l ! c c ..i x B d Y e z [ z P ' 7 I n w ",
"7 z t z f e N h p N 8 i C 8 B x 3 e 3 8 e 0 n t z t 0 z m 8 N x 6 f 3 4 8 : g s p B a N H 8 g p i x q f v q U f q m e z n w n S ",
"m ;.I ] 5.[ 7.8.H :.! H t.! 3.2.b ' c m ..L *.:.V ;.[ ` e.P -.3.N | Q g #.H <.=.H e.#.#.y.H o...N ..Q P O.G ,.O.Y 9.} ' 0.) ;.4.",
"2 k w 1 m f G b = p g 3 H 6 3 j = 3 8 : q e S T 0 n v t P e a b 3 g p ; n 8 d G 3 x N 8 L p f n $ q p 3 v r q 5 t S n w m e t n ",
"^ b @./ 3 c q P %.x / ' N #.H b ..e G G B %.L 7 E A R T C  .N N H a B ! p T z m E w E T G O.m U @.q L f d / H G O.t K P q ^ J G ",
"{ F @.{ e Y N &.7.N ] <.Y 3.^ G :.x B Y ! y.` S -.G @.:.Q ..B N  .N @.{ z T S n O.n ^ ` U :.Y P -.v ~ L h [ Y Q =.z H { G %.' L ",
"5 h 6 d q * x s l x > M g q b 6 a x ; e a 8 z 7 y m q x 4 4 F ; 4 h : g e & w & t Z & t y 7 n 7 0 f 8 f s % a : f v ; p 8 : v 3 ",
"y >./ ! =.B #.o.M 4.| _ 3.g { &.P 6.' / -.B Y E S :.Q H | B -.#.b =.^ G $.0 n S D [ D Y @.L X.' z %.` ' -.z P P / w.{ G ' a H Q ",
"r O.Q N ~ p Q ! i W l l { - N / g ! x b Q q 0 t = Y L 8 B p Q ^ r E b 1 z # & 7 X Z S n [ z P T q T P p M - x c g #.H ; g : q / ",
"< < N g 3 > 4 s s 4 Q M > N i x M 8 g z * = = z Y 0 b e d F d j J 0 b f 0 t 7 t y 0 m m z m d n G q L f x I i l N p N a 3 B 6 3 ",
"h b #.=.x W Q ! ..~ 7.1.W q.~ _ 6.G ' &.d Y b 3.a.Y @.@.( 9.K O.r.P $.:.m =.` } :.P :.8.! :.J R 0.^ 3.3.-.p.X.| 2.P -.3.g 2.! 3 ",
"X * p v o - 6 - g p B C i M x i N 3 3 h 1 ; 5 G Y q p f < < 6 r J r f m % e p 8 V 7 z m 7 z y u R q v b s ~ M > M > g N 3 f 6 o "
};
