/* XPM */
static char *_081_5898018faddcbb02712f15607fca096a3a20e7c5b8b863d330ba9882c640b529[] = {
/* columns rows colors chars-per-pixel */
"64 64 236 2 ",
"   c #0C2A3E",
".  c #0B253A",
"X  c #1C2C35",
"o  c #11273A",
"O  c #152B3C",
"+  c #1B2D3B",
"@  c #142936",
"#  c #15323F",
"$  c #1D313D",
"%  c #1D3037",
"&  c #212E36",
"*  c #222E3A",
"=  c #223037",
"-  c #23333C",
";  c #29333D",
":  c #0C2A44",
">  c #142D43",
",  c #1A2E41",
"<  c #142F49",
"1  c #0D3146",
"2  c #153245",
"3  c #1D3243",
"4  c #1C3846",
"5  c #16324B",
"6  c #1C344A",
"7  c #1D394D",
"8  c #143B4D",
"9  c #1B3652",
"0  c #163B54",
"q  c #1C3B54",
"w  c #1D3C5A",
"e  c #153854",
"r  c #223543",
"t  c #2A3643",
"y  c #243945",
"u  c #2A3B44",
"i  c #21364A",
"p  c #233A4C",
"a  c #2B3C4B",
"s  c #313D4B",
"d  c #303D46",
"f  c #233C53",
"g  c #2B3E52",
"h  c #243E59",
"j  c #1C3F62",
"k  c #1E425D",
"l  c #1C4257",
"z  c #25414E",
"x  c #2C424C",
"c  c #31434C",
"v  c #34484F",
"b  c #254254",
"n  c #2B4354",
"m  c #25425C",
"M  c #2B445B",
"N  c #254A5D",
"B  c #2C4A5C",
"V  c #2B4856",
"C  c #314453",
"Z  c #344A55",
"A  c #32465C",
"S  c #344B5B",
"D  c #394D5A",
"F  c #394D57",
"G  c #36515E",
"H  c #3A515D",
"J  c #3C5057",
"K  c #1D4564",
"L  c #244462",
"P  c #294662",
"I  c #254C63",
"U  c #2C4A64",
"Y  c #26486B",
"T  c #2C4C6B",
"R  c #264769",
"E  c #334C64",
"W  c #3A4C62",
"Q  c #314E6A",
"!  c #2B5365",
"~  c #26556B",
"^  c #2C536C",
"/  c #2B596E",
"(  c #255067",
")  c #345365",
"_  c #3B5563",
"`  c #3E5966",
"'  c #34526D",
"]  c #3A546C",
"[  c #345A6D",
"{  c #3C5B6B",
"}  c #2B4E72",
"|  c #264F74",
" . c #2E5275",
".. c #2C5B73",
"X. c #2D547B",
"o. c #2C5D7A",
"O. c #245577",
"+. c #335473",
"@. c #3A5773",
"#. c #345C75",
"$. c #3C5A74",
"%. c #31567B",
"&. c #34597C",
"*. c #3B5C7B",
"=. c #2E617C",
"-. c #3E6274",
";. c #33627C",
":. c #3D637C",
">. c #38647A",
",. c #415763",
"<. c #425C6C",
"1. c #425A67",
"2. c #425D74",
"3. c #415D7A",
"4. c #485C74",
"5. c #47606E",
"6. c #426374",
"7. c #43647B",
"8. c #4A647A",
"9. c #456A7D",
"0. c #4B6A7D",
"q. c #4B6573",
"w. c #526E7D",
"e. c #2E5A83",
"r. c #2D5B87",
"t. c #345C84",
"y. c #3A5E83",
"u. c #335E89",
"i. c #385F88",
"p. c #2E6383",
"a. c #326483",
"s. c #3D6184",
"d. c #36628C",
"f. c #3A648C",
"g. c #356B8A",
"h. c #3C6A8D",
"j. c #396984",
"k. c #3C718D",
"l. c #356492",
"z. c #396693",
"x. c #3B6995",
"c. c #366A99",
"v. c #3C6C9B",
"b. c #376896",
"n. c #367195",
"m. c #3D719E",
"M. c #3A779A",
"N. c #2F6392",
"B. c #3C6EA1",
"V. c #366DA3",
"C. c #3D72A4",
"Z. c #3D75AA",
"A. c #3E79AC",
"S. c #3F7DA2",
"D. c #3D7CB5",
"F. c #426484",
"G. c #446B83",
"H. c #4C6C82",
"J. c #42658B",
"K. c #446A8D",
"L. c #4B6D8C",
"P. c #4B6684",
"I. c #526C87",
"U. c #44728B",
"Y. c #4C7289",
"T. c #537183",
"R. c #5A7585",
"E. c #54738A",
"W. c #597A8B",
"Q. c #58768A",
"!. c #436C93",
"~. c #4B6E93",
"^. c #416E9C",
"/. c #486F98",
"(. c #457295",
"). c #4B7393",
"_. c #4C7A93",
"`. c #45729B",
"'. c #4A749B",
"]. c #4C7B9C",
"[. c #457B99",
"{. c #537494",
"}. c #547B94",
"|. c #5B7B93",
" X c #52779B",
".X c #537A9D",
"XX c #5B7B99",
"oX c #647E8E",
"OX c #607A93",
"+X c #4274A3",
"@X c #4976A2",
"#X c #427AA5",
"$X c #4C7AA3",
"%X c #4176AA",
"&X c #447AAB",
"*X c #4A7CAB",
"=X c #527CA3",
"-X c #547EA7",
";X c #437DB3",
":X c #4A7EB0",
">X c #3D81BE",
",X c #51809E",
"<X c #5B8298",
"1X c #668299",
"2X c #4E81AD",
"3X c #4F83A3",
"4X c #5384A5",
"5X c #5A84A3",
"6X c #5281AC",
"7X c #5A84AC",
"8X c #558BAB",
"9X c #5A8CAD",
"0X c #5A89A3",
"qX c #4580B6",
"wX c #4D82B3",
"eX c #4A85BB",
"rX c #4383BA",
"tX c #5284B2",
"yX c #5A8AB4",
"uX c #5389BA",
"iX c #598BB6",
"pX c #5D95BC",
"aX c #5B90B1",
"sX c #648AAC",
"dX c #6788A6",
"fX c #718DA8",
"gX c #6A91AB",
"hX c #7493AE",
"jX c #658EB3",
"kX c #6697BA",
"lX c #789CBE",
"zX c #4B8AC1",
"xX c #528EC3",
"cX c #5A92C3",
"vX c #699AC5",
"bX c #74A4C4",
/* pixels */
"- - = = = = = % 3 N +.t.u.u.b.b.z.z.u.u.u.u.z.o.L @.X.%.t.X.x.B.z.f.t.y.} e.l.%X%Xd.e.^ m 7 4 + $ X = & + + $ 3 r p p i p 7 i 3 ",
"r X X = $ - - - z P.&.d.l.v.B.+XB.^.f.l.c.v.!.y.K &.X.%.%.X.l.x.l.f.i.t.} Y z.%XC.d.f.%.T U M p r = X X + $ r i g b b M E U g h ",
"M f $ c v x x 4 B dX7X6X6XwX*XwX:X:X*X*X&X$X@Xf.K G.y.X.%.X.t.^.l.f.u.e.X.R z.%X%Xb.l.u.t.&.#.P x $ X & r i g m T T U +.*.y.s.%.",
"*.T r _ H Z F p f N s.s.h.(.'.$X@X'././././. X&.K '.z.t.e.X.u.z.l.l.i.i.&.} z.:X%XV.x.x.v.x.t. .U $ X - b M T U ^  .%.%.t.i.!.^.",
"K.*.6 ` ` _ G a $ O o O O # 6 2 < < 6 > , 6 6 : | =Xx.z.f.e.u.B.c.x.x.z.i.} B.%X;XZ.V.B.B.+Xz.J.] + * r Q +.#.&.+.%.t.t.t.l.v.+X",
"!.f.7 ` { _ _ C x - - $ + X X X X X & * , o X . %.*XB.v.r.u.c.^.^.c.z.d.J.} ^.uXA.A.A.;XZ.V.+X/.7.+ - r 7.d.d.d.t.t.y.t.d.l.C.%X",
"^.K.7 { { { { ) S Z S v u u - * X X * o r , , o %.tX+Xb.r.x.B.B.%XV.l.u.!.X.K kXcXeXeXrX;X;X;X@XF.+ - i K.z.f.z.u.d.d.u.f.b.v.%X",
"!.K.q <.6.{ { _ _ H _ G F v u - & * * O A g i : t.tX%XB.x.B.C.%X+XB.z.l.!.X.e T !.*X-XtX:XtX:XjX<.O - r K.v.c.v.z.z.z.d.v.+XB.%X",
").L.f <.6.$.2.[ _ _ { $._ _ F - X * t , U T h < i.:X;X%X%X+X%X%XB.B.B.l./.y., , o o < 9 f P +.{.C @ - p (.+XC.m.m.v.m.C.m.C.C.A.",
"Q 7 4 { 9.-.7.-.-.-.7.6.q._ ` y X t a > +.y.P 9 !.iX&X:X%X*X&X@X^.+X@X*X-X3., , t * * * X o o t r $ - p (.#X#XA.#XZ.%X+X+X$XyX#X",
"+ + $ ) H.j.G.7.j.G.L.F.9._ ,.x * a s >  .i.T h y.=X-X7X-X'.$X=X X X XF.h , , t t t r * * * t , = = - p }.yX*X2XwXeXwX2X7X5X$.q ",
"3 r - n 0.}._.(._.).[.G.G._ H x , s W 6 +.J.R L h 9 j L j 9 j L w f 9 > , + t g g t t t t * * t u t u V $.&.f.`.$X[.].!.^ e O + ",
"M g r p V 6.<X0X0X,X].].<XH.q.y i A W 9 y.!.T L 5 < 6 > > > 6 < < < 6 6 i , s t s g s s g i s g C C n S 4 3 4 7 f f 7 > o > 6 i ",
"@.B f y y x B 9.Y.:.:.9.{ B x 4 i W ,.9 y./.X. .L f f i 7 9 f f f f 9 h g , g i g g A g W g A A E ] M { B z y 4 2 6 4 i g M M E ",
"&.+.U i $ $ - y - $ $ $ $ r r - P ,.3.9 i.=Xu.i. .Y Y } R } } } }  .R A M , A g W A W E E Q ,.Q $.$.U 0.-._ ) p m '  .+.y.*.+.+.",
"&.&.@.M y X % ; r - - - r r u y Q @.P.w u.-Xf.f.t.%.t.%.u.!.y.e.r.z.e.} Q i ,.P Q E Q Q @.Q @.+.7.:.^ T.G.T.0.2 @./.y.y.d.u.&.} ",
"&.&.&.+.g + + r A M A A E A A i @.F.I.j u.yXv.z.d.t.d.X.z.z.d.d.+Xv.l.f.3.f @.] @.@.+.$.&.*.y.*.f.F.' 1XOX|.w.2 s.$X(.b.d.d.t.o.",
"&.t.t.y.Q , + a 4.3.*.3.3.@.] f &.P.{.w e.iXC.v.l.z.x.x.v.l.r.d.+Xc.C.`.P.q 3.*.F.*.y.s.F.J.J.s.!.{.0 S A A _ 2 h.$Xm.m.x.d.d.t.",
"u.u.u.f.@.> , M I.s.y.y.F.P.I.f @.~.{.L r.iX+XC.b.v.C.v.v.v.l.v.#Xv.&X$X~.9 F.J.!.J.K.!.!.!.!.f.'.L.O X X & , < `.#XC.+XC.m.C.z.",
"v.m.b./.3.> r A ~.F.J.~.~.L.OX9 &.~.{.L e.pX&X&XC.m.C.C.C.v.%X&X&XB.C.yXL.9 K./.!.!.!.x.!./.`.(.].P.+ * & * * i '.+X+XZ.%X#X%XC.",
"C.A.C.$X:.2 3 E {.K.!.~./.{.dX< @.dXfXY e.cX:XeXZ.C.v.%XB.V.%X%XqX*XN.kXL.9 )..X!.`.`.`.^.`.'.'..X7.* ; ; t r i $XA.A.&X&XA.Z.S.",
"D.qXZ.*X3.> , ] {.L.~.~..XfX1X> M E.3.9 o.vXwX;XZ.B.V.C.B.C.eX;XwXtX| bX|.q Q.~.7X'.=X$X=X=X'.'.{.7.* t t t t i 7XS.&X>XqXD.A.qX",
"uXxXuXkX3.> r 1.OXdXdXfXhXdX8.+ r r r . *.kXtX*X;X;XC.;X;X;XeXuX*XjXj hX{ g I.P.{.XX5XsXsXjXdXXXQ.W * s s s t f <XiXuXrX>XD.rXzX",
"2X2X`.y.P 6 p p i M E E Q ] W , 3 + + + M U y.`.-X-X-XtXcXiXyX$Xy.F.w P r r r p q g m U E Q 2.P a i i C g g s i w t.$XpXpXcXuX&X",
"1 1 < < 6 f p 6 , r + r + 3 6 f p 6 3 + , , > 9 h Q 3.P.s.' m f 6 O $ $ 3 $ $ + + $ + + $ + * X * i g W A W W g f 5 6 L Q *.P 9 ",
"q f f f P E E E h i i i 3 g E U Q U h p i , , + o o o o o o O + O $ O $ r y p p a y - - = * ; t t g A ,.W Q 3.Q W E g , o > 6 6 ",
"@. .Q } &.i.&.y.+.+.T *.f ' y.s.J.} P R P p f i , > > + + O # z 4 4 3 y z z V B B V n z u - r C A W W 3.@.3.@.2.$.@.2.h 2 b *.+.",
"%.&.%.i.u.u.i.u.t.t.t.~.q +.z.z.X.} } } } R T h 9 i i , 4 3 2 _ B 4 4 z b V U ( ^ ! B V A y n ] Q Q @.3.y.y.*.3.y.3.2.f 6 $.*.} ",
"t.u.x.i.u.u.f.u.u.u.i.!.q @.J.d.e.u.z.t.t.%.i. .h h h h P i 8 -.[ N N N ! ( ! / >.( ( ! E i E 4.3.y.y.F.i.F.y.*.s.J.F.P 6 3.&.} ",
"v.v.v.l.u.x.x.z.l.d.z.(.e #.z.l.b.+X+Xx.z.d.z.u.X. . .T  .P q 0.#.^ ! ! ( ! ..#.;.~ #.[ ] 9 @.P.J.y.J.J.F.i.P.i.F.P.P.U w *.f.t.",
"%X%Xv.l.c.^.v.c.b.l.x.!.< *.!.b.x.@X+Xv.v.b.l.l.z.u.e.} &.T 0 G.#.~ / ~ ~ ..#.......&.>.7.7 4.~.~.z.J.J././.J.~.J.~.I.P h F.x.v.",
"%X;X&X%XB.B.B.+XB.+X@Xf.1 y.`.z.v.@X^.v.v.v.x.b.z.f.t.} *.+.8 9./ ~ / ......;.=.=...a.j.9.e F.~././.J./././.!.J.~.K.{.m R ~.+XC.",
"Z.%XV.%XB.c.v.C.C.v.$X*.  9.,X3X7Xx.u.@X^.v.v.v.v.z.f.t.d.#.1 -./ / ..=...=.;.=.=...=.>.9.2 P.{.!.d.y.f.!.~./.~.~.XXI.h Y ~.^.^.",
"^.v.^.v.z.^.+X`.@X'.}.l # ! / >. XX.&.@X'.@X@X`.'.`.`.f.J.#.1 9.=.=.=.=.=.a.p.p.=.=...;.7.2 0.hXdXdXXXL.~.{.~.{.XXI.W g P ~.@X^.",
"J././.~.~.~.P.+.E B i O @ $ 4 z M g ' E } @.F.!.~.~. X XgX@.. 9.>.=.p.a.g.p.p.p.=.=.=.U.6.$ a C W <.4.8.I.OXOXOXI.4.W s i W Q y.",
"5 9 h 9 9 6 2 2 + @ X % # # @ @ o , 3 6 p 0 q q 9 9 6 9 M M   T.,Xk.M.k.g.g.h.(.k.j.U.<X{ - - * X X * + , s W g W 4.t , + > > , ",
", , , , + + , $ + $ p z N l l z 4 # X + @ + , > > > , > o O 2 [ ! ! >.,X_.G.U.9.[ B B z z ; ; ; ; t ; * & X X X + + + * , i , > ",
"i i , 6 3 i 3 p b b b N / / / / B z r $ = + A M p p i i f f f q l l l k K l 1 # # # # y - x c x t t s t * & * t g g i i A Q A f ",
"%.%.%. .^ { N ) N N N ( =./ ~ ~ ( N b y - 3 2.P h h h A U P R m l l q 0 7 5 # $ z z x Z F Z v F Z v v s * & & g W P g 9 Q y.} } ",
"^.^.^./.G.:.N [ ! / >.=.=.=.=.~ ( ! ! z i 6 3. .L P R Q T P Y %.^ ( U P ^ B z z 1.H H ` H H ` { W ,.,.D t & X s 4.R h i t.i.e.y.",
";X:X+X+X`.*.l [ / =.>.=.=./ ~ ~ ~ / >.N z 7 F.y.} } } &.} } } +.+. .T T  .&.Q A 0.5.{ { { { 5.5.H <.q.,.a * * g @.R j Y y.e.e.i.",
"D.;XB.v.@Xs.l -./ / j.=...=.~ ~ =.=.>./ N l h.x.e.t.y.d.t.t.%.%.+.X. . .%.J.2.) Y.{ 5.6.6.{ { { { 6.8.q.g * O g y.e.} u.e.u.u.^.",
"D.;X;Xv.=Xs.l >./ =.=.=.=.p.p.O.g.g.k./ ! 0 '.`.z.l.f.l.i.z.t.%.X.t.t.d.f. X7.E Y.6.{ { 6.{ -.-.-.9.8.T.D X * P J.u.u.z.c.^.+X%X",
";X;XzXu.=Xa.l U.=.=.=.g.g.3X3X3Xn.n.[./ N q #.=X$X`.x.f.l.i.u.i.t.s.K.!.`.=X7.M Q.$.) 6.6.6.-.-.9.0.0.OXA + , E  Xl.N.^.V.D.;X;X",
">XeXiX| ).s.0 _.g.g.=.p.p.p.>Xn.n.n.,X=.! 4 N H.{.). X=X X.X=X.X`.~.T &.jXfX8.V W.-.6.9.8.9.6.q.0.0.0.R.D , , P :X;XV.;XD.zX>X>X",
"cXuXjXw P.-.1 <Xk.,Xk.g.>X3X3X3X3X3X3Xk b 3 i 3 6 f h m R +.*.&.@.Q Q 3.3.U f p T.H.0.9.7.9.0.0.q.0.T.oXA r , P :X;X;X:XeXxXzXxX",
"i.&.E , A y @ B / / ~ 3X3X3X8X8X>X,X9.4 y $ # - $ 3 $ $ + + + 3 > 3 r i , + + y T.Y.T.H.0.0.0.T.w.1XoXoXs r , Q bXcX-X-X@X/././.",
", , + + $ % X # 8 l l ( l l ( N l # # # 3 $ r $ X + + + + $ r , 3 , , 3 i i p r w.1XW.R.R.R.R.w.q.1.C a i t , E J.R } } L f 9 < ",
", + + & % = = % % $ % # # % # # # O @ # 4 p p i r - + - - i f N P U Q +.Q E M p ,.q.5.5.,.D v r = % - - r a , g P g g 9 i , , r ",
"t u - = - ; = % % % X % X X X X O O y n B U P M g p r r p M #.*.y.f.f.i.y.&.Q p - - $ $ X X X + % % $ y i g i i i , , , * + * r ",
"; c u ; ; u x ; - % % = X % $ z g b U P T +.T U M h g M g +.!.z.z.f.f.u.t.y. .P f 4 3 $ + y r 3 r r i n g h g 9 f i , * u u s a ",
"x c x x x x Z v x y z y $ $ B ( ' +.^ T +.X.+.} T m h N N +.!.z.z.z.f.u.u.i.t.%.+.T Q E 3 D A h b f f b h g P E +.E r t D J J v ",
"F H G Z G G 5.[ { _ [ { G p :.&.%. . .X.&.X. .} T Y R ' P +./.z.z.l.f.u.z.i.u.%.y.y.J.*.2 2.$.L P M g P h P P  .y.P.V x <.H H F ",
"_ { ` H ` _ -.-.9.-.G.}.W.I h.d.o. .%.y.&.t.&. .} &.%.y.T ^ /.z.z.f.z.f.f.i.u.t.d.f.(.s.< 2.y.R T P P P P P R %.d.J.N n q.) G G ",
"{ 6.` _ { -.U._.U.k.(.,X5X..h.h.&.&.y.u.i.i.y.t.+.t.t.K.Q ^ `.z.f.l.z.c.z.z.d.u.^.'.=XF.: { J.X.Y T P T h R } t.d.J.A z 0.-.[ { ",
"9.6.[ { 9.>.U.,X,X].$X0XdX>.K.!.d.d.t.i.u.u.u.t.e.d.t.'.P ' (.x.^.^.x.!.v.!.!.!.=X$X7XF.> @.J.X.} } } +.Y } y.t.d.K.! 4 Y.:.[ 6.",
"6.[ -.>._.k.,X,X3X3X8X8XgXj.J.$Xf.f.t.t.u.t.t.d.d.d.d.=Xm ' `.v.@X*X@X^.v. XJ.J.7X=XsXL.  ] !.u.%. .t.t.t.%.t.d.d.!.) 4 }.).G.G.",
"9.-.U.Y.[.,X,X8X8X8X].<XhX[ ' ~. X(.x.x.f.d.f.z.d.d.z.5Xm ' !.v.+X=X:X=X^.-Xy.Q lXjXdX4.O ' !.z.X.%.u.u.t.d.z.b.d.).' 6 }.U._.G.",
"Y.U.,X,X3X3X3XaXaXaX;.W.w.p b f U J.~./.!.(.'.`..X.X5XY.2 3.sX=X-XsX-X X XXXA g E.E p i > ' !.m.l.b.v.b.l.c.m.b.d.).] 6 |./ _._.",
",X,X3XaX3X8XaX8X8XgX[ G x y r i 9 f f P ^ #.T -.K.#.U q 3 M ' &.y.R f h h h , a 4 O * + , ' !.N.v.c.C.C.B.Z.C.c.r.=X) 4 W.N G.0X",
"8X8X8XpXpXpXaX9X1XQ.V u ; - $ 3 i 6 3 , 6 4 > g p r 3 + $ $ O O > , , 3 t , * o + + + + + U b.c.Z.Z.Z.Z.qXeX+X`.$X{.b $ W.! ! gX",
"kXkXbXbXbX0X0X<X[ z - $ $ z p b h A i 3 + , + O + + + 3 r 3 3 3 3 i , , , X * , 6 r r - + ) ].7X:XwX:X:X&X$X7X-Xs.! f $ <.V b fX",
"0.Y.<X<Xq.G G y $ - r y h U Q T @.&.R P m M M h 7 M M N L L L ' +.T P h h h L P U U M f $ M *.s.~.!.F.&. .T Q U f n y $ x $ y <.",
"z 4 z z y z - = = $ a E ' @.&.*.&.*.&.+.+.@.3.+.M ' ' T +.+.&.s.f.y.+.Q E P y.J.F.#.' M r 3 6 9 q L m h b p > O 3 - - - - % y - "
};
