/* XPM */
static char *_841_5daaa68c63f529d82c122ce7acf50fe8f41b21aff8575d16ecc336fcfeea62cd[] = {
/* columns rows colors chars-per-pixel */
"64 64 98 2 ",
"   c #342717",
".  c #362916",
"X  c #342A1D",
"o  c #3B2E1E",
"O  c #3C311D",
"+  c #372E25",
"@  c #3A2F22",
"#  c #3D3224",
"$  c #3D342A",
"%  c #3F3828",
"&  c #42331D",
"*  c #433525",
"=  c #483725",
"-  c #453825",
";  c #4A3B25",
":  c #42362A",
">  c #453A2B",
",  c #4A3D2C",
"<  c #503E2A",
"1  c #453C31",
"2  c #4A3E32",
"3  c #4D412E",
"4  c #53432D",
"5  c #59462D",
"6  c #464135",
"7  c #4D4233",
"8  c #4E443A",
"9  c #4F493E",
"0  c #534534",
"q  c #584634",
"w  c #554835",
"e  c #5B4B35",
"r  c #534639",
"t  c #554A3B",
"y  c #5B4D3C",
"u  c #5E5137",
"i  c #5E513D",
"p  c #634D35",
"a  c #604F3C",
"s  c #615136",
"d  c #685034",
"f  c #62533D",
"g  c #685338",
"h  c #66583D",
"j  c #69593D",
"k  c #554C41",
"l  c #5B4F41",
"z  c #565044",
"x  c #5D5243",
"c  c #5D5549",
"v  c #5F594A",
"b  c #635443",
"n  c #685743",
"m  c #665945",
"M  c #6B5B45",
"N  c #625649",
"B  c #655A4A",
"V  c #6A5D4B",
"C  c #705E42",
"Z  c #705F4B",
"A  c #665D51",
"S  c #695F51",
"D  c #6E6045",
"F  c #6D614D",
"G  c #726145",
"H  c #786547",
"J  c #73634C",
"K  c #79674C",
"L  c #76684E",
"P  c #7A694E",
"I  c #6D6354",
"U  c #6E655C",
"Y  c #746552",
"T  c #796752",
"R  c #756954",
"E  c #7B6B54",
"W  c #756B5A",
"Q  c #7B6D5A",
"!  c #7F7156",
"~  c #7D705C",
"^  c #7C7362",
"/  c #80684C",
"(  c #836E51",
")  c #827155",
"_  c #83745C",
"`  c #89765A",
"'  c #86785E",
"]  c #89795E",
"[  c #847662",
"{  c #867A64",
"}  c #8B7B62",
"|  c #877F6C",
" . c #8D7E69",
".. c #8D826D",
"X. c #918267",
"o. c #92846B",
"O. c #8D8473",
"+. c #A6967C",
/* pixels */
"; ; * 3 V E E _ ) M & ; 3 5 5 5 q e e 0 0 > 3 7 u s h u f 5 H G M n f f b 3 8 u e s j h u ; ; , 3 > & & * & & = ; < , = = * = = ",
"L Y < V V n s J ..5 5 ..} } _ E E T Y I ^ t y { { { _ ) } Z L Q ) E R [ ..7 B o. .} ] ) Q J E _ Q 6 < V Z J J T E K ) E E Y Z T ",
"C V , b i x x y m 3 3 Q Y M M b l y l l x 8 3 ^ F m M V V M b < r t t N B % 3 L M g a a t t y B N * b Q Z n n B K L Z M n b b n ",
"f y , N x b x y x 3 - B y q r b l 7 t l x 8 8 v 7 t b n V y l N l 2 0 r z > 3 J n a e t t t y t l , q Y b f b e w q q e e e a a ",
"t r 2 b b b b l b 0 , x t r 2 k k $ 8 k y t 8 x t t l b b x t l x t t 2 > # 7 n b b a q t t y l l 1 0 N y x l t y l q l e a y e ",
"t 0 2 b a b b r x 2 > k 8 8 2 8 k 2 2 r x t 6 c v i y m x y 2 y l b b S k + 3 t q y b r r t r t x 1 7 y r l l t 2 y 2 q y y l y ",
"t r 0 S b t t k k 2 1 k k 2 8 k t 7 r t N t 6 z t t l y y b l l a y q x x # 3 V N b y t t 2 k k c 1 7 t r k r 0 r r y l 2 l a y ",
"l k 7 B 0 b A 8 k , 2 z 8 8 8 r 8 0 r t V 0 6 B y i y t b V n b b l b N c * 7 V b y l t x y 2 x c 1 0 b r 0 0 8 r r l l x l l l ",
"N t 0 t r S 2 1 l 7 r Y x l t l x z x b I 7 3 I B x l t t 0 0 y a y y l l , w m k l x l b x l S A > y Q l l y r k r b b N b N x ",
"* @ * : 2 * : @ o * 7 , # @ : : 7 3 3 3 3 > > % > , , - * ; o & = = = = * , < 0 , , < 2 2 < 2 2 r - 0 y 4 w , , 2 < = = : : : : ",
"a < q m t y x x t 0 * # y x x x b B V Y Y Q J D V V V J m n u ! T K T Z < n L D n a l e l 2 2 = , ; < 5 4 5 w 4 2 = p n n M a a ",
"[ _ b V b b b N V Y r + B ^ x k V W m M D m J R J T T Q J & u o.( / Z n Z o.Q W I I Y W Q / b = f ' ' [ ] } ' ~ Y = [  .' ) E ) ",
"n M M 4 e y l l t x t * r t 8 w B n w B D i x i x b m Y F 3 w R M b w f F x x c x n c l N b a = y { F B N t 7 b l > Y n f f f f ",
"a a m n < e a b y b x > 8 t t N B x B M F F B v m b B I D 7 y F x 0 m B t c c B N N z l m x 2 2 w B x x x r 6 x 2 > V b x b m f ",
"a a f V b < a x m m x > 7 N B B m b i t v m B x z x v B v 3 9 F t x V i z v c z N b c N N l q = t b l x l k t k 7 > B M i t f b ",
"e q a M Z < y b b b x , 6 I B f y x i t i b i z x x v x c 3 w z x y i t i z c x x l b l b 2 2 2 N l 8 c z l l x l , m J B i a y ",
"y e a V e < k y x N x > 6 V V m i l l l t y y m b y t x B , 3 F t w t r z c v c x x y l N l 1 > l x t c l b b m x : b Y M b b t ",
"l a b n < r y t x B x > 7 V V M B x t r t t y m b i 4 n V 3 w v 3 t 0 r t t t t l x l k x l r : 7 x 8 k l m N t x * i M n m b f ",
"e a n a 0 y y t x I x > w M n D Z M n f f a e b s e f M F , 7 m w w r k z z k z x k l k N N 8 $ 7 x 9 8 x b y y v % t y m m y t ",
"y l n l t t 2 r t I x * b J M n f M M L T H Z J J G F m V - w F F F x i z B I c x k c B Y Y t # 7 A z z l t b m V % y n b N r 0 ",
"l m m t k r 2 2 6 6 8 > 0 ; * O * , , < 5 < 5 < , = & O = & & = ; 3 ; 6 3 % # X # $ 1 1 2 7 t o 6 x x x y l b l x : 0 x y k x x ",
"O * > # o * 1 1 > + r i w y f n , a y a g 5 & J ! w h X.' _ ] ' _ { { ~ U % 6 B A z z x x l x r w ; # * = , = = & & = * - - * * ",
"y ~ E T Q Q [ [ Q % i ..} ] }  .T J [ R } E < _ ..! X.+.) ' ] T Y F I W F % w O.O.R I U R R R T ' n o x B b a n n n V m n V R 2 ",
"i { Y J G J J L F 3 > ~ _ j s f n y y 0 C E = M F D P M f j Z J b 6 9 I B 6 6 I t 3 t 0 , 0 b J ! u 7 m M n n Z T p q a a e Z p ",
"i R t 7 2 0 t y x , 7 B V V f x 0 6 l 7 x F > b b x B x l V n n I 9 k A v 1 6 F e 2 l e e t x m Z b x Z l n n Z n t a a a q l < ",
"t I k t k x x l b , 2 x m i y y r 8 z k z B > i i t B B b n b l v I c c z 1 6 v n l l a t l b b n l 2 b l b n Z b l l l l a b < ",
"r c 6 9 x x 0 r l > - l b l k r k k z z z v 6 y y i N A V l k k z c c c z 6 6 v b q a l r l n N b 2 2 n y y n b q l a a a y b 2 ",
"w N r t x l t t x , , 2 t t k 9 k k k z v B 3 r x i z N N k b c z 8 k z c % 6 c l q 2 q t y x x Z 2 < b l l l y a y y l y y b < ",
"0 b x z l t l l x , r b N r 9 k 2 8 9 x U v 6 i y y l N x N N c k k t k k 1 % v r r r q y q l x N k 2 N l a r r q 2 a l 2 y 2 : ",
"0 N x x t t l x b , k b l k k k k k x B B v 6 c M i 7 b I I A z k k b t k 1 1 v l r < l r 0 k N N 2 2 n l a y y r q 2 q q : = 2 ",
"8 B t y y t x b b * b S l l c c c A Q R W I % z Y y 8 k U A k z A N S b B , 2 U T V b x l k l I U 2 2 V Z A N l l r r N r : r 8 ",
"> 7 7 6 , ; ; , , @ t y 0 2 2 2 2 7 6 , 3 - o > : * @ + $ + X + : : - * > * & < < < < 2 < = @ < 2 : : = = = < , , = = , @ : : : ",
"* * * * < q < p w ; #   O & O # . > 4 e e f y 4 0 0 < 2 2 . @ = = , < < < p g p d d p q 5 e r o * , , < < < 0 5 e e e 4 q 2 > o ",
"x I x 0 b V n f n F > 3 Q ' ' { D J } ! ] o.( J V Y Y _ Q , b Q Z n b a ( } ` ( / P K E E [ R @ w Q Q Y b M E G K P C n j g b , ",
"7 i r 0 > = < 2 e m > * T M b D ~ n 3 e s u w t y e e b b , e q = < 2 2 g V d p q f t x b y k @ < Q t b l q q t y 4 , 0 4 t a * ",
"7 b 2 < < 2 r q i i > * 5 4 e y e m t y m b m m b b b b N < 0 q < a a a q n g l g f y x t b t # 0 B 0 r w 0 e e y 4 , 7 0 l q = ",
"7 B w 3 0 q q e y f > ; s q e u e e b 0 e M V m B V N b V 0 q b < l a q q a a g g f b b t l k # 2 V t y < r t a b w 0 > 2 , r > ",
"3 F b x y e y a a f = , h q 0 e w u y M 4 3 T m m V I b B 0 q y l l a a < n y g a b b N l l r # 7 m q r 0 t b y i i > 7 8 > 7 , ",
"3 N i t b y p a e g = * h q 4 w u f y u n 4 e M b b V n V 0 r b B l x l e b e b n b m m b q 2 # 7 x 0 0 2 t 2 , 7 w , m 2 > 7 , ",
"w n w w a e e e 0 n = * n s y e y i f f h D w t x u f y M 0 t b n l q y a e a n n b b B t r 2 * 0 b 0 7 2 k t r t 7 t 6 2 7 t , ",
"0 s t p y p e p s V - > f h h f y i v u C D L u e u e e m 7 r m b l e l n M m m l y y b m N l : 7 B t 0 r t l b y w 2 > 6 7 b 3 ",
"0 f g p f e 5 e M e o * V u i h i t i i D L L G f q n m F , q B l b b V F m D V b t r t b y y > 7 Y N > 0 k t k r 6 1 1 0 b w > ",
"y f b y a a t t 0 * % > V m x y w t w m J D n m B i i b B - 0 ~ Z S Z V m F B B B N b b m V x = t W N 7 0 N k r t 8 r t x V x * ",
"- * # * * * * = : > X o o # # * % % # 3 3 3 3 3 3 3 ; 6 O * - 4 q 0 < , > 3 3 7 w t t t b x <   , 7 2 * * , , , > 3 > , * * - # ",
"J E D T T J J H R 6 * 0 4 w w i w w 4 u e 4 - w q u u u u h e 5 , * w 0 q 4 3 m m M n y a e p l i > * q t a f m M Q y 3 W - , u ",
"L P D G C J ( J F , b { Y F D T J J Y Q ' D = F E P L E F ! T Y V b _ T ..n e ~ L n m M n n M I W 3 e E M J m m m J y 7 Q s M P ",
"s s s s s s j H m 6 6 t 8 w 0 t 0 w i w L m * m L u u i 7 w y r t f e q Y w ; B e q 0 w 0 < 0 < t , 3 B l y y y y x t 7 f G M j ",
"M m j V M M M P T 6 1 t 7 6 0 t t 7 0 w h h ; u M s i t t i q r e a t y m w - i y y e w q q 0 e x 7 0 B b w 2 y y b l 7 n M M V ",
"M n f m V C V M F w 7 t 2 2 7 t l y q a a M 0 y f f y w t 0 w r q y y g m w > t t 7 0 y b y y b V 7 0 l e y e a l n l 2 l g V n ",
"m m m B B n M y x t 7 8 6 1 2 0 e y b l a T y t x y x t t 0 w w 0 t q y m 7 3 w w w i f y y e i x 7 0 l t e r a a a y t l b 2 a ",
"x i x x x b x x b i 7 x 0 2 7 y l b a b b m 2 t b y y x t 0 w 0 4 4 e e j u 3 w s M D M f u e n b 7 , b w e q t y < l q b l a q ",
"l x x b c x t x x t 7 F t r b B n b n m n 0 > N V i y x x y t t e f f h E m , x M M M j V M n M Y 7 7 V b t q w 2 q n 2 n N b l ",
"0 r t r r 8 2 2 > c k 2 2 2 r r 2 r 2 2 > > : 2 , 0 w w t w w t 0 n n f M s 3 > > * > * , e 0 t r 2 > t x 8 7 7 7 7 l 2 r k 2 2 ",
": : : > : > 2 7 w N k # 2 0 , 0 , * < 0 2 2 2 , 3 3 0 3 > 3 3 * O 4 4 4 4 4 > * # - > ; = ; > * > > # * * 3 3 7 7 7 > @ 1 : 1 1 ",
", I b b x N m V I ~ z : J T J M B a Y _ [ Y Z Z L T T F > T ) C G ) ` ` X.` Q P j ` E H L E b - Y J J T L L L J Y R l b I B U x ",
", b y y t w q q w x 2 > g K n b p e p p < 2 5 q s D D i - w E G H H H g g s e e g G G E G L y # n n n G D m h s f e t x t l b l ",
"2 r y y 2 y < y e y r > b V p p a d p a q q a b b n y q : , n q s D V < q e y < f g t n t y t > e b f a y f b g f e w y y y i w ",
"2 l r 2 q < l a y m r , x b y 2 a b l l y q q a n n q 2 : 2 b a n f n e r q t 2 B i a t x y z > t n m b b a y a f f y l t y x r ",
"< l r q 2 l l a t b 2 > l n 2 2 r y l l l a y a C a 2 y 2 2 a l b b b a e r 0 y M f y b T b t > w t l x f y y e e q y n t y y w ",
"1 l y a a l l q < m 2 2 l n 2 l r 2 q n l p 2 n n a a y : 2 r q x y a b b e 2 q V f i Y L M y > 0 m y b x y l q 0 0 y a a f y w ",
"1 l l k y y l t b V r 1 n b q t 2 l l l y q e < p p q l 2 2 2 2 r k l N l a 2 = n n n M M M k # 8 B V b x l l k q w y y y f y 0 ",
"1 c l k l x n b b S 2 : T T y y t l 2 q 2 2 l a b b n n 2 , y 2 8 r 8 l 2 t 2 : t B b b b t c 1 r V N b x y t y l t b y f f a a ",
"2 S l k k k 2 x V r : 2 N l x b b y t y y 2 2 l k l l l y 2 l r 2 r 2 2 8 9 2 2 8 x x k t 9 k $ r c l t t l f t t g f u h f n n ",
"k r $ + : : : 1 2 + 2 l = > 2 < 2 = 2 2 2 t > : 1 : : : : = 2 : 2 : 1 : 1 : : 1 > 1 1 1 1 1 1 $ $ * : : : * 0 b n V M h q f n ; "
};
