/* XPM */
static char *_6239_b10d3ff69b6ff2938b5f843587dbb863d4698a9f88788ab110cc7f581a271ede[] = {
/* columns rows colors chars-per-pixel */
"64 64 66 1 ",
"  c #281707",
". c #2F1A07",
"X c #2C1709",
"o c #2D1909",
"O c #351D0C",
"+ c #391E0B",
"@ c #351E10",
"# c #3D1F10",
"$ c #37210D",
"% c #3C220D",
"& c #3D2411",
"* c #43250E",
"= c #49260E",
"- c #47290F",
"; c #4B290F",
": c #562D0F",
"> c #442611",
", c #4B2612",
"< c #452A13",
"1 c #4C2C14",
"2 c #4D2D19",
"3 c #532D14",
"4 c #5A2E14",
"5 c #522D19",
"6 c #5A2E19",
"7 c #4E3116",
"8 c #4E3119",
"9 c #543116",
"0 c #5C3316",
"q c #5E3917",
"w c #55331A",
"e c #5B351A",
"r c #57381C",
"t c #5D391C",
"y c #613416",
"u c #683717",
"i c #643917",
"p c #623619",
"a c #69371A",
"s c #633B1C",
"d c #6A3D1D",
"f c #5C3620",
"g c #563B20",
"h c #5D3B21",
"j c #643D21",
"k c #693E21",
"l c #66401F",
"z c #6D411E",
"x c #72421E",
"c c #5E4022",
"v c #654123",
"b c #6B4223",
"n c #6E4826",
"m c #6B4529",
"M c #6E4A29",
"N c #724523",
"B c #7A4621",
"V c #744926",
"C c #734729",
"Z c #754A2A",
"A c #794D2A",
"S c #74502E",
"D c #7C502D",
"F c #7E5330",
"G c #824E26",
"H c #81512C",
/* pixels */
"ttq99wbppq9w9aw4ets5&n002vsri10p00k3ee&s0y>5043tz,>zc&Vbs9tqwywr",
"ett4sejser99qiw4ers>hb402jtsq19q0ya,f5<tqp>>y34pb,%st%ANs5qqeqht",
"ety0djfktr9:ia54est8Zs002vstp,0e50i>999r0y**y33yb8%sl*nVl9y0east",
"sqqtesfks093dp590q5hN0091l0vq;y93qy3*w0tqy>1a3,inw+tz,kVs9iqrssr",
"eqqeephktq9wNp30qp5bbwp52sqv7,dw30s9$qwwey1tpr,ykj+9b1tVh0i0wsst",
"pt0ewpsvst0rVp40ey9nk001wsws2wb99ypw7v7qp0whys<qkj+5N9<Bt9s0wss9",
"et0qepstsq9qVy00esedpe0,ejqe-tb90yp%bn1tq38syk<9mfX5Vs%bs9dqwss3",
"0he0wydhsq45Vy0yepedeee,tsee*vvwqy1cMn1se9rsps&0kjX2Vs%tk3iqwdd0",
"esw09sdsst9%miyqeetdyt51ssp97bs1rp1ZMV7tqegtet>yje >Nk<9s9dp3kd0",
"ss9ewsstst47Dq00eqta0s14sse1wbp1tp1nbS9swtgyee*ydwX9Bj1ss9dy9ba4",
"jp9qwttwzy4wV44ye9ey0t>ytse<gk0wpp3knz7serjye0<us1O,Nv7qd9jy9zz0",
"hjeses09dt99V040p3qyew*yws0<jsqeep3jns;swehqq91us2&*Nv7ts3tp3zxq",
"jstvswewk000Ny05s3qqs1;pwq97ms0,sy3tkt9swrep059py81#ds1s009y9lBw",
"jttzs9ewj3twb4p3s500p<0q9r32bp6<pp3wbs7swewyqwwap83#wi;s99:y3rGq",
"ttsbj4ewh0t3bepes1y0e1i37q37nt3es032ns1twtgp0ewpsw1,&t;s5139t<Ht",
"sepvs000t935bpses:0y3eN5701wbe:sse42ns1s8h5p0ewekw56+71s9114k<28",
"jspbr0p0e939z0sft5q0*ev08t1wb0;sse65vi7z<jwyew9skww4,+,sq<50i<&w",
"tepje9se0q:wbwkhw40q*rt07s<qk0;bs06,ss1z>j9ys91jkw0p4#&st>10d22t",
"0wpkr3e09i:7b9aw530e<btq7j>jby1bse63is9s%re0pw9tjwwpt39st*,wk52j",
"0gjjt4p09y42b0se93007b009h*rj0:ks04<yq3s+we4ewwis2wss49sp*,4d52j",
"e,ksr9yewp41m6pt91qq8nwq9w-lty1Ns03>ut*-+wt4sw<NNw0sk5rsp*=1ay1j",
"5,kte4ye30:*Nepww:ywwbty97-bs43nl03,dy19+ee4te&kHw4ss3qsa=14jq5j",
"1wdt9eet04<8k0p5w3yewksy92,Ns0*<s03,dp3p>keypw>aC24lp9tsk,13ze9s",
",kdr4eee9,7vkepww;yegddy9w1bs9<bb0;1xe1u>e04se1ue<0sp4tss511vtwb",
"<bks3eq06wgtvtq0w1i0hjhjwg>bs39Dsw=9xews31p0kw3yq1yjy3qss355njes",
">Nbt1006>vsrbs0w99yehehmke,bs18Atw*9Nqvr0,pps53yg9ysy3ttp4geVnrs",
"1bjt5ep2tvswvsprweyigmmjje,bj9wZsw=0xegwp100t2;p2wyby9ets32rsNej",
"1jst5ep2Zts8rsewwrydgShZss1vsetNs9,ebtO001y0s1;s<9ysy1wqpe<jNjwe",
"3sbt9002Ztrwwtewrw9bbwjV9s2vsthVfw*yss<s05y0s,3s<sqtp;9t0t2dx1wt",
",jds9we,Ml5wet0gw94wZdds<s9sptgNt0;etiwsq3y0q;3e<byt031tptwi0,eq",
"3eie590>jd30qqqww5y1wjvg<jweaswNsw;evawse5yqt,;5<zy9395te05t76e0",
"4wkp53e,gd3e5rqjw1y4%wj<%swwdswnpw>izp5se5yyt9:<2N090e1k0eee,6wp",
"eeki336,wd,p9ttj13p0,@& >dw1ktqbsw-sz0wse8py0e4>1Ny1td1l0rw15eep",
"0fb0w30>wz*9yeta1wp0p52#5ze,jtwbsw<tt9wj0,pqet0*wds9wz,sstw,w0hs",
"ytk003p32d57iqqs20ppe6f29bt*ss2ssq2spw2kw,e0pt0&9Nw58j,jpp7>00jk",
"00k3e1p32a05t0es2e0ppwp>0Vj,ebwssswtq92b3wepet0%r99w<8wtqe2>60hj",
"59s105y48ey9e0tt1s09y0f*;Nz5wbwejswkqw1b5wese31><2qq&&j0ep>244wb",
",ea9qw03890reqqqws05eqw>;nb38nw9ss2s0e7s9wrd0e1#%9es%2s00p>f04ws",
"1ssw0w048pystyswts44ks5;1nd02mg3je3sqt2t52ja0p3#<tqs<wse0p,gy,si",
"5js05te35te0etqwjs03vs>3:bbp<bt3s0ws9swt12vs00>@wsts2w0e0y<sy5s0",
"0yie9py47qe4stewvp03sh>41nz01vh3t99e9sqq2wmjy4:+0sss20ppy0rk0;i0",
"eqqsw003w0wqkrp9jt03zq>0;vnq<st3s3tewvtq<wvs4y;Otits,5jsywhs45y4",
"t0pse9p41rephgpweq01kw3y1cby2rv1s1jwqvlt1evjyy*Oppts>5jppwss34y4",
"jqpse3y45<&9jgewwt45b24y9vdy1rs1y9s9tlzc5gvj4y%+y0ts*,ssp1jb34y1",
"juyqs1006j,org4w9s90h,009vmy5wk9y5s<tllt5wvjyp+%pesd*=pst<dve0p3",
"jy0qy94y0tk2$<4t9p3ek4007vls18j303q2sdl9wwjs04+3apsk,*yi02bbsty3",
"gp0qy940etjv<Oes8p30d4y41hkd;7s30:41ssb708rjy4%4spsb5%pi97jbtty4",
"w0qqy3:00sjjv@4y2y3sa4yy1rlk9<p40;41sev7e<eb04*ij0ss5O4u9,sbtky4",
"1esti<9y9ik5d8*p2s;tp00y3wjvj&w0y;42dwc2e%<by3;sb004t#,d0,slrvu9",
"2wsqt,9y0sbjej5e9s3t0py03wbjt<14y;32z0t8e%rby;3ak34yf<5dq<vs9hu0",
"1riqe*46ejjvestewk5t0y433hlvg>=4q=38b0qwe<skp=yjk=3ys<0dy2szqwuq",
"1jswr,6petvbwp0t7zetp4y34hsve+*40;38bqwwt%szt=iss13pj,ejpwsvs9a0",
"1jste24ptetbwiyt5btesy401ftlt$*40;01jsw7q<vvt3zpy,:pj5sksrlss9si",
"5rvjw13p04eCwe005br9jk4t3hssrX*4q14wht9w0&lztwbeq2;sz9jsswbsi9ed",
"9ejjq25pe59bq9p51iwesN4t3fss7.<4e340wj09t%sbswksp>*avwjdttbtey5s",
"4whsww9yq99nw4p,1awshb0e5esj7&*0r33twbq9t%bdjtkps**pb9skrrb0iq90",
"44hjtw5ye9wNw4p,3pjjebie5eslw7*qe94seCewp*babhkjs%-ybwszs8bsq43s",
"95rjk55p099bt4p,9ysbwNy02gvsw9>t993kwbrwy<vdjvjes%=sbwjdtwkqqy3s",
"94rt051pewwbe0eweetp<npw,fns90<s09:swbeea<sxsjtes%;sbhddt9bqpy1s",
"0:few0,y0w9swy35see42np0<jttyt<swqqp5b7ep1sxrd9tz%,iNhjdt9dqe41s",
"e0tew01pew9s2y4wpee32Zp0<jfty02seyss5N1tp30dri*ts%,sNhjvt9s0s0wd",
"qq0wej9ew99j1i55eep0<vqe2jttq91sq0kjwk<ep1wb0y*ss%-sNgNbs9u0e0ed",
"eqe5wbe0ew3j9pw9p10e>hy02mtey9wsqqje5k<tp3ws50=sb<-sbwnbd9sqeywb",
"eqq48js0iw9t1aw0twtw+hp05bpfu1tp00k50s>hq019403sk,-ll2Nbu9tewywe"
};
