/* XPM */
static char *_5590_c488cedd2e7a60bf35059eefd2e6c07fb2de0b0dc2dbe7569db36aff4a1ddb9b[] = {
/* columns rows colors chars-per-pixel */
"64 64 119 2 ",
"   c #050000",
".  c #0A0402",
"X  c #0E0906",
"o  c #0E0B0A",
"O  c #110605",
"+  c #120906",
"@  c #180D07",
"#  c #130D0B",
"$  c #190E0D",
"%  c #15110E",
"&  c #1A100E",
"*  c #161211",
"=  c #1B1513",
"-  c #1D1916",
";  c #1E1A19",
":  c #211614",
">  c #221916",
",  c #2C1B12",
"<  c #241D1B",
"1  c #2A1E1D",
"2  c #26211E",
"3  c #2A211E",
"4  c #32241F",
"5  c #262121",
"6  c #2C2422",
"7  c #2D2926",
"8  c #2E2A29",
"9  c #322623",
"0  c #332925",
"q  c #3C2B26",
"w  c #342C2A",
"e  c #3A2D2B",
"r  c #3D3027",
"t  c #35312D",
"y  c #3C322D",
"u  c #382F30",
"i  c #363230",
"p  c #3D3432",
"a  c #3E3934",
"s  c #3E3939",
"d  c #402D27",
"f  c #412E2A",
"g  c #423026",
"h  c #43332D",
"j  c #49362E",
"k  c #44382E",
"l  c #4C392E",
"z  c #503B2E",
"x  c #423632",
"c  c #4A3631",
"v  c #443A35",
"b  c #4B3B34",
"n  c #403738",
"m  c #453C3A",
"M  c #4B3E3A",
"N  c #513D36",
"B  c #513E3A",
"V  c #47413C",
"C  c #4B413D",
"Z  c #544135",
"A  c #53433D",
"S  c #5B463E",
"D  c #5B493E",
"F  c #644D3F",
"G  c #474141",
"H  c #4D4441",
"J  c #4E4946",
"K  c #534642",
"L  c #594740",
"P  c #544945",
"I  c #5C4B44",
"U  c #554C4A",
"Y  c #5B4E4A",
"T  c #5D524C",
"R  c #5E5551",
"E  c #5F5850",
"W  c #624D44",
"Q  c #614F49",
"!  c #645147",
"~  c #6E5747",
"^  c #62534C",
"/  c #69554C",
"(  c #61584F",
")  c #6B594E",
"_  c #625652",
"`  c #695750",
"'  c #645A55",
"]  c #6C5A54",
"[  c #665C59",
"{  c #6B5E5A",
"}  c #715D56",
"|  c #715F58",
" . c #6C615C",
".. c #746155",
"X. c #7A6456",
"o. c #74635C",
"O. c #79665B",
"+. c #79685E",
"@. c #6E6361",
"#. c #746662",
"$. c #766964",
"%. c #7B6B64",
"&. c #776C69",
"*. c #7B6D69",
"=. c #7D716D",
"-. c #847266",
";. c #897366",
":. c #8D7867",
">. c #82736C",
",. c #8E7C6E",
"<. c #927B6E",
"1. c #807674",
"2. c #877970",
"3. c #917F73",
"4. c #948075",
"5. c #A68F81",
"6. c #AA9486",
"7. c #A79589",
"8. c #B6A394",
/* pixels */
"( ( T  .6 . ' ` ] ] ] ` ] ] ` ` ` } } ' Q _ { 0 . m $.] | | o.*.` _ ] _ R  .w   > 9 3 1 < < 1 6 1 < 1 > $ # = I B K K H L _ R ' ",
"_ T P  .7 . _ Q _ ] ] ] ] ] ] ] } | } W I ` ' 8   J $.] ] | o.-.[ |  .T ( [ 2   Y *.$.&.&.{ @. .' ' { { T : + C m c x M M _ R T ",
"T T C R 5 # R P Q Q o.| ] ] ] ] ` | ] W I Y ' 0   H >.I P ^ #.#.#.T [ ' '  .2   ^ #.| } %.} R Y P P U Y  .> + M f x m M m V Y R ",
"R U H T < # _ K K I | | ` ] } ] ] } Q I K I _ 8   J $.K P m ] { &.o.' [  .&.5   Y o.} } | %.Q Y _ R Y Y ' 0   n x u m M V m V P ",
"H P P R 5 X ' P K B ` ` ` ] ] ] ] } W K K P _ 8   G @.U U H P ' E #.R '  .=.t   ' o.} o.} -.` L ` ' T P  .t   v v n n m C V m m ",
"m m m J ; X R P U A ^ ] ` } ` ` ] ] L L L Y ] 8   m  .R Y K H Y T  .' ' o.=.t   Q O.} } } | O.^ I Q T Y o.t   n v m m m V V V V ",
"V V C J ; # E H K B Q ` / / ~ ] } / I Y ` R  .w   i ' P J P P P T o._ ] $.=.t . ' #.| | } ] ) } ^ L K U [ w   m m m v v V M V V ",
"C H C U 5 * ' P K K A / / W / ` } ^ Q Q ` _ #.w   i R H H P T R E #.@.%.&.1.C   _ %.O.| } ` / Q W / ^ L #.w + G m m v n m G V C ",
"J C C J 2 ; ' J U K K Q W I W ! ~ / Q ` ' ] @.w   = s a i e u M V m H G J H a   R =.O...^ L W Q W Q ^ M | y # V m m v p n V H K ",
"P P P C < ; [ J K U K P Q I S S / Q Q Q ` [ @.w                         . .   X  .%.o.( K B B b B K L K R t + G m G n p m H K C ",
"P C P E 2 -  .J U P P P I Q W S F W I Q _ ' @.w   o o o # $ & $ + + # X X X   . ` %.%.^ I I P A H B A B Q e + H n m m v p V K K ",
"P U U  .; - @.U Y Y P Y L L W F W Q I Q T ' #.p   5 p M m H H G m p x n m 8 # . K #.| Q U U K B B M b M A 6 o H m m m m n V P K ",
"T _ _ @.; ; @.R R Y Y I Y L W W W / Q Q _ ' &.V   5 U m v v c x x v v M G x = o M [ { Y P K C m n x v M P , X P H H C M M P ^ I ",
"T E E R * - E U R Y I I Q Q S W Q ] ` Q ` [ &.M   5 U m x n x x x h x x M x ;   > w p w 6 2 2 2 > > > 6 w -   v m v p x n v P P ",
"  . o o   ; ' T R R ^ ^ Q I S W ` } ] `  .#.&.n   * a s x x x x f x f x x x :                                       .         . ",
"2 2 2 5 o ; R P T ^ ^ Q Q W W / ` | ] ] o.#.%.p   o p i x n x h e e x h f x >   X = < < 2 2 < 2 < 2 5 6 2 2 5 3 3 < X + 9 3 < < ",
"v V m J 5 . R U Y Q ^ ^ / / / / / ] ] } | O.*.m   * s u u y x x e f e f j x =   0 V y a a a a a a V m V V k V r V V X 2 D V V v ",
"v a a J <   J ' ^ Q ` ` } ] | | | | #.*.%.#.>.C   o p u p e 0 e e 0 0 f e x & . V V k r k y a y p p p r k r r r r r X - D D m v ",
"8 w w 8 o   7 U C C C C P P P K C M K H M K H 8   * p p e e e w 9 0 0 q q h %   k k V Z a a r r y y y a k r r r r r X X t m y w ",
"                . . . .                           * p w 8 e w w 0 0 w e h y &   r V V V C V V a y t r r r r r r g Z %           ",
"w w u 6 * = 6 3 1 1 q q e >   : C k y p h m x &   * w < < 9 w w e e e u y k %   r V r k V V a a V y t r r V r Z k V #   6 p w w ",
"U K M H m v v b M L L L ^ Y   p ( C k D ^ b A 0   * 6 1 5 < w 0 e e p x k k %   r V y k a k r y t r r 0 r k k r k v o . ' [ _ _ ",
"K m n x x h e f q f j c M Y . w P h ! 4.,.l b t   % 9 1 1 1 w w w e p x y V -   r V a y p p p r r 7 4 0 4 k k Z l k o X R Y P P ",
"H H G m x h f f d q f b A Y . 3 I +.6.l ..-.x x   # 9 1 1 < 0 e e y y y V V - X 4 V V a k g V y 7 4 4 0 4 k k r l V # X ' T P H ",
"M M M M b c f f f d f N ^ I   2 ..8.! ~ l / ! r   # 0 3 6 1 7 w p p v a b H < . r V a V V k k 4 4 0 4 4 0 g k g k Z % X E T P C ",
"M M M m n c f f f d c N D ( . 3 Z :...O.! j j k . % w 6 6 7 0 t p p m m V U 2 . r V V r r Z r 4 0 4 4 4 4 h k k V C o X E T K C ",
"v v m v x x f f f f c N I ^ . 3 D Z 4.Z z j g L . = e 7 w 7 w t t p m V V R 2   w V v a r Z r 4 4 0 q 4 r k j k k C % . R T H C ",
"M M v v x x f h f f c L ^ A   3 ! l X.X.) A l ..+ > G n a a a m m V H U Y E 6   w P C C V V V k 0 0 0 0 k C V C V J % . R T C M ",
"M m m v v x h f f B W Q Q P . & T I ] O.} I ] ^ X # w 8 7 8 6 2 ; 2 2 7 w s < X 5 8 5 5 7 7 1 1 2 - - > > < < 3 5 8 o O ' T K V ",
"V M m v v v x h M L B A Q K .   . . .   . . .                                                                         %  .Y P C ",
"V C V m n v M H A K A B K M   : y r r h d q 0 3 3 3 1 < 5 5 5 6 5 ; < ; < < 5 5 6 6 ; # X 2 n e q 4 4 9 9 4 6 9 u p O # [ R P K ",
"V C V m m v K M B K K H B M   < D Z A C M b C b M M M M s n m p 8 6 2 2 7 w i p i a s <   t Y A A A K A H K K P P J * X ' ` P B ",
"U P J J H J T U P Y T P U p   - B b M B n x x x h h u w 8 0 8 3 5 ; ; ; ; 5 6 w w 8 s 6   w K b B c b x f x x f f n * . { { _ U ",
"w 7 7 7 6 7 t 8 w t p 8 6 %   - K M B M c x x f e 9 9 1 1 1 < < < < < < - 5 6 6 7 8 u 6   i K M H B c m x u x 9 e u %   p T H v ",
"                              - K M C M x x u e 1 < < 5 1 1 > > * - - ; = ; 5 < 1 6 w 6   p P B B B x x x f 9 9 9 u O           ",
"J P U U J J J J t . * 5 7 7   = U M B M c u e 9 1 1 1 < < < > : < = * = * = 1 1 3 6 8 <   s P H C K B n x q q 9 1 e . # R P P H ",
"[ [ [ ' ( E T E @.* # s i i   = K B G x u e w 1 1 1 1 1 < = = = = = * = * ; < ; 1 6 u >   m P K K C C n e h e 1 3 9   = [ T ' ' ",
"I T ' T U U D V R -   t t t   ; U G M n e e 0 1 1 1 1 5 1 > > = = = * = * = ; < < 6 u ;   G U K K x x e x e 4 , 3 7   = ' I U P ",
"T T E [ T T U H R * . i t t   5 U H M n u e 9 6 6 1 1 1 1 1 > = = = = = = = : < < < u =   s U K H p w e q e 1 1 3 9   & ' U I L ",
"I T R [  .T J H E * # i 8 t   5 U B C b p e 6 1 5 6 1 1 1 1 > : = = = : : : ; : 6 5 p ;   s U H G e 0 q 0 q 1 1 3 3   = ' I I I ",
"T T _ '  .T A J U * o i t 8   < G H K M n w 1 6 5 5 6 1 1 1 < > : : ; ; < < < < 3 6 n <   s U J M t e q e e 9 9 3 w X $ _ Y I T ",
"T E E T T J J A U * o w i t   < H H G s n e 6 6 6 6 1 6 6 1 3 1 1 < 1 1 < 1 < 6 w 0 M <   i U G n y y e 0 q q e e b = X T I I W ",
"T ^ T T U P U A T # # i a 8 . ; U J Y K s 9 6 8 8 5 6 7 1 < < 1 < 5 1 5 6 < 1 3 u p U 6 . 8 U U K p p p e e r t y v # . I I T Y ",
"T T I P P P J C Y $   % # o   o & > < : # . . o . . .   o . .     . o .       O . + > + . % = > < % % & + O o % - =   . K Q W ^ ",
"I P P I P A C C Y $ O % + + @ @ O O O O . # . o     X X . . O O . .   X > > 1 1 , : : > : & $ +     X       . .   +   . A W I ^ ",
"K A A L A Z A A L + < J Q R R ^ P K L P ' { ' s X ; s s n n m M G 8   i &.{ ' ] ` ` |  .] ^ Y [ 7   t t t t i t t p & . K L L I ",
"Z A Z B N N B M P @ = _ L B B B L W L ] |  .{ U   w J G H M m n H p   G [ I I L L I W T I K A Q t   t t t t p p v C >   B N N A ",
"N B Z N c h j b A @ : Q B M b c c B B W ` Q Y R   8 U m m m m v G u   P { ^ ^ I W L D ! K A B U e   t p m H C C V V = O B h d j ",
"f j N b c c j h C + $ I B c c c j b S W ^ W R R   < J s x M m m G p   V R I Q I D W I L B B B Y w   = % % = = % % %   % k d d q ",
"q q f j j c x j A + = Y B N c b c l N W I L P U X * i m n m x u V w   w C A I I I D I L A H K _ w   . X # + % + % = . % m f f f ",
"e d d f f x f e v O $ Y B c N l c j N W L A I T . * t 7 u n u e n 0   w n x B Y I I I ^ L I I ` 0 . C C A P b L C I = o b x h y ",
"h h x x f x b f M $ $ P M b j j c j Z ! I I I T . * t 6 6 e e w p 6   0 m e M P A A K Y / I L ' 9 # I j b ) ) z Z D & . m x x x ",
"p x v x x x b x G $ # L B b j c j c I D D I ^ A   = 0 9 0 9 6 9 e 6   5 m p K P P A P P I L A ` 9 + L W O.z 6.4.;.W = . M m x x ",
"x v m v v b m x B $ $ Y B c c c c A I D A L / A . % 8 9 0 8 0 w p 6   6 M p C H C A A I L U A ^ e . I l <.F ~ W W M > o M n v v ",
"m m m m b M v x K & & P B b b b B S W L Z A ^ C   = y 9 9 0 w w t w   7 C p M C b A P P I I L _ r . ! N X.} F z j b < $ G x n v ",
"n v m m M M M b U $ & A B B B z Z Z Z I L S I K   > e 0 w 0 e w y t   7 M n v C C C A A L Q Q [ w + ' / X.F X.W , K < o m u p x ",
"p a s m m m M G Y $ $ K B B B B A b Z Y L A P ' . < w 0 0 e w e n x   8 V p p v C C H B A L Y [ w . ] l l 6.4., , v 2 X m p p p ",
"s s s G K K Y Y ' O $ G G n b H I A I ` I R R U   ; n w w w p p H p   5 J m m G U U Y Y R ] R @.w   I ^ A D / 2.*.Y %   p a s p ",
"# o # * * * - < *   . o # O # # # + + & = - = o     % X   . O o $ o     = = = = ; ; ; 6 9 8 w w X   + - & & > w w &     . o o o ",
"            # $ * $ # X   . .   . . .             . + + # # X X           .       * * # O O O X o % % X o .       X X X X       ",
"U J p 6 o X J #.#.| ] ] ] ` ^ / ] { { ' P U M *   8  .' o.*.*.%.T P U U R @.8   8 R U U C v n v V m m M p #   6 C C P _ R R T U ",
" . . . .* O #.&.O.| #.| | } } ] ` } O.#.@.[  .w   a >.o.o.o.O.>.` ]  ...E @.t   8 R G G m n v n v p x n V . : T  . .[ _ ' _  . .",
"T T T  .1 O | | ] ] ` ` } ) / ! / ` } o.[ _ _ y   p +.` ) ..o.o.I T T T T @.5   < m H G m i p p p p w p 3   3  .I I Q ^ T ^ T E ",
"E ( (  .3 O [ ] ] ] ` } ` ` ` ~ ) ] } o.' T ' y   a %.] } o.o.o.I T ( T ( @.8     X + o o .   X             > ^ D I Y Y ^ ( R R "
};
