/* XPM */
static char *_800_5c14ca0649b1e1073b8d5ecbf93c45e5b1e2b10957ce16226d6220e689d82604[] = {
/* columns rows colors chars-per-pixel */
"64 64 125 2 ",
"   c #1A1C06",
".  c #111808",
"X  c #1A1E0D",
"o  c #21240F",
"O  c #222511",
"+  c #252916",
"@  c #292C16",
"#  c #262D1D",
"$  c #2B2E1A",
"%  c #2E311D",
"&  c #32341E",
"*  c #2D3424",
"=  c #333522",
"-  c #363924",
";  c #3A3C26",
":  c #373A2A",
">  c #3B3E29",
",  c #3E412B",
"<  c #3E4130",
"1  c #42442D",
"2  c #46492E",
"3  c #4B4B2F",
"4  c #444631",
"5  c #484733",
"6  c #464933",
"7  c #4B4C35",
"8  c #474B39",
"9  c #4C4E39",
"0  c #514F37",
"q  c #504F3A",
"w  c #4E5136",
"e  c #4E513A",
"r  c #515137",
"t  c #53543C",
"y  c #5A553F",
"u  c #55593D",
"i  c #59593E",
"p  c #4E5140",
"a  c #545641",
"s  c #585742",
"d  c #565943",
"f  c #5B5C44",
"g  c #5C5E49",
"h  c #615F46",
"j  c #605F4A",
"k  c #5E6146",
"l  c #5E614B",
"z  c #5F6450",
"x  c #616145",
"c  c #63644C",
"v  c #686449",
"b  c #66694D",
"n  c #69694E",
"m  c #646651",
"M  c #696752",
"N  c #666953",
"B  c #6B6C54",
"V  c #676C58",
"C  c #6C6E59",
"Z  c #706F53",
"A  c #716F58",
"S  c #6E7156",
"D  c #6E715A",
"F  c #727256",
"G  c #73745C",
"H  c #76795D",
"J  c #7A7A5E",
"K  c #747661",
"L  c #797760",
"P  c #767962",
"I  c #7B7C63",
"U  c #7C7E69",
"Y  c #817E64",
"T  c #807F6A",
"R  c #7E8165",
"E  c #7E816A",
"W  c #828265",
"Q  c #888467",
"!  c #84846B",
"~  c #89876B",
"^  c #86896D",
"/  c #8A8A6D",
"(  c #848671",
")  c #868972",
"_  c #8C8D73",
"`  c #8D8E78",
"'  c #918F72",
"]  c #908F7A",
"[  c #8E9174",
"{  c #8E9179",
"}  c #929275",
"|  c #999677",
" . c #94957A",
".. c #98977A",
"X. c #96997D",
"o. c #9B9A7D",
"O. c #A09D7E",
"+. c #949680",
"@. c #969A82",
"#. c #9C9C82",
"$. c #9D9F89",
"%. c #A09F82",
"&. c #9FA182",
"*. c #A3A284",
"=. c #A8A587",
"-. c #ABA887",
";. c #A5A58A",
":. c #A9A78B",
">. c #A6A98D",
",. c #ABAA8D",
"<. c #B0AD8F",
"1. c #ACAC92",
"2. c #ABAF98",
"3. c #B0AF92",
"4. c #AFB091",
"5. c #B3B295",
"6. c #B8B497",
"7. c #B5B59A",
"8. c #B8B79A",
"9. c #BBBA9D",
"0. c #BFBEA2",
"q. c #C1BFA5",
"w. c #C4C1A4",
"e. c #C5C5A9",
"r. c #D3CFB2",
/* pixels */
"H t j c B l N H l f g 9 6 d 4 H P < e u e 7 u l k , * > - 4 8 ! ! 4 f m 5 5 9 c l f 7 i l b t ! ( > 4 - = , 5 8 j t , 7 w d 0 L ",
"I s h 5 w B G f f k d l l g g g l 8 8 e c k e e 6 p l a l m f H I s ! a V @.H ! H H H R L _ a B m ; M B s s s 5 4 f S S G L t c ",
"Z s _ I S V X.D H ! { #._ E K l P @.E f [ ^ N c c _ @.&._ l a l G 7 u = f _ m H H W [ I h F 7 g M g ,.3.9.#.! M F L ;.,.' #.M n ",
"! 7 1.*.! e k E K E ` #.K G d # - 6 G { b _ P D c @.,.;.! G 6 B U e C t w &.E L *.o.' | / H ; f p V 3.v / ' A /  .Y _ | #.' h M ",
"B 1 J X.#.N = l G D ^ R E k e + : 8 8 ) Q 3._ C n  .^ ! [ R 4 N P 9 +.K S E R S  .,.1.&.O.Z & M M 9 Y F <.%.:.' ,.' F Q ,.5.f j ",
"C 0 { ! X.H , , # , X.^ / E f t g 5 K I H :._ c t R [ [ H l e l H 9 ( ) ! N l R _ ;._ [ I s 5 ` G f =.=.%.| } Y Z -...} %.o.M f ",
"L 7 H M f e , 6 , e E R H G k z g > e G A T I b t N o. .R H e D D ; D ` H l u f a e g t t C t #.U s 5...6.9.:.L r F ,.o.W o.Z c ",
" .i c A B e t N d l l S l V l g g d 8 N c F ~ _ t S / ^ H R u c K 6 a g D l 6 m t B D m t b q 2.$.5 ! L Y Q ' ~ H F / o.| ,.L s ",
"/ 7 0 t f t 7 C V f s e w t t d w 6 , u 1 7 7 L b H k J / D e l H 5 < , , 6 e a l f 9 f N s q L C t ~ n r Z F } } J Y o.' ..J k ",
"G w / _ o.o.I t k E _ R F R / [ R G N S ! / ! t i J J R R c ; D D 6 K B f a l 4 e 2.0.#._ _ q I C f @.~ H / | Y / | ..o.' ..v x ",
"n i ^ _ O.*._ c S  .&.[ ~ J { } W J I ~ | o.X.b c W / Q D S e D P t ` H ^ &.R e 4 1.8._ ! ' 4 N f H 9.e.,.-.' / ! &.X.o.} 5.b c ",
"J r X./ | *...f P / X.X.} J X.} / J F G ~ X.I G H _  .}  .[ f m D 6 ` H J >.{ 6 7 I #./ ,.:.7 f t 1 h ..9.O.6.#._ S W W ' o.x B ",
"G 0 / / ' [ } b H _ X.} ! } *.;. .J J _ } } ~ 7 s _ 1.*.X.#.l K C 6 #.! G  .[ c N #.q.,.:.7.g m m 1 c v *.6.3.| r ; G } Q } b n ",
"n t b J F ~ ^ k c _ _ ! G J ! W / ! W ! J I Y 8 2 F L H G D c c G t f c c b k e s T 1.) Y T N N c 9 B J | o.%...~ o./ ..<.O.c f ",
"f t C B S B b c s 1 6 > 7 4 ; ; 1 1 4 > 1 1 4 e e 1 7 7 , 6 4 c D S c u u w e u e > u q 7 s 7 d 1 5 ! :.o.%.*.} %.6.*.O.=.3.f t ",
"b I @.#._ D c N @.U E G N C P N m V G ( I _ ` I ) D _ ] _ E K { P ^ [ [ / O.[ P +.t j G ] ! U _ C - c v F u c J B x } _ W / 8 B ",
"H c e 6 1 % ; ; k f l l u l N )  .m G m c g s 1 s f N H C B c c e 9 7 u u s f f f > a s 7 t c ` ) 9 _ t , m P R J i s ! U H 1 c ",
"g t S I S N l 6 2 k c b G l , C C 5 s 5 q f B f g u t f k c i t u c b V B m g 8 < 1 t t x B s H C f 1.N w S [ / &._ g B j g t t ",
"n u X.;.*.X.I B b ^ R R ;.o.w P G 1  .=.} o.1.o.o./ Y ..*.,.X.B R  .| } *.1.o.c A ! *.*.7.*.f ~ I v @.! k c ! _ | } ) 7 + d 9 K ",
"c h | J [ ! W c v n R R [ X.t K C 1 o.%.' o./ O...%.~ } / ,. .v L X.Q J o.:.8.M Y *.=.,.5.5.s ~ L c ' W k I X.I } o.X.W 7 D e m ",
"c 3 / '  .R l t k  .R ~ #._ t V M 2 ..' O...o.-.| Q v ' ' ' ] c W I ! X.,.%.' n J %.' Y ..~ f ! I b q.T T ! ! >.} ../ ~ J #.b t ",
"n f o.! ^ [ D k b [  .o.| _ u B G 2 X.,.O.| W O.%.*.T ~  .] #.L I W  .:.o.8. .M ! 3.O.*.X./ u  .! f :.u m f   #.-.! } | o.5.N j ",
"b f ! I G U P f k S ,.-.*./ u l c 4 W ! n W R ..' o./ t c b m I _ Y H T H F ~ c Y I | O.1.;.t ) I l 7.M U C a 7 [ } *.| 3.5.F b ",
"_ 7 j t s t 6 a t H ' ..4.5.w l L > f u k r i n Z F c t s A b F T c s q q t e I n ' W Z #.X.e R ` : m a K f q j ^ I Q v ~ %.u I ",
"C 2 b H b G f a l ! _ &.4...w N K > c g c F m B K b t u b b n h j v c f 9 t 8 B B %.Y G G / t D D % e e B _ %.L G ! J ~ Q / u u ",
"F 7 E  .1.#.I 6 e c b G o.! 2 D c > #.#.A b I f s R  .} ' O.,.,.o.} X.W c K m 2 v X.o.! , S s N e , P P { { / I u x k *.0.,.f b ",
"F t L F Q / R r w V W B H S , P C 1 +.*./ v C j u R R *.o.' o.X.' / / N N ! F b L #.q.} H _ 9 K l % / ~ W Q A ! ^ W G v 3.5.r G ",
"k k &.G S W / i B / } ~ S k 6 P L 1 @.*./ ' G M D X./ [ | Y ..*.%._ [ [ R G G g L _ ! s H P 1 I m , 5.5.{ J I Z ;.5._ Z x ! 0 c ",
"S w X.| ~ S R b R  .} } S H 6 G I = R >./ ! _ j f { #._ R f J X.R F c R ! E ! N c c c V P D ; V N & _ *./ / G B s ;.#.4./ _ e s ",
"H k o.| O.~ Q x S -.! X.2. .t I E , e z G B K 8 - P &._ H k I ( I L N g C I ( l 7 8 _ ( N N t V V - / }  ./ _ B ; ~ X._ _ } k c ",
"N w ~ ' [ O.4.b S X.d 9 m D ; D ! f l 6 6 6 4 1 - % > , 1 , 4 , 1 > > & - > > 4 ; : > 4 4 6 4 N C ; 7 t e 2 7 7 , ; 1 2 7 2 6 n ",
"I 3 n b r w u R ~ w = % + + # 7 m G D a I ) D P _ N g C H C I D C B I I I U A L K g g N G N P E H c 7 9 I ^ _ ^ { P N g ^ ^ ^ R ",
"_ 1 I G Z x u n c & - & 9 4 + 8 U : * - > 9 7 l A 7 5 d g d l _  .l H P m s g 7 t e t e l l d l 9 7 , = 8 d s g C a e 9 c J A _ ",
"H 2 X.7.*. .' 1._ ^ k D 2.L % = < < f 9 e k f 1 9 m N s t C f l H e f 9 D P M 4 t 3 1 e f g e 6 d : 6 > p a d 6 , s N g c g s A ",
"A t _ F G x / o.} / F F P 8 + 8 6 * l G R [ E l I o.,.:.H E c D C 7  .P ! 8.%.y W H R o.I G N t D H E a d E ( a a E #.9.:.o.j G ",
"F y W k / r O.,.} O.} F I I 4 V d > z / E c G c I ;.<.*.J B t N H t ! H L ,.1._ J W Z O.&.>.S w u ) @.t = g 8 d C { _ *.q.%.s j ",
"c s  .R o.Z  .r./ ' O.-.1.~ 8 P z 6 ( G B H D t H :.%.%.o.I t I ! 7 W W O.9.*.' Q O.O.<.8.&.P d N b W u e +.g 9 g z K R =.0.f A ",
"K t { R ;.T f 6.-./ 6.0.1. .e G V 6 K C B I f a L ,.| O.*.,.f c F 7 w.*.G =.<.O.Y 5.| ' O.#.E g g C ! W H #.U 4 a E D ^ H / f M ",
"H 2 I X._ f J J 3./ O.,.;.! e z c 4 g N N U L 8 c | o.:.| #.k l C ; S n t Y Y Y v Z J G n F P l m m c d g U K : > d a e c c s m ",
"I 7 l m C 9 h h Y x 1 7 G D 6 N K > 9 u e d l B u Y / / *.o.s D _ 1 g Z n Q Y n n G F b c N l D ) c f 9 s c K m * = 6 c ! L 9 9 ",
"m a b 9 5 4 5 K J c f 7 s H 4 < 9 8 k e , 8 ; s N W F Q / / 7 N E 1 f x y h x s L c g c w a u w k x t ; - 4 t 4 6 d 7 :.#.F 7 9 ",
"d 8 _ U e N K c F &.5.#.f N d d d f e.>.G F E s N ^ G ..| Q 1 f N 7 _  .....X.t n #.E I P c  .^ J ! [ I b ! K 6 4 m _ 5.*./ 7 c ",
"B 7 Y Y t { ` l J 8.4.*.J c , I C <  .*. .G W c I / n G ;.O.e N B 3 ! ' / =.#.2 r I !  .S , X.*.} | X.o./ R N 9 t _ *.o.*.o.c c ",
"G t ~ ! G ` ` c W W } >.1._ ; ( ) 9 K I  .G ) c F J b r ..X.t B H t I O.*.8.=.7 r S N #.^ ; u } *.} W Y I H B s c X. .Q %.o.n A ",
"L B 8. .L I P 4 k R c G ) @.: d V * , K _ H w f k I J / ' ] j s N f O.<.,.<.,.g B / M f E k X.5.| } W /  .G c 7 c  .,.5.' ] j U ",
"h s U _ ) D f 4 a { a a l D # 8 d O - V ) ^ e e C X./ } q.%.a M C 2 I ! F n G u s L G e d 7 N ! H I W ! X.U U 7 5  .;.o.%.#.M M ",
"K m c f 8 4 8 4 : # * , % + X # * . * G R e , f G ! Q G  .%.9 c M k l c J S N b b 7 5 6 6 = & ; % = > 6 > ; - = - 7 t 7 9 s s C ",
"` ` { ) ( z d p E l z 8 d < < < * # 8 e k f 6 t I i v j h M t ! L I E  .1.{ ^ W 5.I U ! I B g C G K c N H N u U _ G ! K G K K ;.",
"e a 9 7 < = - - < , a 8 e 4 < z p * a < e k k e u b c n n F 7 ` E c f 2 7 q 0 s H d u c f s g g N B m e c u 8 d B N H A A K N B ",
"t s g C m g e = % * # - 6 8 - K V O ( I f V P R { / R 5.6.*.f G K w w G L M Z s u n G J ! G t H a ; e f u s e 7 9 t 2 0 8 u j q ",
"N H H  .&.@.E > , p p p E N > K D O V { d D N E | R R o.} } k ! G ; B ,.8.0...M Z  .%.%.e.o.u K l , G [ { X.} W / ~ _ ! F Q _ Z ",
"g L G N I t l - e V d z z p , V l ; D z e R S c [ ' Q } b G u ^ I 7 _ / 6.-...Z L _ ' *.*.} u R D # I [ X.R J O...' <.| Y Y G f ",
"c d u K H t = : 9 z e V g 9 < C d > V C D N k l l  .X.' / ..i ! I ; t _ ,.o.Y n L %.o.%.>.[ u ^ I & B ) R ^ W O.O.| / o.Y / Q B ",
"C I H _ { ) d 9 8 e V D g 8 > g e : ) E E D , K R b [ X.>.,.f  .E % l _ q.w.o.n H 3.o.'  .u w S l , E ! P S c ;.:.%.#.%.' O.} G ",
"F ] _ _ ) U C : : = m V f 9 > 8 p , P V  .E g K S u k E R R e { I $ s g ! #.! l C ~ F s B S d z N ; l m I p w  .....Y W ! P ! B ",
"o.G c f c a : * : p l z V d , a K , d l l , 6 6 8 t e d S H 6 ) $.8 9 8 s 7 7 B c c C R G P , V E < m D c 7 7 c C M b f b m G E ",
"z k 6 % * , < d 8 4 d K E e , V K , f l a e e 6 f p l a 9 s 4 g K q 8 9 a s s f f S b H R t - k d ; b v s s t G T s t w f u f k ",
"l 9 k 8 d e z z m g V a z z , m f 2 ` {  .X.! f l P K m H E 7 K ) 6 ! C f ! H c N G R H k 2 e l t ; ,.,.|  .~ n M K _  .>.^ f S ",
"P 6 9 V z < V d N E { f a z , g f ; _  .[ / R c l K p e ( K 6 m ! t _ m H [ C s f G @./ E G e K B & *.<.<.*...F H Z I ' o.} R [ ",
">.H k z 9 D t < g U { e f V 6 l N & G / H H b l z U K f _ L 6 U  .e ( g - { I c e S &.R X.R < E C - 8.<.*.*.! h B ~ I G H R J &.",
"H c H P E E V * 8 R H G [ { 6 V V ; G ! H D c 8 g E l V ! ` d N ` t f V f c { k z S _ >.P e 6 I D O { 0.,.,.~ M I &.[ &.' H Q R ",
"u N K m R N d * & < 6 B E D t G N 2 f D f N l a d ) D V B H c m +.q N ) ) m D t d E u P X.z , m N 1 u W W W m c N } { / H c F n ",
"- > 1 , , < < 8 < $ % # % < 2 ^ R w u 2 1 1 < 4 > > > , 1 6 6 s K 7 f f 9 d H c d l e e K D , f l 6 t f e 7 4 2 1 , 2 , , , & & ",
"c K ! ) E R R ) [ D z 8 e d D X.{ H H R G c K C P 9 4 a K K N m m s K c s e d _ ` e k z l d 8 N K U C U K H N V _ S P P E D m u "
};
