/* XPM */
static char *_431440c399b456a8a993cfa22bd4a58[] = {
/* columns rows colors chars-per-pixel */
"64 64 24 1 ",
"  c #715133",
". c #7C5937",
"X c #7C5B3A",
"o c #825E3C",
"O c #85613E",
"+ c #8A653F",
"@ c #815F40",
"# c #856240",
"$ c #8C6641",
"% c #8E6843",
"& c #8F6A48",
"* c #946C45",
"= c #986F47",
"- c #966E48",
"; c #986F48",
": c #967047",
"> c #997147",
", c #977049",
"< c #9C734A",
"1 c #A1764C",
"2 c #A57A4E",
"3 c #A87C4F",
"4 c #A67B50",
"5 c #A87C50",
/* pixels */
"33255353333253<52322233153133313333333333333333332>2332555353323",
"33=23315334:12<323,>*33>5113331133333233333333>132<<331<133333&3",
"33*133,5433$>23323%>%33*122333<*33313133335333>,2312<2>-<33513%3",
"33;232*3435$>33322%2%35%133333<+333131331333331*3311<***2334:3O2",
"33>333%3333#>53311*3%33+<33333>%33313>3325533,3$5233,%,$5533*3O1",
"321333*4333+>333*1>3*33o133333*%533<3:3425553<3O5133%5553334+5O<",
"4<3333:3333&<3331113=33o<33335*:533=3*552553331O33111*+,3334O3O>",
"4<333313335*13351>33>33o133333*<332=3%=5>5<355;+33512,5<3332O3$*",
"3<333333334-53332<53+53.133355$4<44<4%<3*5-531*$5353<1*2<333#3$*",
"52333333335:5333>,53%53.233352$5:53,1*53<5*33>%$43321*,1*333$3*%",
"32333323333:3335$>52=33.233352*2133:2*3353$33>%$=33>552<>333$2*%",
"333333>1433<533<$=52<35o333332:<335*<<<335%33>%$%232*11*1333$2*$",
"333333<1535,333>**51113X3333331>331:<<<333>33,%*%1321,%*5333&1*$",
"33333331133<3332*%3>*11O3333311:533,,12325533>%**<525<*23333%<*$",
"33333351<53<3333**3,+3<O3333312=533,>1<3=5533>*;<,223>*33335*<*+",
",<335551=55,3333%*3>%3:+3343313>5334=1<3;5333=*=<**23=$23335:;$+",
"<:333341$33>5533**3,15*%323531315335=2,4,3333>*><=%31>%13333>=%+",
"<*333341o53>3333;;3,31*=3325313<533<<5*1<3553**,>*$21=%11333>=++",
":%333341*53,33532*2;55*=3313323>535><4*-<3153>*2**$1<%%1<>33>*++",
"<*3335<1<33<33335*2<55*13333311*3334<2-$>3,33=*2+*$11%%<<>33=*++",
"2*3334:1<55,5333,53155%15513311%233352>o*3<33*,5+*O<>**<>535=*++",
"5*5333*1<35<5331>53355O1331333>+<53332>o,3*33:23=-O1=%*<>333=%++",
"4<3244%1:33,333,333333O2331335,%<33332,O,3*33*15=,o1=%=><331*%++",
"5<5<5<*2>33,3332222333%213<311,>133233,O13%33*25=,.2=+>>>55*>%+%",
"543<5:*5433,3335%>3233%323<313>1133:331<24O32*55>1o2*$1><33**%%$",
"53333*-5533,1313%<2<33%333<3>333333%533<22$35=35<5%4>%3<233<<%*%",
"33353*<3423,=555<*>132%333<31333332+433131%32=33*5*2,$3<33311*=%",
"33325:355<3,*531<4413<$333<31133333$3132<<%31<32-1<3,$31333<5%1*",
"331:3133315,%53<21<421#333132233333*2<33><>3>2332>25<$33535<2*1*",
"33224454335,%53*<24,<1O335<3255<333<2<<45=><>2332*25,$3553515>1=",
"3314333<433,%55>&<1,>1O333<32531233<4<<43>;>>3333*451$31253<312,",
"3314533>453:%551$22&,1O333>3>531112:33<15<,1,3333*>55$31553<3311",
"55<53331335,+555<;;$<1@555=2>5311<5,131<5$o@%3321:*42&21255=5521",
"55<13333535,*515<<1111@255=1<3332<3><32>2 O%$23<=:*52%5<224=5551",
"5<<,3333>53<*212121;51@255=1<3334<5,<35>< XX-%32*:151%3<2;5*3552",
"31<<3353=55,$2,1<45><1X133=<>5334<5<*33><X&o$O54*<552%3>2>5=3555",
"3<,<3513=55<+4=2<154><o153=>>551333<*55*1.%<oo13<1335*5*333%3133",
"3<:>55>11551$3*5<1411>.>53>*=3515321%55*5O.$+.1354233-3=253*3>53",
"5<*:55>>3551%3*42<415*o<53>==55155<5*35=2,X.*X1352,33:52253*5<32",
"3<*,33<*3331&3*,5,212*.>55===35<15<5=3315%-*+O2352<32:53333*333>",
"3<:>33<%5<51<3*15=>13*.<33=*<3311333<33331*$**552255>,33533%3331",
"3<*>331*5,33<3*33**,2%X,33*$=521>333233333,*><55>335><13332%3333",
"3<*<333<5>3333*15,*;1%X=33=o=331<3333333335<%233<5335,<33<1*3333",
"3<:1333<3,3333>>5,**1%X:33-+>221>33<3333352$><5355335>,5322&3333",
"3,*533315*3355<25;*=1%X-25;1<1<<*33>5533355+>=5333353>>3335*33<3",
"5,:533335>33=523<,%*<$X=15<111=,*33>3533355=>=3333333>>3331*53:3",
",<*533315*55<533*<*=1%X255<2<21<%33>553333<=1*3332533:<3332=3<33",
"2:>3333,5*355535%1*>>%X35522>53<%333>53123,>2*533,333><1333,3,35",
"4-*5333*5:333333%1*<>*o2331<<33<%335<33>53>*2,333<253=*>332<3,55",
"5->5335,5*333333%1*1>=o<333>,35<%233333155<%223333,13*1,222<3<33",
"2->5333<3*333333%<:2=>o<333<<2<<+<333333353>433335<13,3>22215>33",
"<;*533333>335333%<>3=>o333311<<,%2333333333,3333333<3*3>22223<53",
"<:+555333:333333+1<3*2@4<3351<5$%5553333353,3333351<3:3>21233<33",
"<,*5553331333343O*13*4#4<3331><$%533333,233,3533351<3*3,2<233>35",
"4<,3233332333333o>33*5X4=333::,*%335333<533,323335<>3*2>25355>33",
"52,33333:3334333X433*3X2*33313<1*3333335533-3>5533<>3%2%55535>33",
"32,53333,3333353X333*<#2*33334:2>533333333<-3,5333,>5%1%55333=25",
"52<4333353333333X333=<$2:33334*3<53<333353,*332333%>5%<#53333=35",
"52<3353433333333o233><->=33333*4333<3313334*33=233,<3*>O53352*32",
"32<233,3<3333333O333><:,<333352333315313333=331,33,<3%*+33333*35",
"33<13313:1333353+333<*,2133335:3333<1323333,332*31=13**%35133=25",
"331>45332$3335<5:3332*<2133333<3333<>323333,313;5<*13*>*35135>55",
"2<1<43333O3333>3<3332323333333>33331<35533523-3231213*1133135155",
"123233333:333333333333533333332333333355325332333333313133333255"
};
