/* XPM */
static char *_684a33efacf4513c628d82c93ea2fcc[] = {
/* columns rows colors chars-per-pixel */
"64 64 256 2 ",
"   c #3D1516",
".  c #3B2723",
"X  c #38211B",
"o  c #4B1412",
"O  c #4A1A19",
"+  c #541B15",
"@  c #541C1B",
"#  c #5B1D1C",
"$  c #571716",
"%  c #481010",
"&  c #631D1C",
"*  c #671B15",
"=  c #761C16",
"-  c #6F190E",
";  c #54221D",
":  c #5B221D",
">  c #5A261A",
",  c #4E231C",
"<  c #64221C",
"1  c #6B241D",
"2  c #6C291E",
"3  c #66261A",
"4  c #73241C",
"5  c #7A241C",
"6  c #73291E",
"7  c #7B2A1E",
"8  c #792115",
"9  c #6D301B",
"0  c #5B1E22",
"q  c #551E23",
"w  c #4B1E21",
"e  c #641E21",
"r  c #4A2826",
"t  c #542223",
"y  c #5C2322",
"u  c #5C2B24",
"i  c #572A28",
"p  c #58332C",
"a  c #593A36",
"s  c #4C352E",
"d  c #632424",
"f  c #6B2523",
"g  c #632B24",
"h  c #6B2A24",
"j  c #642C2A",
"k  c #6C2C2B",
"l  c #66262A",
"z  c #732622",
"x  c #7B2622",
"c  c #742B24",
"v  c #7B2B24",
"b  c #732C2A",
"n  c #7B2D2A",
"m  c #73262A",
"M  c #64332C",
"N  c #6C322C",
"B  c #683327",
"V  c #7B3325",
"C  c #73332C",
"Z  c #7C332B",
"A  c #743A2D",
"S  c #7C3A2D",
"D  c #713127",
"F  c #633432",
"G  c #6C3332",
"H  c #683C38",
"J  c #743332",
"K  c #7C3532",
"L  c #733A34",
"P  c #7B3B33",
"I  c #783C3B",
"U  c #6B2D33",
"Y  c #5A433C",
"T  c #49423B",
"R  c #7C402E",
"E  c #69433A",
"W  c #75433C",
"Q  c #7C433C",
"!  c #7A4436",
"~  c #713B43",
"^  c #5E3E41",
"/  c #5A4B48",
"(  c #595657",
")  c #525150",
"_  c #6B4543",
"`  c #684946",
"'  c #734544",
"]  c #7C4443",
"[  c #744B44",
"{  c #744C4C",
"}  c #7B4B48",
"|  c #6B524B",
" . c #79534C",
".. c #674E53",
"X. c #6A5856",
"o. c #785957",
"O. c #774E52",
"+. c #79635D",
"@. c #69625E",
"#. c #765D62",
"$. c #5C6567",
"%. c #6A6868",
"&. c #7C6A64",
"*. c #786867",
"=. c #7A726D",
"-. c #6C7777",
";. c #7C7C7C",
":. c #777776",
">. c #706E72",
",. c #851D14",
"<. c #86281C",
"1. c #952C1D",
"2. c #822C24",
"3. c #8A2D25",
"4. c #832D2A",
"5. c #8B2E2B",
"6. c #832623",
"7. c #932D26",
"8. c #83332B",
"9. c #8B322A",
"0. c #8B3B2D",
"q. c #863527",
"w. c #943324",
"e. c #93332C",
"r. c #9C3B2C",
"t. c #98362A",
"y. c #833B34",
"u. c #8B3B34",
"i. c #8C3D39",
"p. c #843635",
"a. c #923B34",
"s. c #9A3C32",
"d. c #963835",
"f. c #882C31",
"g. c #A23B2C",
"h. c #A33828",
"j. c #A33D34",
"k. c #98432E",
"l. c #834335",
"z. c #83433A",
"x. c #89473A",
"c. c #934A3C",
"v. c #984637",
"b. c #8B4732",
"n. c #A34C3B",
"m. c #A64637",
"M. c #AB533C",
"N. c #A3432E",
"B. c #844C42",
"V. c #894A45",
"C. c #964A44",
"Z. c #895448",
"A. c #985548",
"S. c #845C5C",
"D. c #8A5A55",
"F. c #965A56",
"G. c #A54D43",
"H. c #A85849",
"J. c #B15645",
"K. c #A55C56",
"L. c #88645C",
"P. c #96645B",
"I. c #A8654B",
"U. c #B46255",
"Y. c #A66359",
"T. c #8F5F61",
"R. c #836562",
"E. c #8C6B65",
"W. c #876A68",
"Q. c #986A66",
"!. c #88736D",
"~. c #97736C",
"^. c #896E73",
"/. c #837372",
"(. c #8C7B74",
"). c #847B7B",
"_. c #8B7C7B",
"`. c #897576",
"'. c #937D7B",
"]. c #977875",
"[. c #936F71",
"{. c #A46A65",
"}. c #A7756B",
"|. c #A67B77",
" X c #B47B75",
".X c #C17773",
"XX c #7C827C",
"oX c #88827B",
"OX c #97827D",
"+X c #B5837B",
"@X c #A3857C",
"#X c #C68379",
"$X c #797D83",
"%X c #6B7B82",
"&X c #897D84",
"*X c #957C80",
"=X c #798385",
"-X c #7B8C95",
";X c #848B8C",
":X c #8C8D8C",
">X c #888585",
",X c #9B8A85",
"<X c #948B8B",
"1X c #9C8C8A",
"2X c #958785",
"3X c #89918F",
"4X c #94938C",
"5X c #9B938B",
"6X c #898D91",
"7X c #9A8E92",
"8X c #8B9393",
"9X c #899599",
"0X c #939494",
"qX c #9C9493",
"wX c #9B9A94",
"eX c #97999A",
"rX c #A68B89",
"tX c #A5948C",
"yX c #A39A94",
"uX c #A39B9B",
"iX c #AC9C9B",
"pX c #A59795",
"aX c #B19C97",
"sX c #A98F90",
"dX c #9DA19C",
"fX c #A4A39D",
"gX c #ABA39D",
"hX c #A9A69A",
"jX c #B6A79E",
"kX c #989CA5",
"lX c #8B9AA2",
"zX c #A49EA4",
"xX c #9CA3A4",
"cX c #9AA5A5",
"vX c #96A8AD",
"bX c #A2A4A3",
"nX c #ABA5A3",
"mX c #ACAAA4",
"MX c #A7A9AA",
"NX c #B3A5A4",
"BX c #B3ACAB",
"VX c #B8ABA7",
"CX c #ADB2AD",
"ZX c #B4B4AD",
"AX c #A8ADB3",
"SX c #B2AEB2",
"DX c #ACB6B6",
"FX c #B7B8B7",
"GX c #C98C85",
"HX c #C3BAB8",
"JX c #D9A49E",
"KX c #B4C4BF",
"LX c #B9BDC1",
"PX c #B9C7C8",
"IX c #BFCED3",
"UX c #C3CACE",
/* pixels */
"wX4X<X:XxXwXMX9XNXqXfXgXBX5X(./.(.*.;._.R./.!.`.OX'.!.&././._.1X~.L.{.Q.{.P.P.P.{.].|.4X).).=././.=.#.R.+.+.#.%.2XR.+.+.E.R.[.!.",
"w % O O 0 F SXpXU & @ t [ k # y u r %.[ 3 h A L A j f j M u ` ~.Z q.8.p.q.d.9.v.9.0.v.@Xr w t ; y j i y q d t X.[.b N f A l m 2 ",
"$ @ # : d l LX_ : & $ % 0 ; + < > i +.j f m N F D l 1 d C h ' ].9.4.v 9.9.9.8.d.3.d.d.rXt w , @ @ # y d y d 0 o.(.< 2 f D : f & ",
"# q e d # e PXH & & # + # # # & y t >.M d 2 S V c f 1 B C b O.'.q.4.q.3.3.3.e.2.u.5.d.tXt t o ; ; @ 0 # : : @ _ 2X1 3 b j 3 < & ",
": $ # # < d PXJ e & 0 O # # & # t ; =.j l m P A V f = h P C { &X4.V n 3.e.9.9.9.w.7.x.tXr O O , q y y @ : 0 q ` 2Xf 1 f b < z & ",
"# # < : j ~ IX@.G k k H d & g @ t w -.R.j f Q R L k D N Q L S._.I D.P.i.0.i.P 0.p.i.Z.qXs r u F u j F u u j i +.1XW 2 W I h N h ",
"%.*.:.oX>XdXIXDX8X>X8X7X:.:.=./.=.oX0X<X>X>X).).( ( /.;.>X2XzXuX<XuXzXwXuXqXiXfXfXfXnXSXiXqX5XyX4X4X2X1X1X2XtXfXnXpXyXqX<X5X%.qX",
"tXL.E.L.E.W.[.|.].E.W.sXZX[.Z.c.u.i.V.i.V.i.] [ &.`.[ B.} H } W I H Z.] +.yX`.} W ~ H ' [ _ ` { O.^.OXG C ! C P x.V.Q I l.] 4X`.",
"R.* $ e < g l U l l & ~ NXK 3.9.e.q.0.8.K n n U { !.b b h A L z.h l K k b iXU y y j y l < y u y d { ,Xf 2 2 f 1 2 L D f 2 l MXI ",
"o.+ $ & @ # l l y d y | yXv 2.9.5.2.8.n n 4.n k o.T.b c h b C I h g b D C wXl < 1 e 0 d # d i d 0 { 2Xy < l f 3 2 D D h 1 h dXW ",
"+.$ $ O + 0 l e ; y > { pXc 6.9.2.4.2.Z Z 8.c J +.L.b v b C 4.c 2 f f b n fXl d y d # < d 0 i : : ^ 2Xl < l d d 2 D u g f d eX] ",
"o.$ $ ; + 0 e 0 # l 0 S.iXB.4.q.q.8.8.Z K K b U o.L.D n D h h 2 2 h m b b pXd d y : y # : y i & @ H ,Xd & h j u N P B h d k pXZ.",
"!.j i i N _ H H H ....W.BXE.A.A.c.z.Q W [ [ a p ( *.` { _ F j N F F H _ X.wXX.X._ _ ^ _ Y / | _ ` /.4X| E | _ E X.| / { | { bX=.",
"mXfXmXhXbXeXlX;XmXDXCXFXHXBX5X:X1X:.8XfXdXdX5XqXuXwXiXgXuXfXcXyXwXtXaXiXyXNXaXaXtXpX4XiXgXgXVXhXNXiXmXNXfXbXuXMXgXjXjXaXNXNXBXVX",
"Z.D.P i.V.D.iXQ.A.C.z.V.i.B.D.,XL ^.1X[ O.E L L b E I L k H 2Xp.a.9.p.9.4.3.a.i.v V.tXE.! ! C C N S N N N x.Z.hXI.n.M.m.m.m.n.J.",
"= = ,.7 ,.f.pXp.x n 5 4 z 7 3.7 7 ~.E.M i j 2 f 2 j B l g U '.2.2.c x 2.2.2.x Z 7 J mXD.6.6 4 z 6 5 4 z z 6 L aXA.r.j.j.j.g.j.g.",
"= = 8 5 ,.2.yXK z 7 5 5 7 6.2.7 7 D.&.N i u 3 3 f M j D f D (.x x c 5 v 2.2.v 7 v z (.T.7 4 c 4 8 5 z 4 4 6 4 pXH.v.N.j.N.g.h.g.",
"8 - - 6.,.n iXp.= 5 5 8 6.9.x 6.<.] R.k i ; 4 4 f N N h h k (.c c b z b m x m c c f (.D.6 4 z 4 2 4 h 1 4 c 6 yXI.m.s.j.s.j.g.g.",
",.= = 7 2.A.zXF.c x q.2.5 q.2.q.q.] +.M p ; 1 d h M j h j L ].z.! K D A A Z Z N J l oXL.f x D m f z z z m z 2 ,XI.H.H.H.A.H.J.J.",
": * * y k ~.9X{ F E E B.W L x.Q ] +._.a s a i Y s a s Y ` X.).| | o.X.| &.` | o.X.#.qX2X|  .S. . .E H _ o.#.!.mX=.o.&.&.~.D.B.Z.",
"fXhXaXyXhXHXUXFXFXDX4XoX3XbXfXmXwX0XeX7X:X:XoX;.;.=X=XeXeXMXeX:X4XdXnXmXnXbXCXFXFXVXFXFXmXmXZXZXVXDXmXjXVXHXVXVXjXaXaXNXjXiXzXAX",
"~.0.0.A.B.c.A.c.B.] W H OX` W { N j G B j M E G +.=.` E E a H F F M G } ] <X~.P.P.F.A.c.Z.Z.l.z.z.D.aXI.H.H.M.m.m.J.J.J.J.U.+X=.",
"D.- = c 4 V m z 4 f g , oXH M G l j g u B D A S Z./.G N M i l h h 3 f d g !.F.A.Z.A.V.Z.Z.! x.x.0.E aXI.g.t.h.h.g.g.g.j.N.M.|.( ",
"D.* - * f f z c 3 f B ; '.M h 3 u h 9 D A R R ! ! !.D h > r h f l = 2 : H OXP.0.2.b.b.Z.B.! C.x.l.Z.tXM.j.r.r.j.h.j.g.m.h.m.+X( ",
"D.- - 1 < g < f 1 < M u oXg 2 3 h g D R ! ! l.!  .!.u 2 y > B z 4 2 f h I &.Y.8.v Z 8.v.c.Q B.8.x.C.sXI.m.r.r.g.g.g.j.G.j.M.+X( ",
"F.* - & k E j g d : M M tXu h h D A ! l.x.Z.B.Z. .R.M g l u N 2 f f h G B.oXD.8.3.2.8.z.c.z.Z.V v B.tXI.J.n.m.N.n.m.j.J.J.J.+XX.",
"!.X.` o.+.2X^.| #.*.X.| dX).a ` E ` E ` | a Y a T %.` E ` _ Y / ` ..| a *.eX*X{ { { { { @.@.@.*.*.(.kX|.(.~.R.].[.P.T.!.L.E.'.:X",
"FXZXFXFXFXPXPXKXPXKXDXBXSXdXmXMXfXwX;X;XqX0X:X0XuXzXMXbXzXqX7X9X:XqXqXiXqXpXtXpXqX<XqXyXeXxXbXmXmXMXvXbXCXmXnXbXDXZXNXCXCXSXCXBX",
"> o o ; i NX>Xo.W E Q z.i.C.I.Z.z.P.oX].Z.D.W K L W W  . . .o.oXA.V.0.u.u.9.u.c.Z.u.e.A.zXX.s . p t r r w i w y 5XG c A D m p.6 ",
"o o o o @ 1X| , + y B 3 2.q.n.8.x V X.[.c x v 5 c 3 C ! j t p oXC.a.u.a.i.e.9.f.e.q.f.z.<Xr . . r y e 0 0 y # # 5Xb z m z 4 4 6 ",
"o % % o $ 1X| , > u u : z 2.n.q.z v o.E.2.8.x 6 z 1 c z.B u F ).C.u.9.a.a.a.d.e.e.2.9.a.&X. . X 0 y # q 0 # @ @ oXh z 6 6 6 4 8 ",
"% % % o o 2X` M M H p g 1 v k.0.5 x o.].v 5 c 6 c h C z.M i L !.H.9.e.a.d.s.e.q.5.9.4.C.6Xw p X w q : $ # : # : ).# v z x 4 z 1 ",
"O % % o w uX) p s Y p i c 0.c.q.6 q.o.E.q.c 2.b h 9 l.z.A j H =.Y.G.G.c.v.m.s.a.t.a.x.C.`.q F . i t y 0 d g & w ;.{ V 2 4 x c 4 ",
"p s s a a zX$X/ Y ..( *.|  .B.W W E >.2X}  .[ | { D.{ E a ` / %.!.~.~.Q.Q.F.F.Z.F.D. .^.-.@.X./ | ` Y a T Y Y *.wX^. .E [ ` H E ",
"bXZXFXVXFXIXPXIXIXPXKXIXPXKXBXwXmXmXSXMXNXhXBXVXnX3XnX0XdXxXxXxXvXDXAXxXbX4XXX-X3XxXAXDXFXFXFXFXFXHXFXCXCXhXFXFXFXUXUXPXFXLXDXAX",
"Y.G.G.H.{.GXJX.X.X.XGXVXW.~.F.v.a.H.G.C.v.s.H.A.v.].rX{.Q.P.{.P.F.Q.P.D.P.D._.!.|.S. .S.} ' I G W ] #.@XF.K.K.F.A.P.{.P.Q.E.E.uX",
"v.k.<.h.G.#XGXU.J.H.U.*XF F b 9.e.v.N.e.w.w.C.k.e.Q.}.0.4.Z p.8.Z 8.v 8.Z B.W.J c m c c f f x 4 f 1 ..Q.v 8.2.n 2.4.4.v n n K qX",
"N.t.,.1.G.GXGXJ.j.j.H.].@ y y v w.v.k.3.w.1.v.b.3.F.P.D 8.v Z z.c v n 8.8.x.W.Z 5 6 x 4 4 4 z 1 = 6 { P.6.v 4.6.v 6.2.v x v 8.>X",
"k.w.<.1.d.GXGXG.j.e.G.^.: $ 0 n 1.k.v.w.t.1.n.b.4.T.Q.S m 2.v K x 4.x V q.c.!.V 4 1 c 4 c 8 4 4 6 4 ..[.x v v 4.6.x x 5 c n n *X",
"n.v.7.7.j..XGXt.h.h.U.&Xt u 1 0.9.v.v.e.w.t.C.G.e.E.P.q.V 2.x 4.V x n C y.A./.Z x 6 5 f 4 4 4 4 z 1 <XW.2.4.4.v 2.c n 5 n p.J 7X",
"Y.K.i.{.K.|.#XC.G.G.F.>X~ ^ I V.z.Z.x.i.z.l.Z.C.K !.E.[ S.W P ! I S I ! l.` (.z.I C c v m n b U m k ).).V.D.B.Q K Z K p.J ] ~ :X",
"3X4XdX9X6X-XlXkXlXkXlXlX6X-X3X0X3X>X;.-.:.-.%X9XeXcXMX8X8X=X;.-.$.-.).:.XX;XcXMXbXqXeXwXeX0XdX).0XqXkXAXMX0X0X:X&X;X9X0X0X0X6XkX",
"R.W.,X).LXFX<X7X*X'.'.OX*XrXQ.].@X~.|.5XsXR.[.T.E.L.Q.~.!.R.D.R.:.o.{ o.S.L.R.&.S.T. .R.qX@XD.F.}.}.{.{.{.P.Q.rX,X0XrXD.F.Q.T.P.",
"U G j i ).S.U l H b J J j p.6.8.R z.b.(.B.B k k m k N x.[ W b F =.I h G C.x.g u u M j j =.Q.5.p.c.A.8.5.4.8.9.i.i.,Xu.6.u.n f.n ",
"U l U l /.#.g d N G p.b < c <.7 R l.z.(.b m h m z c 1 l.x.W c N :.b D N c.x.3 l A B d d (.P.3.6.a.v.q.q.w.3.4.4.e.].x.2.6.7 4.6.",
"G G K G *.o.d d m h U l h V 0.0.S R 0.(.J n f n f c f P W ! h h `.b z C c.B.k L l.k c d /.T.5.4.u.c.8.v b.4.6.4.f.*XV.v 6.6.4.5 ",
"g d h j /.o.g : h N 3 A V q.0.R S S 0.!.j m z b z l c ! W [ 2 y `.J m Z c.b.B A ! U f 2 ^.Q.2.2.b.b.9.2.a.f.8.n G.7X[.p.8.2.Z x ",
"a _ j t >XY ! } Z.[ [ G L c v C W ! 2 &X_ l A l f j d F E H r F $X~ M M  .R N M F p p H $X(.x.p.C.A.u.i.i.C.x.C.C.7X^.C K D b c ",
";.oXXX>X8X6X%X$X$X%X$.$.-.;.$X=X=X-X6XxXxXXX=X$X-.:.$X=X;.-.=X:X;X;X3X8X$.%X%.-.$XXX$X>X;X9X6X$X;.=X-.;.6XuX9X0XSXkXeX;X=X>.$.$.",
"F.C.K.F.{.{.}. X X*X[.:.MX*X_.2XrX'.].'.`.rXW.].wX,XT.{.{.+X}.K.}.Y.+X+X}.=X~.E.E.E.~.E.~.[.|.].[.OXxX/.W.+.^.(.'.'.'.'.'.rXqXbX",
"P.7.1.3.s.d.m.r.j.5.p._ ,Xm 4 z c z c n c q.z c `.D.6.3.t.J.n.s.G.s.M.J.U.2XC.y.9.8.i.2.n n Z.Z m ] :Xu d y l y c l z h 1 h `.<X",
"F.1.1.7.w.7.a.g.d.5.* ..,X= 1 4 4 z 4 n x c z z (.Z.7 <.1.M.N.w.e.h.M.M.M.2X8.v x 7 n c Z c c.V v C <Xl ; & < < & e < * * 1 R.,X",
"F.w.1.w.t.e.r.h.h.s.1 ` ,X= 1 5 4 2 v v x x 6 c _.D.7 <.1.J.N.d.t.t.M.m.H._.8.x v 2.c x Z z C.z 4 K qX0 # d & < < & * & * 3 R.2X",
"A.1.1.h.g.7.N.h.t.7.x ` rXe 1 4 c z m x x m c c &.F.2.<.1.J.N.r.t.t.M.J.J._.l.v v v x 6.v x b.v v K >Xi # : & < : < : & 3 < #.7X",
"F.1.2.5.e.j.a.d.7.e.C / 2XI m k b b l l b K N G &XS.b D 2.n.v.0.a.0.H.c.U.2XP.V.F.K F.q.A q.K.z.Q V.mXj p G F l N l j g j F oX<X",
"`.].wXwX&X;X=X6X;X6X-X=X9X>.$.) ( ) ) ) ) $.%.-.-X=X>.>.:.>.$.( %.=XXX:X;.6X>X4X:X>X;.*.:.*.;.).4X;XvX8X8X:X;X:X;.>.;.XX>X8XAXDX",
"E.T.Q.S.tXxX/.{ R.^.2X<X1X,X>X2X>X2XkXbXqXOX,XrXpX].|.].rX@X]./.zXzX7X2XOX_.,XrX1XOXOX<XAXLXtXrX1XsX,XsXsXrXrX>XiXFXAXVXgXaXwXyX",
"f & f 0 E.).i d y J d j h D < e O g ' _.x 6.D 2 V v 9.q.c.0.p.T.'.P P B h J A W A h < D 1XT.n z C b n n z.A & $ S.tXG b h l B h ",
"& $ $ # L.=.y @ y N 2 y u h 1 # o < f #.5 5 x 3 3 <.8 q.n.0.q.O.^.K S d m m D P A f z f >XW.d l k m 4 2 c h $ $ E 5X1 1 & 3 y & ",
"# $ $ # L.>.> O ; F : : u A 2 @   : & #.6 4 = : * 8 6 <.k.k.2.O.`.8.S f h b b q.Z & f 2 qXT.h * & & 2 6 h @ $ + E 2X* & < & + f ",
"# 0 $ e W.>.t q d k b 0 ; D 2 #   # : @.v 6.8 + 3 8 8 2.v.0.8.O.`.V S d g l C 8.V f l D uXP.x.P Z Z 0.y.C # $ + L 7X1 # & < y # ",
"G W i s _.&XX w s ` G i i W Z &   @ f *.K K D u & 5 Z 4.G.b.! T.7XB.B.G h k L z.z.k n C qX~.D.x.P x.x.! V.b d k #.uXL g j u M A ",
"&XgXmXbXcXMX9X9XcXkX;X%X9X;X;.X.( ( ..-.6X&X:.%.$./ =.%.%.%.>.lX9X%.>.X./ / / X.X.:.#.%.lXxX).*.@.@.%.=.@.:.).:.;X8X@.@.( ) T T ",
":Xo.W.'.'.]._.rX,XuXUXCXqXqXwX4X:X8X9XdXkXzXbXxXlXfXBXiXnXbXnXzXMXMXeX<XwXeXfXnXzXyXfXzXFXLXFXCXMXMXIXPXKXFXFXDXFXSXMXCXCXvXDXKX"
};
