/* XPM */
static char *dd880c1a1af84e88a256243ea3032531[] = {
/* columns rows colors chars-per-pixel */
"64 64 256 2 ",
"   c #161B0F",
".  c #1C1D0C",
"X  c #1C180B",
"o  c #1C1514",
"O  c #161C14",
"+  c #1D1C15",
"@  c #1C161B",
"#  c #161B1A",
"$  c #1D1D1A",
"%  c #161616",
"&  c #2D1C05",
"*  c #23160E",
"=  c #231C0D",
"-  c #2B1B0D",
";  c #2B150D",
":  c #32160D",
">  c #3A130D",
",  c #341C0D",
"<  c #3A1B0C",
"1  c #3D1F05",
"2  c #241616",
"3  c #2B1615",
"4  c #231C14",
"5  c #2B1C14",
"6  c #23161B",
"7  c #2C161B",
"8  c #241D1B",
"9  c #2B1D1B",
"0  c #331513",
"q  c #3C1513",
"w  c #331C15",
"e  c #3B1C14",
"r  c #35161C",
"t  c #331C1B",
"y  c #3B1C1B",
"u  c #3B171B",
"i  c #1E200D",
"p  c #162213",
"a  c #1C2315",
"s  c #1C2914",
"d  c #162319",
"f  c #1D221B",
"g  c #1D291B",
"h  c #22230E",
"j  c #2A220C",
"k  c #26290E",
"l  c #33220C",
"z  c #3C210D",
"x  c #232215",
"c  c #2B2214",
"v  c #252B14",
"b  c #2A2A12",
"n  c #24221C",
"m  c #2B231C",
"M  c #24291C",
"N  c #2B2A1D",
"B  c #322114",
"V  c #3B2214",
"C  c #33231C",
"Z  c #3B221C",
"A  c #342A1C",
"S  c #3B2A1C",
"D  c #372814",
"F  c #2A301D",
"G  c #3A3118",
"H  c #1D1D22",
"J  c #1E1E28",
"K  c #241D22",
"L  c #2B1D22",
"P  c #2E1F29",
"I  c #331C22",
"U  c #3C1D22",
"Y  c #351D2A",
"T  c #1D2322",
"R  c #1C2723",
"E  c #242322",
"W  c #2B2422",
"Q  c #262922",
"!  c #2C2A23",
"~  c #242429",
"^  c #2B2329",
"/  c #2C2A29",
"(  c #262C29",
")  c #332423",
"_  c #3C2321",
"`  c #332B23",
"'  c #3A2C24",
"]  c #32232A",
"[  c #3B222A",
"{  c #332C2B",
"}  c #3A2C2A",
"|  c #2C3228",
" . c #32332B",
".. c #2B2732",
"X. c #353334",
"o. c #302B31",
"O. c #43170D",
"+. c #431B0D",
"@. c #4C1C0D",
"#. c #521C0B",
"$. c #5B1C0D",
"%. c #581909",
"&. c #441512",
"*. c #4D1514",
"=. c #431D13",
"-. c #4B1C14",
";. c #431519",
":. c #4B171C",
">. c #431C1C",
",. c #4C1C1C",
"<. c #531C14",
"1. c #5D1C14",
"2. c #531D1B",
"3. c #5C1B1C",
"4. c #561617",
"5. c #480C02",
"6. c #671C0B",
"7. c #751D08",
"8. c #6A1B14",
"9. c #631D19",
"0. c #6B1E1A",
"q. c #661817",
"w. c #741B13",
"e. c #7B1C14",
"r. c #7C1C1D",
"t. c #751918",
"y. c #44250C",
"u. c #57270D",
"i. c #432314",
"p. c #4B2314",
"a. c #4B2B14",
"s. c #43241B",
"d. c #4A231D",
"f. c #442B1C",
"g. c #4C2B1B",
"h. c #542213",
"j. c #5C2314",
"k. c #52221C",
"l. c #5C231B",
"z. c #5B2A1A",
"x. c #562A19",
"c. c #4E341A",
"v. c #5C321A",
"b. c #51361B",
"n. c #64230C",
"m. c #67280C",
"M. c #77250D",
"N. c #652115",
"B. c #6B2314",
"V. c #632B15",
"C. c #64211A",
"Z. c #6C251D",
"A. c #622D1C",
"S. c #6D2912",
"D. c #742214",
"F. c #7B2215",
"G. c #74241A",
"H. c #7C231C",
"J. c #742A1A",
"K. c #7B2A1B",
"L. c #772A15",
"P. c #6A3617",
"I. c #7D3C1A",
"U. c #793418",
"Y. c #79310B",
"T. c #4C1D21",
"R. c #421C24",
"E. c #551D22",
"W. c #5E1B22",
"Q. c #6C1E22",
"!. c #442522",
"~. c #4C2422",
"^. c #452B25",
"/. c #4B2C24",
"(. c #4A2529",
"). c #532423",
"_. c #5C2223",
"`. c #562B25",
"'. c #493223",
"]. c #5B3727",
"[. c #4D2C33",
"{. c #642122",
"}. c #6A2623",
"|. c #752521",
" X c #762624",
".X c #693824",
"XX c #753925",
"oX c #724417",
"OX c #564624",
"+X c #6C4428",
"@X c #714726",
"#X c #7C5324",
"$X c #744F34",
"%X c #981E0C",
"&X c #841D1A",
"*X c #8C1D1A",
"=X c #861D14",
"-X c #9A1C18",
";X c #8E1F0C",
":X c #A81D0B",
">X c #B21E0F",
",X c #88250B",
"<X c #9C230B",
"1X c #842414",
"2X c #85221C",
"3X c #8B221E",
"4X c #8C2B1B",
"5X c #872917",
"6X c #932413",
"7X c #992413",
"8X c #9C2E1A",
"9X c #972718",
"0X c #853116",
"qX c #8D3517",
"wX c #983416",
"eX c #923709",
"rX c #A7270C",
"tX c #B62608",
"yX c #AF300F",
"uX c #B7350C",
"iX c #A42A12",
"pX c #AA2818",
"aX c #B62416",
"sX c #A63615",
"dX c #B63516",
"fX c #931924",
"gX c #872823",
"hX c #912A22",
"jX c #833526",
"kX c #983722",
"lX c #B03221",
"zX c #D31C14",
"xX c #C9250D",
"cX c #D5290B",
"vX c #C72514",
"bX c #D92613",
"nX c #D43B16",
"mX c #E42703",
"MX c #F33709",
"NX c #8A4717",
"BX c #91591C",
"VX c #AA5318",
"CX c #B2541E",
"ZX c #B1641E",
"AX c #9C4B25",
"SX c #8F572C",
"DX c #B35423",
"FX c #BB592A",
"GX c #A15323",
"HX c #A46835",
"JX c #B06C24",
"KX c #C1491C",
"LX c #D24A16",
"PX c #F4540A",
"IX c #E26410",
"UX c #C76D2E",
/* pixels */
"8 @ K 0 -.& G.r L.t.;XdX7.R 4 $ $ + f $ 8 8 4 5 n     L n m 5XG.$ d 4 3.B x n n $ n 8 m 8 $ 8 $ e.r M 4 C B.m ( m K.9 W ~ 7 x $ ",
"8 , 1.N.* 6 ;.d w pX6.fX0.* @ 8 8 8 4 4 $ n n 2 w 7 2 % 7 8.j.W 9 n v >.!.n 9 7 E n n n m n n 4 w.%.~ m x E.gXz v.h.W v W x v J ",
"#.}.2 * 9 8 :.@ 5 tX&.q , $ n 4 2 @ f n 8 8 4 $ n K q + 8 ;X$.E n 7 M 2 ).C M g 8 8 Q W m m 5 5 x -.U E f K |..X>.n W m 8 f 4 8 ",
"U.= K 8 8 n k.7 9 <X%.8 u $ + 8 8 +   O f n E K 4 @ n p : yXsX8 $ E n m >.Z 4 a W n m m n 4 8 5 = K p.1.r s.C.l ] a g ! # C ~.@.",
"E $ o a 5 o w O o HXNX8 > = O m w 5 = + 4 4 4 8 n 8 n 8 5 I.CX5 n n n n w ~.,.T.' C m n m m 9 8 w R e 8.m b l._ ~ P ] m @X.Xe L ",
"$ I T + n ) >.7 c a.CX*.,.4 4 8 d Z ).W.t @ d g n @ = 8 7 s.P.4 n 4 n g 5 m _.`.' m M n f E W m 9 ] n ) m A ) 8 b m $.iX@X9 ! 8 ",
"m $ 9 4 $ I &.,.f.[.dXw.,.I m n 9 t u w 5 @ 4 8 + f 8 K 8 j.v.9 8 m Q ) ) M t v A m m E n E W ! M N M m ).*.4.XXBX2XZ.S.m.L p E ",
"n n K R 4 a , m 4 x %Xe 4 x E 9 8 x x 5 x 9 8 n m $ 2 8 @ S.q.- 8 ) f L Q 9 n m ! W Q W n m A m W 8 7 M y A v.h.E C 9 =.1XL N 4 ",
"M B t W x 5 L + $ x 6XZ 9 m 5 f f 9 f m 5 m + E n n f I 5 T.{.* m ) + 8 ! x m C ! ` ` ! W ! ) m n M g y y m W 8 m W 8 C 4Xk M P ",
"E K c V 8 5 + 9 n $ j.gXm m 9 a m n f m e W.5 p 5 I > d.i l L.* S 9 ) f x C ! Y Q ` { ' A m m m ) ) >.t 5 m E E 4 8 4 4 A.,.5 $ ",
"* 9 I 9 g E g 8 w n w iX5 l ) n f m m x - Q.9.=.: n x + ) s.6XI c s.2 m L ) Z < ~.(./.!._ C t C t >.:.e x m n m n o 9 8 j E.C 5 ",
"3.7.,Xw K ~ - E H 9 w cXQ.) m n I 9 y W.&., =.-.S . K f 4 L 7X1X).B ) C 5 ) ) L A m A ! m v 5 5 x t B x M m 2 $ K n n 8 5 W.5 s.",
"B +.iXZ H m g t k 9 !.cX=Xt t C n m m C f M A w 3 5 8 8 4 K S.y.GX6.#.B m W n C n N W C m ) 9 3 t t 4 n 9 8 6 f 8 m n 8 m <.w =.",
"f n - k.C f k t  Xt Z >X6.A b L W f 8 m f 7 m y 7 W 4 m d z FX,X` k.Z M 9 ) M 4 m W / ) W W W C t m n n 8 @ 8 K g @ 9 P O x.(., ",
"9 K ..-.u b.JXvX8X:XzXcX8.t w 9 9 W m 9 8 8 g 0 f + 5 K 4 i.n.l.G.5 ! ~ / N Q Q n Q Q Q m m t >.u m I W 9 4 f 9 7 n f 8 4 J.R.m ",
"x 8 -.,XwXJXb.U =.k >.u.G.-.5 m E m p + 8 8 m B n m 4 I V.&.L K p.XXs.G ) )  .} m n 9 W W N m A N m Q n 8 n 9 W n 9 g m 0 F.7 8 ",
"u.kXJ.G.@.7 w $ K k @ k aX9XD.1Xk.0 M a + 8 7 n n n 9 y s.e 5 n ~ D SX.XG / { F F m { } ! / / L Q ! ] c 5 ) ~ m x P n B u F.w 4 ",
"4XB.8 $ 4 x V m E f 4 a.UX>.t M i..X}./.m $   L m c t w B 8 $ 8 M f ! g.#X#X$XS {  .` ` ! S c $ c 8 T E ^ C B V n 7 B W e %X0.1X",
"5 2 9 8 $ # 3 x M 7 E 9 VXZ W L N ~ m ]..Xz.d.w w m m n n 4 n f . m E W | G +XXXB.S C m n L 6 Q H x ` n n x ;.N._.O.9 a L.pXj.5 ",
"E $ 8 O $ W C m C / L 8 GXz m M ~ 9 m m f y }.& 8 8 K 8 n c t w 4 % R E m ` { X.} } { ~ = = W W @ 8 = 4 K C fX& = s.e kXM.' t J ",
"M 5 * + R E + 5 @.c m k .X0X+ f 8 n $ n = e T.Y 4 $ T 8 t Z Z 9 s.t 4 E E Q n a m ` n t y , k.5 8 # K m k.J.0.E 8 w S.lXN.) n g ",
"K E a n n v Z &X*.- {.,.!.HXj 7 w W u M d I w y.a a 8 8 8 E m 4 5 t 4 8 4 4 + n f + _.< 4 ;.+.SXqX0X@.;.p.c.. 5 B L e kXuXj 4 8 ",
"x 8 m 8 t <.{.j.W K 9 & J.F.4 m 5 a 0 t t < < 3 8 4 n $ 4 8 f $ f 9 4 = 8 n # 7 = r.8., >.>.u 3 4 o y -.* ,., = # = m y.nXj.m ~ ",
"E c v.1.:.Q o.m M 9 9 M G.5 E d $ 9 n C ;.t u 5 8 8 E E = + 8 $ 8 9 8 n O f M 5 l.s.8 m ' 5 d $ # L + e '.B 9 o K n n L ,X&X8 x ",
"_ i.A.%.) ` ` ) L L c t l.K 8 m 8 n x 9 e w 8 n f 9 I Q 9 n n $ 5 p.5 x + L $ p.t c 8 x n m 8 n + 6 x OX].y x H 8 E n m C.lXe E ",
"8.f.) Q.m m 8 E m x R l.C c L . n 8 4 m t t C 9 E C n f 4 M 8 5 z.C L = = I V a.9 n + n E 8 8 $ 8 4 * XXV 3 C s f 8 9 N Q 9XtXA.",
"W ! N Z.C B y m 8 m A 9.E ] 9 Q n 8 9 n f t y 5 4 f f N 9 $ 9 `.i.~ n f m 2.4Xf.8 8 $ n m E 8 8 K E 4 5X< m g.3 n M N N m 2.H.&X",
"` 5 n ~.[ j C W / >.|.B k P w g n 8 L n n m t w m ) ) / E x 5 B 4 E x $ W S.9X4 n n 8 $ n 8 4 4 8 f W u.K.$ d.$ T ! ) ! b >.W 4X",
"=X%X8X;X3X>XpX;XtXDXs.~ M t n 9 n W W f n m 5 e c Q ) ( } ` Z 9 x H ~ . 9 0X-.4 n n $ 8 n $ 8 8 2 x m 2 w.w m.- 5 E Q ) y N 9 0X",
") Z ].M.`.3.N.J.Y.NX` n = m ) f m ) Q 8 E M + y >.I W N A ' ' m n n L = m wX7 ~ $ n 8 n $ n 8 8 a $ E E =.kXVX4 m m R C ! W A _.",
"k N ) , f n M M '.@XM P 2 K $ f Q Q W m ) m + 8 ' i.-.>.m ^.~.Z W m f 8 n 6X9 8 n n 9 n n n 8 8 5 5 9 T.0.<XsXk.C S ;.e N m f.d.",
"/ } Q t ] a C { ^.@X9 E n 4 = 7 W m ` ! ! ) 8 $ W e $.r.m W ` N.`.@ M 9 8 gXm 4 8 n n 8 8 f 8 8 8 I.- Z B +.@.DXwXpX;XB.m } ^.a.",
"N m A ! } ` ! ` Q K.t 5 + L K $ L 9 E ) { n @ 4 m =.@.6XgXD C { _ 2 m p W uX;.9 $ f n f $ n d 8 /.I.c I m l.2.8XN.`._.l.k.n [ '.",
"W A _ m ' m ! N m &.5X<.-.- 4 * 4 A 8 n ! 4 4 8 4 _ 3.e.r.=.n n B E + 8 *.AXn 4 8 8 m n 8 8 + e >.* ~   ~.C.y.aX%X& Q 8 Z A ! '.",
"C Z Z C y m M n 9 Z 6.gX*.l t n @ ! 4 ) ) 2 4 + n W -.c F d.! / A ~ $ 2  XB f + 8 $ 9 n 9 m V k.9 H 4 m <.&.w e.vX1.7 8 c + _ y ",
"n n m c y C 9 5 ) O M ~.kXG.3X1XiXwXL..XV m m ~ { y V m } /.!.` N K g 0 =.$ + 9 n 4 E m 8 5 =.2.= E X I U.o # 9 A.X r 5 * y 2 N ",
"x 9 W m t m m n a a 2 k.u.5 =.).g.d.~.`.u t * 4 ~ N '  .) ^.` Q W n n 9 x E 8 $ n 8 m E $ 8 y &.$ 8 x t P.2 d 2 :.$ 5 c + 9 4 3 ",
"M n m n C c m n H n C 9X7 + 8 5 9 m ) n E M + f E C ! ! n ) s.m ` m 7 M 7 f 8 o f 8 4 n $ n y w n 9 I 8.c 2 2 B U 8 M 4 n m m 9 ",
"C W E m Z B n n 3 h 5Xe.n 8 @ 9 w A ! M | Q + 8 2 % o m m { ` f.` 8 W 8 8 9 f 8 n m n 8 f n t n 4 8 T.=Xa 4 K 9 u 9 ! Q C ~.c x ",
"N W n m s.Z t L 8 g.w.x n 8 z ~.7 9 2 W ) ' E m ! ^ + + Q  .[ ' V E x E N 8 n n 8 E 8 5 n 9 Z m L 5 h.m $ ) r = n e m W 4 m N ) ",
") ( U s.J.H.c L i.}.9 $ 5 p.+.t 4 8 n 4 L ) 8 m / A m a ) F M I B >.n n W m C t W 4 n m M 5 Z V =.hXM.=.9 5 O a = 9 d.i.e f _ m ",
"f.V A.D v w Z.P.DX@.p.R.: 8 E 4 E f a a M m 8 8 { ' m r 5 S ' 9 + 5 a @ E m C >.Z p.*X-Xw.D.7XwXI.qX=.R.L 2 a 6 n $ o _., m c k.",
"C n W n l &XB.A.z M m y 8 d P + + 4 W ~ E f n x v A y I 9 8 8 % 9 ;.w 4 + a 4 n 8 x C t f E t 9 C B U.gX0 + 7 H $ $ 7 >.*.e ~.k.",
"u 4 C -.3X=X@.}.E.m : f V ) s a n $ 8 n n 8 8 @ 7 n >.4 n 8 8 / + t y 2 a 4 @ # a n n f n x $ 8 J n f u.pX@.8 8 O 8 $ m 4 4 m y ",
"<.<.g.i.U m m b I h.wXe ].x.].^.m M M ! m 9 ) E n H U e 2 5 , = + $ 9 5 4 8 4 6 8 8 5 5 f $ 4 = n 8 M I C pX@.9 4 n 4 * 8 # $ = ",
"%.c 2 Q 8 n W P N s.h.t E h ! '.].^.C A A _ Z 5 B w i.F.&.&.N.>.9 n 9 5 $ n $ $ $ f O 6 E E 8 E + E $ 4 f I 1X0X- + 7 9 8 + - < ",
"u Z ' y N 5 M 9 c S qXy 4 E n m 8 n e d.k.s.Z n 7 y j.8XM.> 0 V w n 8 8 $ 8 n 4 + 8 H $ + + + K n n ) ..f 8 x aX-X0 K o Z 0 3.Q.",
"m 8 9 C t m 8 E ~ S a.y L / M L n n 9 m 8 n m m f x 9 9 Q.k.-.iX;.g 8 8 8 8 g 4 7 4 + g 4 4 4 c k ~ 8 x 5 L 5 y vX$.E 8 i C.-.* ",
"$ 8 + m ).5 j.2.!.< 9.=.! L 9 M n 8 B + T 8 R $ d m r 8 a E 9 -.9 m n $ $ 7 n $ 4 y 4 m 8 n 2 n ) D ^.Z e , e 9 *XcX3.4 5X6.2 O ",
"O 8 2 W - ) D ! ! ! !./.F F ) E 4 w 9 Q h m t 9 n m 9 $ n 8 9 &.9 n n M n 9 8 4 0 t ' m $ n n f n n n m 4 t W 4 %.pXtX7XL.C a 6 ",
"n 8 4 $ m ) 4 ` n f o.! ^.V x a m S 9 t C N b 5 9 m n n 8 Q m =.m M E 8 n 9 4 B ).= 2 4 n 8 m * 8 $ m n E K 8 V &.4X,.,.2X4 T 4 ",
"8 @ + 4 f ~ A M C N m ! ~ S <.F.A m W M E 9 9 Q m Q n n x 8 n p.9 n n 8 n n m Z =.= n + $ 7 ) C + 4 4 n n 9 e 3XwX3X4 n T.<.2 2 ",
"4 4 8 @ ,.k.y ' } m _ n ) ] C -XH.e ~ m m E 8 ! W m E m 4 $ 8 2.w x 9 9 M $ 4 L '.y 4 m ! 8 5 5 f = + 8 8 = G.e.<.P D 5 4 C V +.",
"_.= 2 % V j.m | ` .Xp.Z e p.h.V |.uX$.n x m 4 f n M m ! n $ 8 2.-.c 9 E n f n 8 5 !.m + 9 m 9 m P 9 f L n B N., L a 8 t ).E W (.",
"`.|.w $ g jXm { F ] K x m P K ) p.PXeXQ 8 + 4 x 8 n 8 E n 8 8 =.l.c n L $ 4 n n n m m 5 5 n 7 ) 8 9 O E 9 }.a t x L n W 5 P.m = ",
"v w.@.n 7 G r M m x 4 n Q ) a 9 7.PXdXw i ^ E n 8 n 4 # 4 8 4 - 3.x 8 E n x n $ 4 m t t M x f 7 -.@ 7 = -.w I ) 9 n s E y e y d ",
"% q.qXo a 5 5 8 K 8 4 W m M 9 2.LXMX:X9 8 a n W M 9 f 4 5 @ f q 1.N., 8 m w f E x 5 q.&.5 M T 8 K =.0.e.>.. w 8 m f n = t n t 6 ",
"x e +. X$ 2 2 f a = 8 $ 9 E N *XmXmXnX5.L n 2 E 8 f m 5 : &.*.O.4 i.-.-./.a.V 0 t q.7.2.8 n E m &.%X-XD.&.T.8 m 8 E E x I 8 w V ",
"i.4 9 l./.$ 4 t 4 ! C f X.] m M.xXbXbX,X> I B k 9 y M.zX8X0.&.e 9 n 5 8 I ).Z.e.H.m.7XkXY.6Xq.>.eXqX0 % . d.o x M E m x 7 W t d.",
"e 9 ) h 4X8 8 =.$ E ] E ! } C B.iXyXcXnXKXuXKXdX-XrXrXM.-.9 f q 3 $ V x $ $ j V w 7 t `.6.7.:XIXAX4 + o 3 {.4 4 4 8 m k v n # L ",
",.r x $ B.4 K < L g n * m 8 w 8.pXx.C s.w = - r.<Xz.E 8 M W m k.C f B.e.q 9 w d ~ n m 4 y E 5 ZXNXJ f 4 y -.4 $ M 9 L 8 f 8 n x ",
"C.w x @ y e 8 1.&.@.l.; - 3.Q.u.9 a E 7 n 5 + n P 8 E K E M k q.; 7 -.j.,.7 + 8 . @ g 8 8 8 7 P.VXn m L &.n.+ n $ V B w E 8 9 a ",
"-.+ 2 0 w.4X<.F.jX> n w J.J.5 s n + n 9 g o K * = $ n x m ) ! |.e 6 f V 3 + f $ M 6 M E + ! R c 2X5 . w v.&.@ 7 4 3Xe.0.s.9 7 8 ",
"8 x 8 4.cXxXpXM.q w 5 K.K.= K 8 + m + n # 4 4 E 6 O a m 9 L M gX& 7 x *.5 d 4 8 = ~ @ x 5 x K f 8.v L H {.0 M M C hX1 m y i.e C "
};
