/* XPM */
static char *_ad1587ff3214fd0db23d196857d9d60[] = {
/* columns rows colors chars-per-pixel */
"64 64 167 2 ",
"   c #5D4F34",
".  c #5C4F3A",
"X  c #5F5230",
"o  c #654629",
"O  c #6C442D",
"+  c #654C2D",
"@  c #6C4A2D",
"#  c #75492D",
"$  c #64512E",
"%  c #6A592B",
"&  c #664734",
"*  c #694733",
"=  c #664C35",
"-  c #6B4C35",
";  c #674738",
":  c #684738",
">  c #664D3A",
",  c #6C4D3A",
"<  c #744535",
"1  c #724D35",
"2  c #724E3A",
"3  c #655133",
"4  c #6B5235",
"5  c #615C36",
"6  c #64513A",
"7  c #6C513C",
"8  c #735036",
"9  c #795235",
"0  c #73523B",
"q  c #795339",
"w  c #654F42",
"e  c #6C4E41",
"r  c #684F4A",
"t  c #724E42",
"y  c #635144",
"u  c #6B5141",
"i  c #6C534E",
"p  c #665A4E",
"a  c #715341",
"s  c #7E624C",
"d  c #835F46",
"f  c #8B5D45",
"g  c #855E4B",
"h  c #885F4B",
"j  c #8B5F52",
"k  c #846345",
"l  c #896246",
"z  c #85624C",
"x  c #8A644C",
"c  c #86694B",
"v  c #8D684D",
"b  c #906447",
"n  c #91634A",
"m  c #946C4D",
"M  c #9B6E4D",
"N  c #8F714F",
"B  c #96734E",
"V  c #9D714E",
"C  c #866451",
"Z  c #8A6552",
"A  c #876854",
"S  c #8B6852",
"D  c #956E52",
"F  c #9B6F52",
"G  c #967254",
"H  c #9C7253",
"J  c #9F7853",
"K  c #967359",
"L  c #9C7459",
"P  c #9D785A",
"I  c #A16F4A",
"U  c #A96E4E",
"Y  c #A1744E",
"T  c #A26E53",
"R  c #A17453",
"E  c #A47854",
"W  c #A2765A",
"Q  c #A3795A",
"!  c #9E7060",
"~  c #9E7861",
"^  c #628F3E",
"/  c #63903F",
"(  c #6B963D",
")  c #649A3E",
"_  c #6A993E",
"`  c #73A13F",
"'  c #5C9743",
"]  c #5B9946",
"[  c #658E42",
"{  c #6C884B",
"}  c #738E4A",
"|  c #659443",
" . c #6B9544",
".. c #669C42",
"X. c #6C9B43",
"o. c #649448",
"O. c #6D9649",
"+. c #6E9B4A",
"@. c #719644",
"#. c #729D44",
"$. c #74964E",
"%. c #739D4A",
"&. c #799C4C",
"*. c #729751",
"=. c #779F56",
"-. c #67A042",
";. c #6DA346",
":. c #6FAA45",
">. c #6EA44A",
",. c #66AE4A",
"<. c #6EA94A",
"1. c #74A446",
"2. c #78A445",
"3. c #74AA46",
"4. c #79A946",
"5. c #74A44A",
"6. c #79A54B",
"7. c #75AA4B",
"8. c #7AAA4D",
"9. c #6FB249",
"0. c #72B04B",
"q. c #7AB24D",
"w. c #73A452",
"e. c #7AA652",
"r. c #75AC54",
"t. c #7CAB50",
"y. c #6CB055",
"u. c #7DB051",
"i. c #80A34F",
"p. c #BE916E",
"a. c #BF9372",
"s. c #C1965F",
"d. c #D2945D",
"f. c #C39766",
"g. c #CC9666",
"h. c #C79A63",
"j. c #CB9966",
"k. c #C4956C",
"l. c #CB966C",
"z. c #C7986E",
"x. c #CD996C",
"c. c #D19665",
"v. c #D1966B",
"b. c #D19A6D",
"n. c #C59671",
"m. c #CB9671",
"M. c #C69973",
"N. c #CB9A72",
"B. c #CC9B7A",
"V. c #D19671",
"C. c #D19B72",
"Z. c #D09A78",
"A. c #7F9D9D",
"S. c #7F96A6",
"D. c #7B9CA3",
"F. c #7E9DAA",
"G. c #858F87",
"H. c #86978F",
"J. c #849696",
"K. c #899193",
"L. c #859A93",
"P. c #84969B",
"I. c #8A979D",
"U. c #83999D",
"Y. c #8A9899",
"T. c #8496A2",
"R. c #859AA1",
/* pixels */
"X...#.#. .O.O.@.3.8.3.t.( @.@.O.6.6.6.2.0.7.0.3.5.;.;.>. .@.@.@.>.6.7.>.>.-.+.-.w.5.>.<.5.8.4.4.) ..| .. .| O.} 3.6.5.t. .+. . .",
"X..._ ..O.O.+.O.3.4.4.t._ %.@.+.3.5.7.7.7.q.0.0.;.X.;.;.@. .@.@.1.<.6.>.......+.6.i.6.6.1.1.1.1....... . . . .[ <.6.5.w._  .o.O.",
"_ _ ;._  . .O. .4.q.4.t._ X. . .7.6.3.6.7.0.0.8.;.-.;.+. . .@.X.>.6.3.>.....] +.;.>.>.1.3.1.3.3...-... . . . . .5.6.6.e. .|  . .",
";...` #. .o.@.@.q.7.3.8.X.X.@.X.6.6.8.6.7.9.0.0.;.;.;.>.@.@.+. .5.5.6.>.;...X.-.e.=.e.&.0.3.1.>._ _ | _ /  . . .6.3.7.>.#. .X.X.",
"1.1.5.1.X.O.@.X.3.1.7.6.;.1.5.5.6.6.6.0.7.<.<.3.>.;.<.>.X. . . .6.5.5.5.6.0.r.6.+ $   % ^ ( ) ..6.6.3.e.e.e.t.e.>.>.5.%.>.6.6.6.",
"5.4.4.1.X.@.X. .5.>.<.6.>.>.5.>.0.6.0.6.3.3.<.<.>.;.;.>.X. .+. .6.6.1.6.u.u.t.0.2 : > 1 | #._ | 3.7.6.6.8.t.e.e.+.X.#.#.8.8.e.6.",
"6.4.2.1.X.@. . .6.<.7.3.>.>.<.>.0.r.8.6.7.>.3.1.>.:.;.>.X.X.O.O.6.5.5.6.8.8.8.7.3 . . 1 ' ( _ o.e.6.8.7.8.t.8.t.5.+.>.X.8.7.5.6.",
"1.1.4.1.X.X.X.X.6.5.>.<.3.1.<.>.6.r.8.8.<.<.>.3.;.;.<.;. . .X...&.6.2.1.8.q.q.7.@ - - # ' ( _ | 7.7.6.6.6.e.8.8.#.>.5.#.i.5.1.6.",
"..) ) ..>.>.5.5.6 - 4 6 ..-.-... .;._ #.= + - - ;.;.1.;.5.#.#.#.O.@. .} 3 - = + - - & = - 4 6 6  .+.#.X.>.;.>.3.7.<.7.,.i.>.6.<.",
"-.......5.6.5.%.6 - = = _ -.-.#. .#.#.#.> - = 4 #.#.1.#.%.%.%.#.X.@.#.} 3 - = 4 , : 6 = = = = 6 @.+.X...>.;.;.1.8.9.3.9.6.8.8.5.",
") ) ) ..>.e.6.5.= = = 6 _ -.-._ #._ #.#.= = = = 1.1.;.1.+.+.+.#.@.#.@.} 3 - - 4 > > > = - & - 7  . .X. .3.5.>.5.4.:.4.q.#.4.i.6.",
") ) ..X.>.5.6.5.6 - - = ` ..-.;._ #.( @.= = = - ` ` 2.1.#.;.5.1.$.$.O.{ 5     6 2 , - @ 8 1 @ 4 X.X.+. .5.>.;.%.y.y.r.r.7.7.6.6.",
"<.:.>.>.>.5.%.%.= - = - #.#.-.;.#.1.#.#.7 > : 7 K L K m 0 : : * @ @ $ 3 O < 2 < F B G R M.N.M.M.e.&.6.%.o.| _ | # @ @ % %.<.5.:.",
"9.7.8.7.>.#.%.5.= & - > #.;.1.#.6.2.6.2.7 , , , V I H F 1 @ - - = * 3   * 4 6 + R F B Y N.x.x.j.e.e.e.w. .| | | = 6 = $ w.6.5.7.",
":.3.3.<.;.#.%.%.= - - > #.;.#.#.2.2.2.1.7 > 7 , H V G G 4 = = 3 7 , : 6 - - 6 > H F V Y N.C.b.x.6.6.6.w.| | | O.& 6 > 1 >.1.1.3.",
"3.<.4.5.#.#.%.+.7 7 4 4 #.#...#.1.2.%.2.7 2 7 2 R T V K < : > > $ 4 7 7 < - > , H L H H N.l.l.x.&.5.%.%.[  .[ | 4 4 = 9 >.1.2.5.",
"_ +. .+.+ 7 4 7 k.g.f.M.+ 3 7 4 K P H V P G B I H G R G 1 : 7 & T F F R B V H K G H H T z.x.l.g.0 4 3 4 4 6 4 4 l.l.j.f.2 7 4 7 ",
"@.+.X.+.+ , = 4 g.g.V.V.o = 6 - V B H H G K H H T F B G - - & + K H W H V B V R H H H T C.x.x.l.7 7 6 = = = = = l.m.x.k.4 : $ = ",
"@.*. .+.- - @ > C.b.V.B.@ > > & V V V H G P G G T W R K @ - = 3 H H K V E G T R R W H E M.C.x.l.- & & & - = = 7 z.V.x.k.- - + - ",
"+.+. .o.4 @ @ * k.V.V.k.9 @ - 1 m L P B R V Y E H R K D 1 * + * R R R R B L L H V T T E f.x.x.x.2 4 @ @ 1 1 @ - x.V.x.f.2 > = - ",
"%.%.#.6.N L B P Y V V E p.M.N.k.0 , - 8 z.C.x.k.c l l v F H ! H N.g.l.k.q 7 2 , x.M.N.k.b.j.x.l.K M V E n.M.N.N.x.V.x.k.2 > 4 - ",
"5.w.5.6.G L B L G L R V N.g.g.x.7 e 7 4 N.v.v.b.c z C l L H F H b.b.b.B.@ , e 7 h.x.N.x.x.x.j.b.R V M Y k.x.x.g.x.N.b.l.2 , 4 2 ",
"5.>.#.&.G W Y H H H H I C.b.g.g.0 e e < m.b.b.g.z Z Z x F H V R C.j.g.M.2 t 7 7 x.x.C.x.x.j.l.x.R F V Y N.B.x.b.x.b.V.f.2 7 2 : ",
"=.w.5.&.G L V R I F H G N.x.N.k.q , 7 8 k.b.x.M.n S g x V H B H N.x.x.p.q 7 : 2 h.l.z.N.l.x.x.l.Q W T R V.N.x.x.l.V.g.g.2 7 2 2 ",
"V B V L V R W K - 7 7 , L T R Q g.l.x.x.x.C.x.C.V H V H V R V B c n z z T Y B R , 4 2 2 7 4 7 2 m.N.x.x.N.x.x.l.8 - 7 q k.V.l.M.",
"V H L H R V H H 2 : 7 - H V V H l.N.N.x.x.x.x.x.H H H R H H V J A Z C C L G B T 7 , > , , , 7 7 l.g.x.x.C.B.x.x.7 u u 8 m.g.v.x.",
"H R H M R G V G t , e * L V E V l.l.x.l.b.b.c.b.H H H G H H H R s z l k G K G Y 7 > 7 , , > 7 2 l.x.b.b.x.N.N.f., 7 > @ B.v.b.v.",
"T R R E M K K D < , 8 2 D G H H N.N.l.l.C.b.x.x.L K K M E H H H l n f f ~ K K L 2 1 1 2 1 1 2 8 l.g.b.C.k.N.V.N.8 7 , q k.N.l.l.",
"z.z.l.k.q 2 2 2 K L B D v Z x j M V Y E f.V.C.x., 1 8 9 D F E H 6 6 w p G.L.Y.Y.K H G H K G L P V.N.x.k.E R I V G G F D R Y R R ",
"x.b.b.B.- 7 e 2 B B V H d z z Z H H V R M.N.z.h.7 2 4 8 F K H V e , 2 i K.R.T.S.H H V H Y V G E m.m.N.m.R H R R V V T E D G L H ",
"x.x.c.m.8 u e , G V H H z C Z Z K G V Y M.N.b.x.7 , : < D H T T * * 1 u H.D.U.U.V V V H H V H R C.b.C.N.Y H G H H V V H H L G H ",
"N.b.v.k.8 > > 1 H V V H z s x l G T Y Y N.x.b.x.7 , : 4 K K H R > > , r J.D.T.U.H V G V H H G J x.b.x.z.Y H V G K R R G Q H Y Y ",
"V.Z.b.l.E L G R x.x.x.N.T H H V H H H R V V R R N.x.x.N.R G H F C.C.C.x.b.N.x.x.N.x.C.N.l z z f - > ; - M.b.x.M.R R V G < , : > ",
"x.g.g.l.R L R R x.x.b.x.Y V H V H H H H H H H H x.x.b.N.E T H F C.b.b.N.b.b.b.b.b.b.c.m.z A C g - e 7 - N.c.g.C.R R K G 1 7 : , ",
"x.x.V.C.B F H R l.g.x.l.Y G H H R V H T H H R H x.g.x.l.Y H F I b.b.l.x.g.x.l.V.l.b.x.N.n z s A : e > @ B.b.c.b.L L L G 0 , 2 u ",
"k.M.M.k.E R H H M.V.x.m.R G H K H V R H F K G K N.m.m.m.H F K H N.l.V.l.V.N.m.l.m.N.M.p.m C g C u e 7 8 a.l.k.M.R R T M q 9 1 1 ",
"8 1 8 q B G V G H Y R H 1 , 2 < H H R F v x x v V T R H 1 4 - 4 E R Y V H R V Y b l l m M F H F , , - - 8 8 1 2 z.f.l.C.m.n.M.B.",
"7 7 , * P H V J G H L L 2 , 7 , F H L F l l z l H H H L 8 , 7 : R H P H H H H G C z C z H F E V 2 4 , t ; , e 7 b.x.j.b.l.V.l.g.",
": 7 e , L M V K H G G K , , e 7 F H L K x z x Z H H H K 7 > 7 - H H H H H H H H C C A x H V Y H 2 - - 2 > e e , x.j.x.x.x.x.x.x.",
"8 - > 2 M T T L H H R H 2 7 2 2 T H L D x z C z F V Y H 2 , > , H H H V H H R H l C z C H T G K u 7 0 , , : 2 2 m.x.x.x.N.m.l.l.",
"H G G H H H H H T.P.T.D.v.x.m.s.2 2 2 , 4 , 2 - V G H T z.x.x.x.4 7 7 2 H Y Y T H H V T H Y H H V V G F 1 4 > 7 H V L K 2 4 e 7 ",
"H H H L H H P H P.L.Y.A.b.x.Z.g.7 7 4 , , , , 2 H H H R z.x.x.C.> 7 > , K H V G T H H H H R T H R L L K 1 : , e Y H F K 2 7 , > ",
"R T H H H L H K T.P.I.J.l.x.x.s.2 , > : 7 > , , G H H Y z.x.N.N.: , , 2 G H H H H H H H G H V G H L L K 2 , , 7 F L K K < 2 : 7 ",
"I F T E M H H W D.D.U.P.B.B.Z.V.2 2 1 1 1 < 2 1 V L H H x.b.b.C.- , 4 1 H T Y R J V Y V V T Y H R T F M 9 1 1 - F K L D 2 , : 7 ",
"N.x.M.k.E H G V U U E L d.j.h.p.P H L L H H L K V G H Y x.x.x.C.H L H R M.N.N.N.x.N.N.N.V.N.V.N.l.l.x.B.k.N.B.B.2 - 8 0 z z Z z ",
"l.x.z.z.T Y H H B L H L x.N.b.V.R H V R H H T H V V H Y z.x.b.x.F H H E V.b.x.x.x.b.b.b.l.b.b.b.b.b.b.b.g.x.z.g.2 - 2 @ C z x z ",
"b.x.C.M.Y V H H L L R H z.z.j.j.H H H V H H V V V P G J z.x.x.x.Y H T Y l.l.l.N.x.x.x.N.b.x.x.N.x.j.j.x.b.b.b.v., , 2 , C z Z Z ",
"b.x.V.N.T H H H Y H Y Y N.N.b.C.H H H H H H E H R R H Y l.b.x.x.V F G Y M.g.l.m.x.x.x.x.x.x.x.x.l.l.l.l.b.N.l.b.a a 2 , Z S Z x ",
"C.g.x.N.x Z Z k H H H Y N.x.x.x.G J G V N.z.l.N.N.x.x.l.x.V.x.x.K K H H H H H R x.b.b.x.b.N.l.l.0 7 0 8 V.l.b.x.g.l.g.f.l.N.l.k.",
"x.x.b.M.n g Z l H H G T N.x.x.z.H H Q I x.j.x.x.x.x.x.x.x.C.b.b.H F F H H H W R z.x.z.z.C.C.z.f.0 7 4 4 N.b.b.V.g.x.x.x.b.b.x.b.",
"b.b.b.z.n j j Z H H H Y N.b.b.l.Q T R Y C.x.b.x.x.x.j.b.x.N.x.x.T H H W H W R L V.C.V.V.V.C.V.V.q , > 1 N.N.C.m.x.N.b.l.x.l.g.x.",
"N.z.z.p.D Z x z H H K R m.N.x.l.R F H R n.k.N.z.N.z.x.C.k.M.B.N.V Y R R M H P H j.x.j.x.j.x.g.c.7 > 7 8 n.N.V.N.N.N.N.N.N.N.x.C.",
"l x x m f z Z x H H H H z.x.x.l.R R J G n x l n H R V M 9 1 @ @ C.B.x.p.E V V B t e e e t 7 e 7 2 7 7 * W I Y V l n l b V V M M ",
"C z g j s z z l H H H Y N.x.x.l.G H B H z g C C K L H K 2 , , 7 x.C.x.z.Y V V J 7 - 7 7 > , : > @ > 7 - H I H H C Z z Z L P H T ",
"C Z z Z C c C z H H H H N.x.l.l.R H G H z S Z z R H H K , , > > C.b.C.z.Y V H H 2 , 4 2 2 , : 2 2 , 7 - L H H L C C z x K H H V ",
"k c x z z z z z R H H H N.b.z.l.W T T H n z v l F V G G 1 , 7 - v.x.z.M.T H H K , , , 7 7 : , , 2 , e , L T T G C z x x V H R Y ",
"Z.l.V.n.1 e 7 4 C x C l C z C l H P H V N.l.l.l.2 , , 1 H V V V b.b.N.N.J R H H z.x.x.d.y 7 - 4 D L H M L H V R > , 7 < L V V H ",
"l.x.x.M.1 , 7 , z z C z v z x S G G V Y N.N.x.x.7 > : 4 K R H V x.b.b.z.V V H H l.x.z.c.w , , t V V V G H L H H 7 : : 2 G H T H ",
"g.b.b.m.q < t 2 z z Z z C f z l G V V R M.N.x.g.2 7 , 2 K H K F x.x.b.z.Y V V R l.B.C.N.7 , , e V G T E F D L K 2 7 , 0 F H H K ",
"N.m.k.a.q e : , z z x z v x c v V V V R k.k.N.N.1 , , 8 M H H H N.N.z.k.E V V G d.c.x.k.8 2 e w M G G F W R R R < 4 2 0 D H R R ",
"l x n D - > 7 7 C z x l B L K K H R H M R T V V L L L D E Y V F Y V R E B H R L F.T.R.Y.y 7 2 1 2 7 , q n.N.x.l.H K G N W Y V G ",
"C Z g C - 7 - > C z C x L L R H G H R H R R F W Y H K F R Y Y H T H R R H H H K P.P.U.J.> > 2 : > 7 ; 1 Z.v.v.x.V G L V R V V J ",
"C C g C , 7 - 7 x z z l H G H V H T R H H H H H T H H H R V V G H V V G H H R H R.U.U.S., , 7 , , e e 2 M.v.x.x.E R H H V H V H ",
"k x j C 2 , : t z z n l K H R H V V H R H H H H H H L L H R H L R G H V G V H G T.P.R.T.1 , t e 8 > > 8 l.b.b.M.T H K H R R H H "
};
